# Blender v3.1.2 OBJ File: ''
# www.blender.org
mtllib dhd.mtl
o origin_23
v 0.421225 1.091106 0.072720
v 0.413203 1.097510 0.080143
v 0.449325 1.084103 0.077401
v 0.478161 1.106530 0.141085
v 0.484972 1.100519 0.133643
v 0.488328 1.106509 0.147775
v 0.416168 1.106416 0.075664
v 0.452291 1.093008 0.072923
v 0.437795 1.082027 0.065639
v 0.424190 1.100011 0.068241
v 0.487937 1.109424 0.129164
v 0.453320 1.079695 0.071282
v 0.474800 1.116595 0.134724
v 0.456285 1.088601 0.066804
v 0.468030 1.119445 0.135908
v 0.465065 1.110540 0.140387
v 0.414515 1.091354 0.068770
v 0.417481 1.100259 0.064291
v 0.491294 1.115414 0.143297
v 0.447722 1.081894 0.071947
v 0.450688 1.090799 0.067468
v 0.471835 1.107690 0.139203
v 0.440761 1.090932 0.061161
v 0.481126 1.115435 0.136607
vt 0.602151 0.551531
vt 0.601571 0.554102
vt 0.602773 0.551404
vt 0.615984 0.580173
vt 0.615996 0.580151
vt 0.616018 0.580143
vt 0.602768 0.554251
vt 0.603599 0.550836
vt 0.601173 0.552496
vt 0.601636 0.550790
vt 0.617713 0.579541
vt 0.600794 0.553931
vt 0.599848 0.553716
vt 0.601130 0.562241
vt 0.602476 0.559889
vt 0.603599 0.561659
vt 0.602458 0.551167
vt 0.602249 0.550422
vt 0.614977 0.582016
vt 0.601088 0.553504
vt 0.600047 0.553180
vt 0.602021 0.559865
vt 0.600449 0.552100
vt 0.614977 0.578946
vn 0.0740 -0.8873 0.4552
vn 0.2299 -0.9095 0.3463
vn -0.2851 -0.8563 0.4306
vn -0.2851 -0.8563 0.4307
vn -0.1605 0.6954 0.7004
vn 0.2102 0.3824 0.8998
vn 0.2103 0.3825 0.8997
vn -0.4943 -0.2536 -0.8315
vn -0.3010 0.0263 -0.9533
vn -0.7631 -0.0691 -0.6426
vn 0.9268 -0.3608 -0.1039
vn 0.9268 -0.3609 -0.1039
vn -0.7490 0.3280 0.5758
vn -0.9318 0.3529 0.0847
vn 0.4205 -0.5155 -0.7466
vn 0.4205 -0.5156 -0.7466
vn 0.9344 -0.3485 -0.0742
vn 0.0419 -0.2841 -0.9579
vn -0.2505 -0.3671 -0.8958
vn 0.3012 0.3465 0.8884
vn -0.9532 0.2060 -0.2214
vn 0.1829 -0.4641 -0.8667
vn 0.4544 -0.5164 -0.7259
vn -0.4699 0.5165 0.7158
vn -0.4699 0.5164 0.7159
vn -0.2852 -0.8563 0.4307
vn -0.2852 -0.8563 0.4306
vn -0.4107 -0.6568 0.6324
vn -0.4942 -0.2536 -0.8316
vn -0.7631 -0.0690 -0.6426
vn -0.6282 0.7774 0.0318
vn 0.1155 -0.4061 -0.9065
vn 0.9344 -0.3485 -0.0743
vn -0.2506 -0.3670 -0.8958
vn -0.9531 0.2060 -0.2216
vn 0.5431 -0.2306 -0.8074
vn 0.4543 -0.5164 -0.7259
vn -0.4700 0.5165 0.7158
usemtl dhd.017
s 1
f 1/1/1 3/2/2 2/3/3
f 4/4/4 5/5/4 6/6/4
f 3/2/5 8/7/6 7/8/7
f 9/9/8 1/1/9 10/10/8
f 4/4/10 11/11/10 5/5/10
f 12/12/11 14/13/11 13/14/12
f 3/2/13 16/15/14 15/16/14
f 17/17/15 18/18/16 10/10/16
f 5/5/17 19/19/17 6/6/17
f 20/20/18 21/21/19 14/13/19
f 22/22/20 13/14/20 15/16/20
f 17/17/21 2/3/21 7/8/21
f 20/20/22 9/9/23 23/23/23
f 4/4/24 19/19/24 24/24/25
f 22/22/26 3/2/2 12/12/27
f 12/12/27 3/2/2 20/20/28
f 20/20/28 3/2/2 9/9/4
f 9/9/4 3/2/2 1/1/1
f 1/1/1 2/3/3 17/17/3
f 3/2/2 22/22/26 16/15/26
f 3/2/5 7/8/7 2/3/7
f 9/9/29 10/10/29 23/23/29
f 4/4/30 24/24/30 11/11/30
f 12/12/11 13/14/12 22/22/12
f 3/2/31 15/16/14 8/7/14
f 17/17/15 10/10/16 1/1/32
f 5/5/33 11/11/33 19/19/33
f 20/20/18 14/13/19 12/12/34
f 22/22/20 15/16/20 16/15/20
f 17/17/35 7/8/35 18/18/35
f 20/20/36 23/23/37 21/21/37
f 4/4/24 6/6/38 19/19/24
