# Blender v3.1.2 OBJ File: ''
# www.blender.org
mtllib dhd_light.mtl
o origin_23.001
v 0.452291 1.093008 0.072923
v 0.416168 1.106416 0.075664
v 0.424190 1.100011 0.068241
v 0.481126 1.115435 0.136607
v 0.491294 1.115414 0.143297
v 0.487937 1.109424 0.129164
v 0.450688 1.090799 0.067468
v 0.456285 1.088601 0.066804
v 0.474800 1.116595 0.134724
v 0.468030 1.119445 0.135908
v 0.417481 1.100259 0.064291
v 0.440761 1.090932 0.061161
vt 0.439642 0.666170
vt 0.450895 0.597319
vt 0.477071 0.582438
vt 0.577569 0.764751
vt 0.585637 0.790799
vt 0.553351 0.776530
vt 0.426736 0.659497
vt 0.420356 0.672278
vt 0.578191 0.749543
vt 0.586827 0.734786
vt 0.446166 0.579109
vt 0.418445 0.632679
vn 0.2851 0.8563 -0.4306
vn 0.2852 0.8563 -0.4307
vn 0.2851 0.8563 -0.4307
vn 0.2851 0.8564 -0.4306
usemtl dhd_button_light.018
s 1
f 1/1/1 3/2/2 2/3/2
f 4/4/3 5/5/3 6/6/3
f 7/7/4 1/1/1 8/8/1
f 8/8/1 1/1/1 9/9/3
f 9/9/3 1/1/1 10/10/3
f 2/3/2 3/2/2 11/11/2
f 3/2/2 1/1/1 12/12/1
f 12/12/1 1/1/1 7/7/4
