# Blender v3.1.2 OBJ File: ''
# www.blender.org
mtllib dhd.mtl
o origin_26
v 0.462821 1.078160 0.074521
v 0.457985 1.080010 0.074997
v 0.466933 1.094050 0.108837
v 0.472711 1.093800 0.112166
v 0.497493 1.102775 0.122271
v 0.475677 1.102705 0.107687
v 0.433984 1.087402 0.073803
v 0.441343 1.101137 0.081837
v 0.436950 1.096307 0.069324
v 0.494527 1.093870 0.126749
v 0.476189 1.116849 0.136148
v 0.438378 1.092232 0.086316
v 0.469899 1.102955 0.104358
v 0.467646 1.096790 0.114756
v 0.473224 1.107943 0.140627
v 0.440880 1.095652 0.094772
v 0.470611 1.105695 0.110278
v 0.451342 1.079267 0.069121
v 0.460951 1.088915 0.070518
v 0.451084 1.116510 0.143002
v 0.455074 1.121167 0.130754
v 0.454050 1.125415 0.138523
v 0.460951 1.118552 0.129446
v 0.443845 1.104557 0.090293
v 0.469466 1.082498 0.063396
v 0.454307 1.088172 0.064642
v 0.433013 1.096626 0.091500
v 0.452108 1.112262 0.135233
v 0.457986 1.109647 0.133924
v 0.467365 1.118798 0.134182
v 0.466501 1.073592 0.067875
v 0.465786 1.087066 0.070042
v 0.410630 1.097757 0.078930
v 0.435978 1.105531 0.087021
v 0.464400 1.109893 0.138661
v 0.413595 1.106662 0.074451
vt 0.622379 0.547613
vt 0.620744 0.543101
vt 0.622021 0.547775
vt 0.621368 0.542606
vt 0.622409 0.542740
vt 0.623178 0.541253
vt 0.615422 0.545703
vt 0.615647 0.546121
vt 0.616256 0.545615
vt 0.622522 0.541245
vt 0.621973 0.539908
vt 0.615872 0.544982
vt 0.619984 0.544691
vt 0.620824 0.542363
vt 0.622035 0.540837
vt 0.616256 0.544019
vt 0.620334 0.541546
vt 0.622034 0.548173
vt 0.621094 0.548218
vt 0.615201 0.538720
vt 0.614804 0.538085
vt 0.614334 0.538965
vt 0.617193 0.542268
vt 0.616373 0.538755
vt 0.621499 0.549070
vt 0.623199 0.548593
vt 0.615443 0.544407
vt 0.615274 0.539102
vt 0.615709 0.539095
vt 0.616052 0.538198
vt 0.622464 0.548164
vt 0.623352 0.547689
vt 0.614847 0.545621
vt 0.614490 0.544256
vt 0.615619 0.538639
vt 0.614334 0.546082
vn -0.2290 -0.9536 0.1954
vn -0.0619 -0.2322 0.9707
vn -0.2298 -0.9491 0.2155
vn 0.7138 -0.3627 -0.5991
vn 0.4770 -0.5165 -0.7111
vn 0.9065 -0.3869 -0.1690
vn 0.9065 -0.3869 -0.1689
vn 0.6175 0.1795 0.7659
vn 0.6174 0.1795 0.7659
vn 0.6175 0.1795 0.7658
vn 0.7292 -0.3938 -0.5596
vn 0.5511 -0.5141 -0.6573
vn 0.5511 -0.5141 -0.6572
vn -0.9067 0.2487 0.3406
vn -0.9386 0.3405 0.0556
vn -0.9151 0.2536 0.3136
vn -0.5988 0.4061 -0.6903
vn -0.9286 0.3581 0.0970
vn 0.1101 -0.0288 0.9935
vn -0.5480 0.7079 0.4456
vn -0.5267 0.5153 0.6761
vn -0.6013 0.5098 0.6153
vn -0.6014 0.6699 0.4354
vn -0.9516 0.1991 -0.2343
vn 0.8990 0.4344 0.0551
vn 0.8797 -0.4121 -0.2370
vn 0.8797 -0.4121 -0.2371
vn -0.2163 -0.3803 -0.8992
vn -0.8374 0.2694 0.4755
vn -0.9060 0.4211 0.0415
vn -0.8798 0.4121 0.2368
vn 0.7094 -0.3737 -0.5975
vn 0.5217 -0.5155 -0.6798
vn 0.5217 -0.5155 -0.6797
vn 0.8639 -0.0350 0.5024
vn -0.3999 0.5146 0.7584
vn -0.4298 0.7098 0.5581
vn 0.4239 0.2903 0.8579
vn 0.9659 -0.2260 0.1266
vn 0.9290 -0.3574 -0.0956
vn 0.9290 -0.3575 -0.0956
vn -0.3396 -0.3299 -0.8808
vn -0.1301 -0.8257 0.5488
vn -0.5051 -0.7403 0.4437
vn -0.2851 -0.8563 0.4306
vn -0.2852 -0.8563 0.4306
vn -0.2851 -0.8563 0.4307
vn -0.2516 -0.9530 0.1687
vn -0.7965 -0.5549 -0.2402
vn -0.5017 -0.7779 0.3785
vn -0.1841 -0.9681 0.1700
vn -0.5598 -0.7401 0.3726
vn -0.2852 -0.8563 0.4307
vn 0.9053 -0.2377 -0.3521
vn 0.6175 0.1796 0.7658
vn 0.1519 0.1726 -0.9732
vn -0.7939 0.5944 0.1283
vn -0.8140 0.5501 0.1863
vn 0.2161 0.9063 0.3633
vn -0.5267 0.5154 0.6760
vn -0.6012 0.5097 0.6154
vn -0.8922 0.3872 -0.2326
vn 0.8575 -0.2680 -0.4391
vn -0.2163 -0.3802 -0.8992
vn -0.7129 0.6158 0.3355
vn 0.5217 -0.5156 -0.6797
vn 0.9192 0.1722 0.3541
vn 0.4240 0.2903 0.8579
vn 0.9246 -0.1751 -0.3383
usemtl dhd.022
s 1
f 1/1/1 3/2/2 2/3/3
f 4/4/4 6/5/5 5/6/5
f 7/7/6 9/8/7 8/9/6
f 10/10/8 5/6/9 11/11/10
f 12/12/11 8/9/12 13/13/13
f 14/14/14 15/15/15 11/11/15
f 2/3/16 3/2/17 13/13/18
f 16/16/19 14/14/20 17/17/21
f 18/18/22 2/3/23 19/19/22
f 20/20/24 22/21/24 21/22/24
f 16/16/25 24/23/26 23/24/27
f 18/18/28 26/25/28 25/26/28
f 27/27/29 28/28/30 21/22/31
f 29/29/32 23/24/33 30/30/34
f 31/31/35 25/26/35 32/32/35
f 33/33/36 27/27/37 34/34/36
f 20/20/38 35/35/38 30/30/38
f 1/1/39 32/32/40 6/5/41
f 7/7/42 33/33/42 36/36/42
f 28/28/43 29/29/44 20/20/45
f 20/20/45 29/29/44 35/35/46
f 7/7/47 27/27/48 33/33/47
f 27/27/48 16/16/49 28/28/43
f 28/28/43 16/16/49 29/29/44
f 12/12/50 27/27/48 7/7/47
f 12/12/50 16/16/49 27/27/48
f 14/14/51 10/10/47 15/15/45
f 12/12/50 3/2/2 16/16/49
f 16/16/49 3/2/2 14/14/51
f 14/14/51 4/4/52 10/10/47
f 1/1/1 18/18/53 31/31/53
f 14/14/51 3/2/2 4/4/52
f 4/4/52 3/2/2 1/1/1
f 1/1/1 2/3/3 18/18/53
f 4/4/4 5/6/5 10/10/5
f 7/7/6 8/9/6 12/12/54
f 10/10/8 11/11/10 15/15/55
f 12/12/11 13/13/13 3/2/56
f 14/14/57 11/11/15 17/17/15
f 2/3/58 13/13/18 19/19/18
f 16/16/59 17/17/60 24/23/60
f 18/18/61 19/19/61 26/25/61
f 20/20/24 21/22/24 28/28/62
f 16/16/25 23/24/27 29/29/63
f 18/18/28 25/26/28 31/31/64
f 27/27/65 21/22/31 34/34/31
f 29/29/32 30/30/34 35/35/66
f 31/31/35 32/32/35 1/1/67
f 33/33/36 34/34/36 36/36/36
f 20/20/68 30/30/68 22/21/68
f 1/1/39 6/5/41 4/4/69
f 7/7/42 36/36/42 9/8/42
