# Blender v3.1.2 OBJ File: ''
# www.blender.org
mtllib dhd_light.mtl
o origin_26.001
v 0.469899 1.102955 0.104358
v 0.475677 1.102705 0.107687
v 0.470611 1.105695 0.110278
v 0.435978 1.105531 0.087021
v 0.413595 1.106662 0.074451
v 0.436950 1.096307 0.069324
v 0.441343 1.101137 0.081837
v 0.467365 1.118798 0.134182
v 0.454050 1.125415 0.138523
v 0.460951 1.118552 0.129446
v 0.455074 1.121167 0.130754
v 0.443845 1.104557 0.090293
v 0.460951 1.088915 0.070518
v 0.454307 1.088172 0.064642
v 0.465786 1.087066 0.070042
v 0.469466 1.082498 0.063396
v 0.497493 1.102775 0.122271
v 0.476189 1.116849 0.136148
vt 0.505895 0.723286
vt 0.520323 0.727896
vt 0.509538 0.738191
vt 0.489855 0.635508
vt 0.443037 0.628146
vt 0.476080 0.575628
vt 0.471940 0.645289
vt 0.583088 0.732421
vt 0.576667 0.715454
vt 0.605141 0.704300
vt 0.584901 0.702694
vt 0.491686 0.655679
vt 0.426193 0.685156
vt 0.420955 0.696190
vt 0.416336 0.666488
vt 0.400562 0.701318
vt 0.528182 0.794782
vt 0.580567 0.753381
vn 0.2851 0.8563 -0.4306
vn 0.2852 0.8563 -0.4306
vn 0.2851 0.8563 -0.4307
vn 0.2852 0.8563 -0.4307
usemtl dhd_button_light.026
s 1
f 1/1/1 3/2/1 2/3/2
f 4/4/3 6/5/3 5/6/3
f 4/4/3 7/7/4 6/5/3
f 8/8/3 10/9/3 9/10/2
f 9/10/2 10/9/3 11/11/2
f 11/11/2 12/12/3 4/4/3
f 4/4/3 12/12/3 7/7/4
f 12/12/3 11/11/2 10/9/3
f 13/13/1 15/14/3 14/15/3
f 14/15/3 15/14/3 16/16/3
f 1/1/1 15/14/3 13/13/1
f 2/3/2 3/2/1 17/17/3
f 17/17/3 3/2/1 18/18/3
f 1/1/1 2/3/2 15/14/3
f 3/2/1 1/1/1 12/12/3
f 12/12/3 1/1/1 7/7/4
