# Blender v3.1.2 OBJ File: ''
# www.blender.org
mtllib dhd.mtl
o origin_13
v 0.450627 1.104226 0.118274
v 0.426168 1.106814 0.107226
v 0.455718 1.101120 0.115468
v 0.451729 1.075218 0.061326
v 0.458683 1.110025 0.110989
v 0.453525 1.115459 0.142527
v 0.476171 1.115453 0.133363
v 0.456490 1.124364 0.138049
v 0.429133 1.115719 0.102747
v 0.454694 1.084123 0.056848
v 0.453592 1.113131 0.113796
v 0.468404 1.106388 0.134344
v 0.473206 1.106548 0.137841
v 0.452126 1.105231 0.121265
v 0.466335 1.114664 0.125280
v 0.471369 1.115293 0.129865
v 0.453533 1.107160 0.126032
v 0.455091 1.114136 0.116786
v 0.463370 1.105759 0.129759
v 0.462776 1.113546 0.120702
v 0.457788 1.118472 0.127193
v 0.456498 1.116065 0.121553
v 0.456913 1.102882 0.119765
v 0.459811 1.104641 0.125181
v 0.454822 1.109567 0.131671
v 0.457891 1.121077 0.132440
v 0.459878 1.111787 0.115286
v 0.454926 1.112172 0.136919
vt 0.610606 0.564442
vt 0.607867 0.557931
vt 0.612839 0.564510
vt 0.613323 0.553694
vt 0.615568 0.564728
vt 0.609689 0.571676
vt 0.614353 0.574498
vt 0.607987 0.573143
vt 0.605173 0.556873
vt 0.615576 0.550654
vt 0.606939 0.564829
vt 0.612576 0.570859
vt 0.612377 0.571902
vt 0.610592 0.565742
vt 0.615575 0.569727
vt 0.615420 0.572102
vt 0.610360 0.567517
vt 0.607048 0.565862
vt 0.612516 0.569445
vt 0.615576 0.567907
vt 0.607150 0.569338
vt 0.607118 0.567510
vt 0.612499 0.565845
vt 0.612409 0.567836
vt 0.610112 0.569366
vt 0.607174 0.570994
vt 0.615544 0.566054
vt 0.609856 0.570723
vn -0.0886 -0.8578 0.5063
vn -0.2851 -0.8563 0.4307
vn -0.3301 -0.8466 0.4175
vn 0.9562 -0.2852 0.0660
vn 0.9453 -0.3255 -0.0214
vn 0.9590 -0.2821 -0.0279
vn 0.3551 0.3229 0.8773
vn -0.8631 0.0339 -0.5040
vn -0.8630 0.0339 -0.5040
vn -0.3095 0.5075 0.8041
vn 0.5905 -0.5026 -0.6314
vn 0.5155 -0.5158 -0.6843
vn -0.9045 0.3943 0.1624
vn -0.8571 0.4289 0.2854
vn -0.7535 0.6087 0.2486
vn 0.6828 -0.4968 -0.5357
vn 0.5658 -0.5130 -0.6455
vn -0.9312 0.3557 0.0798
vn -0.8931 0.4005 0.2050
vn 0.6569 -0.4895 -0.5734
vn 0.7983 -0.4608 -0.3877
vn -0.9519 0.3056 -0.0226
vn -0.9292 0.3571 0.0948
vn 0.9128 -0.3697 -0.1736
vn 0.7888 -0.4416 -0.4275
vn -0.9413 0.3374 0.0116
vn -0.9535 0.2079 -0.2181
vn 0.8908 -0.4026 -0.2106
vn -0.9351 0.1497 -0.3213
vn -0.9447 0.2625 -0.1966
vn -0.3130 -0.8532 0.4173
vn -0.2852 -0.8563 0.4307
vn -0.2425 -0.8858 0.3957
vn -0.2617 -0.8427 0.4705
vn -0.2784 -0.8791 0.3869
vn -0.2900 -0.8330 0.4712
vn -0.2776 -0.8522 0.4434
vn -0.3170 -0.8668 0.3849
vn -0.2631 -0.8431 0.4691
vn -0.4650 0.5706 0.6769
vn 0.5156 -0.5158 -0.6842
vn -0.8570 0.4290 0.2855
vn -0.9351 0.1498 -0.3213
usemtl dhd.023
s 1
f 1/1/1 2/2/2 3/3/3
f 4/4/4 5/5/5 3/3/6
f 6/6/7 7/7/7 8/8/7
f 4/4/8 9/9/8 10/10/9
f 2/2/10 11/11/10 9/9/10
f 12/12/11 7/7/12 13/13/12
f 14/14/13 11/11/14 1/1/15
f 12/12/11 15/15/16 16/16/17
f 17/17/18 18/18/19 14/14/13
f 19/19/20 20/20/21 15/15/16
f 17/17/18 21/21/22 22/22/23
f 23/23/24 20/20/21 24/24/25
f 25/25/26 26/26/27 21/21/22
f 3/3/6 27/27/28 23/23/24
f 6/6/29 26/26/27 28/28/30
f 12/12/31 13/13/2 6/6/32
f 12/12/31 6/6/32 28/28/33
f 19/19/34 12/12/31 28/28/33
f 19/19/34 28/28/33 25/25/35
f 24/24/36 19/19/34 25/25/35
f 24/24/36 25/25/35 17/17/37
f 23/23/38 24/24/36 17/17/37
f 23/23/38 17/17/37 14/14/39
f 2/2/2 4/4/2 3/3/3
f 3/3/3 23/23/38 1/1/1
f 23/23/38 14/14/39 1/1/1
f 4/4/4 10/10/4 5/5/5
f 6/6/7 13/13/7 7/7/7
f 4/4/8 2/2/8 9/9/8
f 2/2/10 1/1/40 11/11/10
f 12/12/11 16/16/17 7/7/41
f 14/14/13 18/18/19 11/11/42
f 12/12/11 19/19/20 15/15/16
f 17/17/18 22/22/23 18/18/19
f 19/19/20 24/24/25 20/20/21
f 17/17/18 25/25/26 21/21/22
f 23/23/24 27/27/28 20/20/21
f 25/25/26 28/28/30 26/26/27
f 3/3/6 5/5/5 27/27/28
f 6/6/29 8/8/43 26/26/27
