# Blender v3.1.2 OBJ File: ''
# www.blender.org
mtllib dhd_light.mtl
o origin_13.001
v 0.471369 1.115293 0.129865
v 0.466335 1.114664 0.125280
v 0.462776 1.113546 0.120702
v 0.459878 1.111787 0.115286
v 0.458683 1.110025 0.110989
v 0.454694 1.084123 0.056848
v 0.429133 1.115719 0.102747
v 0.453592 1.113131 0.113796
v 0.455091 1.114136 0.116786
v 0.456498 1.116065 0.121553
v 0.457788 1.118472 0.127193
v 0.457891 1.121077 0.132440
v 0.456490 1.124364 0.138049
v 0.476171 1.115453 0.133363
vt 0.605904 0.734360
vt 0.625841 0.739133
vt 0.573231 0.766610
vt 0.538010 0.703844
vt 0.377621 0.610753
vt 0.566626 0.612001
vt 0.556031 0.694451
vt 0.549128 0.713588
vt 0.562548 0.703025
vt 0.560595 0.729605
vt 0.574735 0.714055
vt 0.568254 0.746123
vt 0.589839 0.726096
vt 0.575266 0.784819
vn 0.2852 0.8563 -0.4306
vn 0.2851 0.8563 -0.4305
vn 0.2851 0.8563 -0.4307
vn 0.2851 0.8563 -0.4306
vn 0.2852 0.8562 -0.4307
vn 0.2852 0.8563 -0.4307
usemtl dhd_button_light.027
s 1
f 12/1/1 13/2/1 1/3/1
f 5/4/2 6/5/3 7/6/3
f 5/4/2 7/6/3 8/7/4
f 4/8/1 5/4/2 8/7/4
f 4/8/1 8/7/4 9/9/5
f 3/10/6 4/8/1 10/11/6
f 4/8/1 9/9/5 10/11/6
f 2/12/3 3/10/6 11/13/3
f 3/10/6 10/11/6 11/13/3
f 13/2/1 14/14/6 1/3/1
f 1/3/1 2/12/3 12/1/1
f 2/12/3 11/13/3 12/1/1
