# Blender v3.1.2 OBJ File: ''
# www.blender.org
mtllib dhd.mtl
o origin_14
v 0.430908 1.100552 0.097914
v 0.418994 1.093822 0.076644
v 0.407536 1.106026 0.093323
v 0.483495 1.090802 0.113344
v 0.435501 1.100938 0.101723
v 0.470833 1.097622 0.118521
v 0.493350 1.097108 0.132410
v 0.493703 1.086514 0.111578
v 0.473733 1.097478 0.120155
v 0.496316 1.106014 0.127931
v 0.433873 1.109457 0.093435
v 0.473799 1.106527 0.114042
v 0.486460 1.099707 0.108866
v 0.496668 1.095419 0.107099
v 0.421960 1.102727 0.072165
v 0.430511 1.104942 0.082231
v 0.427545 1.096037 0.086709
v 0.476698 1.106383 0.115676
v 0.410502 1.114931 0.088844
v 0.438467 1.109843 0.097244
vt 0.635329 0.574189
vt 0.635008 0.574397
vt 0.635426 0.574601
vt 0.620365 0.573703
vt 0.619448 0.574049
vt 0.619350 0.577017
vt 0.611185 0.574986
vt 0.611254 0.575286
vt 0.611548 0.575108
vt 0.609768 0.572653
vt 0.636689 0.570704
vt 0.621722 0.572230
vt 0.617940 0.572230
vt 0.613448 0.574993
vt 0.636689 0.576042
vt 0.620539 0.577646
vt 0.621325 0.578887
vt 0.609768 0.578658
vt 0.632366 0.575079
vt 0.618092 0.578413
vn -0.2852 -0.8563 0.4306
vn -0.2851 -0.8563 0.4307
vn -0.2851 -0.8563 0.4306
vn -0.4467 0.5163 0.7307
vn -0.0644 0.4654 0.8827
vn 0.4822 0.2602 0.8366
vn 0.4821 0.2602 0.8366
vn 0.9584 -0.2476 0.1421
vn 0.9584 -0.2476 0.1422
vn 0.8347 -0.4427 -0.3275
vn 0.8347 -0.4427 -0.3274
vn 0.3305 -0.5096 -0.7944
vn -0.4957 -0.2529 -0.8309
vn -0.8268 -0.0075 -0.5625
vn -0.8463 0.4359 0.3062
vn -0.3300 0.5096 0.7946
vn 0.9584 -0.2477 0.1422
vn 0.3305 -0.5095 -0.7944
usemtl dhd.024
s 1
f 1/1/1 3/2/1 2/3/1
f 4/4/2 6/5/2 5/6/3
f 7/7/1 9/8/1 8/9/1
f 9/8/4 7/7/4 10/10/4
f 3/2/5 1/1/5 11/11/5
f 4/4/6 13/12/7 12/13/6
f 8/9/8 14/14/8 10/10/9
f 2/3/10 15/15/11 11/11/10
f 4/4/12 17/16/12 16/17/12
f 9/8/13 18/18/13 14/14/13
f 2/3/14 3/2/14 19/19/14
f 17/16/15 5/6/15 20/20/15
f 5/6/16 6/5/16 12/13/16
f 4/4/2 5/6/3 17/16/3
f 9/8/4 10/10/4 18/18/4
f 3/2/5 11/11/5 19/19/5
f 4/4/6 12/13/6 6/5/6
f 8/9/8 10/10/9 7/7/17
f 2/3/10 11/11/10 1/1/10
f 4/4/18 16/17/18 13/12/18
f 9/8/13 14/14/13 8/9/13
f 2/3/14 19/19/14 15/15/14
f 17/16/15 20/20/15 16/17/15
f 5/6/16 12/13/16 20/20/16
