# Blender v3.1.2 OBJ File: ''
# www.blender.org
mtllib dhd_light.mtl
o origin_14.001
v 0.433873 1.109457 0.093435
v 0.410502 1.114931 0.088844
v 0.421960 1.102727 0.072165
v 0.438467 1.109843 0.097244
v 0.486460 1.099707 0.108866
v 0.473799 1.106527 0.114042
v 0.496316 1.106014 0.127931
v 0.476698 1.106383 0.115676
v 0.496668 1.095419 0.107099
v 0.430511 1.104942 0.082231
vt 0.508162 0.634052
vt 0.463044 0.594225
vt 0.516123 0.576447
vt 0.514070 0.646843
vt 0.527184 0.737063
vt 0.503569 0.763367
vt 0.543308 0.794811
vt 0.490661 0.785692
vt 0.528888 0.744485
vt 0.482056 0.620041
vn 0.2852 0.8563 -0.4307
vn 0.2851 0.8563 -0.4306
vn 0.2851 0.8562 -0.4307
vn 0.2851 0.8563 -0.4307
usemtl dhd_button_light.028
s 1
f 1/1/1 3/2/1 2/3/1
f 4/4/2 6/5/3 5/6/4
f 7/7/4 9/8/4 8/9/4
f 4/4/2 5/6/4 10/10/2
