# Blender v3.1.2 OBJ File: ''
# www.blender.org
mtllib dhd.mtl
o origin_18
v 0.441176 1.084222 0.072241
v 0.448377 1.079637 0.067893
v 0.456662 1.099522 0.112918
v 0.434626 1.081204 0.061904
v 0.437213 1.091119 0.059184
v 0.437591 1.090109 0.057425
v 0.445885 1.116952 0.140437
v 0.452837 1.113208 0.113447
v 0.449872 1.104303 0.117926
v 0.477591 1.105144 0.137952
v 0.459628 1.108428 0.108439
v 0.480556 1.114049 0.133473
v 0.443427 1.086349 0.053813
v 0.440462 1.077443 0.058292
v 0.444141 1.093127 0.067763
v 0.448850 1.125857 0.135959
v 0.451342 1.088542 0.063414
v 0.434248 1.082214 0.063663
vt 0.616500 0.569582
vt 0.615721 0.569777
vt 0.616039 0.564996
vt 0.616337 0.570391
vt 0.616994 0.570987
vt 0.616810 0.571121
vt 0.616915 0.562638
vt 0.617940 0.564576
vt 0.616945 0.564593
vt 0.615729 0.562744
vt 0.614953 0.565008
vt 0.614762 0.561869
vt 0.615719 0.571460
vt 0.616032 0.570409
vt 0.617469 0.569893
vt 0.617668 0.562029
vt 0.614762 0.570187
vt 0.616416 0.570310
vn -0.1481 -0.9002 0.4095
vn -0.2851 -0.8563 0.4307
vn -0.3052 -0.7727 0.5566
vn -0.9408 0.1642 -0.2965
vn -0.9408 0.1642 -0.2964
vn -0.9463 0.1799 -0.2687
vn -0.9584 0.2592 -0.1191
vn -0.9391 0.3326 -0.0868
vn 0.7205 -0.4878 -0.4928
vn -0.6022 -0.1896 -0.7755
vn -0.8316 0.5209 0.1925
vn -0.8670 0.4219 0.2650
vn 0.2126 0.3816 0.8995
vn 0.2126 0.3816 0.8996
vn 0.7255 -0.4864 -0.4869
vn 0.7254 -0.4865 -0.4869
vn -0.7325 0.4844 0.4782
vn 0.9440 -0.3287 -0.0285
vn 0.9254 -0.3335 -0.1798
vn -0.2852 -0.8563 0.4306
vn -0.2855 -0.8563 0.4303
vn -0.2852 -0.8563 0.4307
vn -0.2346 -0.8985 0.3710
vn -0.2851 -0.8563 0.4306
vn 0.7877 -0.3516 -0.5059
vn -0.6021 -0.1896 -0.7756
vn -0.7326 0.4844 0.4782
vn 0.9440 -0.3287 -0.0286
usemtl dhd.004
s 1
f 1/1/1 2/2/2 3/3/3
f 4/4/4 5/5/5 6/6/5
f 7/7/6 8/8/7 9/9/8
f 10/10/9 11/11/9 12/12/9
f 4/4/10 13/13/10 14/14/10
f 1/1/11 8/8/7 15/15/12
f 7/7/13 12/12/13 16/16/14
f 2/2/15 13/13/15 17/17/16
f 1/1/11 5/5/17 18/18/17
f 2/2/18 11/11/18 3/3/19
f 1/1/1 18/18/20 2/2/2
f 18/18/20 4/4/21 14/14/22
f 2/2/2 18/18/20 14/14/22
f 3/3/3 10/10/22 9/9/23
f 10/10/22 7/7/24 9/9/23
f 9/9/23 1/1/1 3/3/3
f 4/4/4 18/18/4 5/5/5
f 7/7/6 16/16/6 8/8/7
f 10/10/9 3/3/25 11/11/9
f 4/4/26 6/6/26 13/13/26
f 1/1/11 9/9/8 8/8/7
f 7/7/13 10/10/13 12/12/13
f 2/2/15 14/14/15 13/13/15
f 1/1/11 15/15/12 5/5/27
f 2/2/28 17/17/28 11/11/28
