# Blender v3.1.2 OBJ File: ''
# www.blender.org
mtllib dhd_light.mtl
o origin_18.001
v 0.444141 1.093127 0.067763
v 0.452837 1.113208 0.113447
v 0.459628 1.108428 0.108439
v 0.448850 1.125857 0.135959
v 0.480556 1.114049 0.133473
v 0.451342 1.088542 0.063414
v 0.443427 1.086349 0.053813
v 0.437213 1.091119 0.059184
v 0.437591 1.090109 0.057425
vt 0.432951 0.644257
vt 0.543247 0.688690
vt 0.524847 0.701752
vt 0.603166 0.691119
vt 0.570253 0.761948
vt 0.415575 0.658862
vt 0.396856 0.634967
vt 0.416196 0.623191
vt 0.411244 0.623116
vn 0.2851 0.8563 -0.4307
vn 0.2851 0.8563 -0.4306
vn 0.2852 0.8563 -0.4306
vn 0.2853 0.8563 -0.4305
usemtl dhd_button_light.005
s 1
f 1/1/1 2/2/2 3/3/1
f 2/2/2 4/4/2 5/5/2
f 3/3/1 6/6/1 1/1/1
f 6/6/1 7/7/2 8/8/3
f 1/1/1 6/6/1 8/8/3
f 2/2/2 5/5/2 3/3/1
f 9/9/4 8/8/3 7/7/2
