# Blender v3.1.2 OBJ File: ''
# www.blender.org
mtllib dhd.mtl
o origin_25
v 0.475428 1.090172 0.106750
v 0.484490 1.085926 0.104308
v 0.496733 1.090355 0.121221
v 0.460342 1.081643 0.079804
v 0.480533 1.068008 0.066062
v 0.479389 1.083143 0.095398
v 0.401546 1.118900 0.114954
v 0.414832 1.134285 0.130192
v 0.404511 1.127805 0.110476
v 0.478393 1.099077 0.102271
v 0.487455 1.094831 0.099830
v 0.455677 1.096336 0.105930
v 0.421024 1.126421 0.118656
v 0.418059 1.117515 0.123134
v 0.411867 1.125380 0.134671
v 0.466250 1.092638 0.105577
v 0.464199 1.097641 0.114166
v 0.458642 1.105241 0.101451
v 0.482355 1.092048 0.090919
v 0.463307 1.090548 0.075326
v 0.467286 1.088008 0.097058
v 0.469216 1.101543 0.101099
v 0.470630 1.108848 0.116560
v 0.467164 1.106546 0.109687
v 0.483498 1.076914 0.061584
v 0.464139 1.097843 0.090380
v 0.470251 1.096913 0.092579
v 0.467665 1.099943 0.121038
v 0.461174 1.088937 0.094858
v 0.448994 1.106706 0.097975
v 0.499752 1.075297 0.093280
v 0.499698 1.099260 0.116742
v 0.415638 1.114709 0.115951
v 0.446028 1.097801 0.102454
v 0.492565 1.080471 0.098809
v 0.502718 1.084202 0.088801
v 0.418604 1.123614 0.111472
v 0.495531 1.089376 0.094330
vt 0.605998 0.558925
vt 0.605902 0.559924
vt 0.604544 0.560163
vt 0.634023 0.579144
vt 0.633334 0.579466
vt 0.633463 0.578802
vt 0.605136 0.551113
vt 0.603945 0.550641
vt 0.605491 0.550422
vt 0.606962 0.559070
vt 0.606867 0.560056
vt 0.605404 0.556500
vt 0.603607 0.551905
vt 0.604544 0.551929
vt 0.604395 0.551070
vt 0.605996 0.557836
vt 0.604853 0.557764
vt 0.604286 0.556286
vt 0.632366 0.576043
vt 0.635619 0.579138
vt 0.606764 0.557283
vt 0.607126 0.558298
vt 0.603599 0.558066
vt 0.603899 0.557321
vt 0.632366 0.581403
vt 0.607490 0.556791
vt 0.607486 0.557416
vt 0.604401 0.558276
vt 0.606668 0.556914
vt 0.606875 0.555153
vt 0.605619 0.561223
vt 0.603599 0.560715
vt 0.605198 0.551907
vt 0.605905 0.555457
vt 0.605822 0.560768
vt 0.606034 0.562044
vt 0.606147 0.551660
vt 0.606606 0.561125
vn -0.3541 -0.7982 0.4874
vn -0.2471 -0.8320 0.4968
vn -0.2852 -0.8563 0.4307
vn -0.2851 -0.8563 0.4307
vn -0.8488 0.4343 0.3016
vn -0.4859 -0.1811 -0.8551
vn -0.1972 -0.3873 -0.9006
vn -0.5117 -0.2439 -0.8238
vn 0.2025 0.4624 0.8632
vn 0.5132 0.2430 0.8231
vn 0.6392 0.2175 0.7376
vn 0.8685 -0.0408 0.4940
vn 0.8685 -0.0407 0.4940
vn 0.4541 -0.4618 -0.7619
vn -0.1089 -0.3564 -0.9280
vn -0.7918 0.4920 0.3619
vn -0.6386 0.5048 0.5808
vn -0.4278 0.7904 0.4385
vn -0.5676 0.5129 0.6440
vn -0.5676 0.5129 0.6441
vn 0.9526 -0.2034 0.2264
vn 0.9813 0.1851 -0.0524
vn -0.8559 0.4297 0.2877
vn -0.7606 0.4756 0.4420
vn -0.6306 -0.1707 -0.7571
vn -0.6306 -0.1708 -0.7571
vn 0.2261 -0.4967 -0.8380
vn 0.2260 -0.4967 -0.8380
vn 0.2259 -0.4967 -0.8380
vn 0.1298 0.4106 0.9025
vn 0.9578 -0.2384 0.1603
vn -0.5397 -0.2278 -0.8104
vn -0.5225 -0.2378 -0.8188
vn 0.9538 -0.2091 0.2157
vn -0.1848 -0.3269 -0.9268
vn -0.5268 -0.2271 -0.8191
vn -0.6393 -0.1587 -0.7524
vn -0.6669 -0.1454 -0.7308
vn -0.0646 -0.4311 -0.9000
vn -0.2935 -0.3497 -0.8897
vn -0.6491 -0.1581 -0.7441
vn -0.4209 -0.7862 0.4525
vn -0.3739 -0.7832 0.4967
vn 0.0939 -0.8729 0.4788
vn -0.2742 -0.8581 0.4341
vn -0.3848 -0.9224 -0.0332
vn -0.2075 -0.8494 0.4852
vn -0.2896 -0.8496 0.4408
vn 0.2033 0.4637 0.8624
vn 0.5133 0.2431 0.8231
vn 0.8790 0.1103 0.4640
vn -0.0061 -0.4476 -0.8942
vn 0.9526 -0.2034 0.2262
vn -0.8559 0.4297 0.2878
vn 0.2261 -0.4966 -0.8380
vn 0.1298 0.4107 0.9025
vn 0.9579 -0.2383 0.1603
vn 0.9538 -0.2091 0.2158
vn -0.0645 -0.4311 -0.9000
usemtl dhd.026
s 1
f 1/1/1 2/2/2 3/3/3
f 4/4/4 5/5/4 6/6/4
f 7/7/5 8/8/5 9/9/5
f 2/2/6 10/10/7 11/11/8
f 12/12/9 13/13/10 14/14/11
f 15/15/12 13/13/12 8/8/13
f 16/16/14 10/10/7 1/1/15
f 17/17/16 18/18/17 12/12/18
f 4/4/19 19/19/19 20/20/20
f 21/21/21 22/22/21 16/16/22
f 17/17/16 23/23/23 24/24/24
f 5/5/25 20/20/26 25/25/25
f 21/21/27 26/26/28 27/27/29
f 3/3/30 23/23/30 28/28/30
f 5/5/31 19/19/31 6/6/31
f 29/29/32 30/30/33 26/26/32
f 31/31/34 32/32/34 3/3/34
f 33/33/35 30/30/33 34/34/36
f 35/35/37 36/36/38 31/31/38
f 33/33/35 9/9/39 37/37/40
f 35/35/37 11/11/8 38/38/41
f 14/14/42 15/15/3 7/7/3
f 14/14/42 7/7/3 33/33/43
f 12/12/44 14/14/42 34/34/45
f 14/14/42 33/33/43 34/34/45
f 34/34/45 29/29/4 12/12/44
f 29/29/4 21/21/3 16/16/46
f 12/12/44 29/29/4 16/16/46
f 3/3/3 28/28/4 1/1/1
f 28/28/4 17/17/47 1/1/1
f 17/17/47 12/12/44 16/16/46
f 1/1/1 17/17/47 16/16/46
f 35/35/48 31/31/4 3/3/3
f 2/2/2 35/35/48 3/3/3
f 7/7/5 15/15/5 8/8/5
f 2/2/6 1/1/15 10/10/7
f 12/12/49 18/18/50 13/13/50
f 15/15/12 14/14/51 13/13/12
f 16/16/14 22/22/52 10/10/7
f 17/17/16 24/24/24 18/18/17
f 4/4/19 6/6/19 19/19/19
f 21/21/53 27/27/53 22/22/53
f 17/17/16 28/28/54 23/23/23
f 5/5/25 4/4/26 20/20/26
f 21/21/27 29/29/55 26/26/28
f 3/3/56 32/32/56 23/23/56
f 5/5/57 25/25/57 19/19/57
f 29/29/32 34/34/36 30/30/33
f 31/31/58 36/36/58 32/32/58
f 33/33/35 37/37/40 30/30/33
f 35/35/37 38/38/41 36/36/38
f 33/33/35 7/7/59 9/9/39
f 35/35/37 2/2/6 11/11/8
