# Blender v3.1.2 OBJ File: ''
# www.blender.org
mtllib dhd_light.mtl
o origin_25.001
v 0.499698 1.099260 0.116742
v 0.487455 1.094831 0.099830
v 0.478393 1.099077 0.102271
v 0.463307 1.090548 0.075326
v 0.482355 1.092048 0.090919
v 0.483498 1.076914 0.061584
v 0.467164 1.106546 0.109687
v 0.470630 1.108848 0.116560
v 0.502718 1.084202 0.088801
v 0.495531 1.089376 0.094330
v 0.458642 1.105241 0.101451
v 0.469216 1.101543 0.101099
v 0.404511 1.127805 0.110476
v 0.414832 1.134285 0.130192
v 0.421024 1.126421 0.118656
v 0.418604 1.123614 0.111472
v 0.470251 1.096913 0.092579
v 0.464139 1.097843 0.090380
v 0.448994 1.106706 0.097975
vt 0.512485 0.797135
vt 0.479806 0.761216
vt 0.493523 0.741710
vt 0.436752 0.693166
vt 0.461247 0.745143
vt 0.384316 0.733046
vt 0.521706 0.719702
vt 0.536181 0.731084
vt 0.439092 0.790659
vt 0.459128 0.776954
vt 0.507888 0.695888
vt 0.498165 0.720070
vt 0.576789 0.574505
vt 0.617800 0.609597
vt 0.583413 0.617729
vt 0.567259 0.608148
vt 0.475522 0.718134
vt 0.474955 0.702890
vt 0.507091 0.671736
vn 0.2851 0.8563 -0.4307
vn 0.2852 0.8563 -0.4306
vn 0.2851 0.8563 -0.4306
vn 0.2852 0.8563 -0.4307
usemtl dhd_button_light.030
s 1
f 1/1/1 2/2/1 3/3/1
f 4/4/1 5/5/1 6/6/1
f 7/7/1 8/8/2 3/3/1
f 8/8/2 1/1/1 3/3/1
f 1/1/1 9/9/3 10/10/3
f 1/1/1 10/10/3 2/2/1
f 11/11/2 7/7/1 12/12/1
f 12/12/1 7/7/1 3/3/1
f 13/13/1 14/14/1 15/15/3
f 16/16/3 13/13/1 15/15/3
f 17/17/4 18/18/2 12/12/1
f 18/18/2 19/19/2 11/11/2
f 12/12/1 18/18/2 11/11/2
f 19/19/2 16/16/3 15/15/3
f 19/19/2 15/15/3 11/11/2
