# Blender v3.1.2 OBJ File: ''
# www.blender.org
mtllib dhd.mtl
o origin_24.002
v 0.427062 1.109064 0.112291
v 0.436047 1.106489 0.113121
v 0.430904 1.114016 0.124682
v 0.471740 1.100669 0.125181
v 0.471528 1.103270 0.130212
v 0.493527 1.096853 0.132019
v 0.437337 1.075346 0.052053
v 0.441534 1.090711 0.061232
v 0.438569 1.081805 0.065711
v 0.405091 1.125251 0.129930
v 0.409354 1.120865 0.099882
v 0.406388 1.111960 0.104361
v 0.474493 1.112175 0.125734
v 0.462115 1.106557 0.106366
v 0.459149 1.097651 0.110845
v 0.418063 1.119686 0.127453
v 0.408056 1.134157 0.125451
v 0.496492 1.105759 0.127540
v 0.467002 1.106063 0.108621
v 0.464037 1.097158 0.113100
v 0.421028 1.128591 0.122974
v 0.431273 1.087295 0.071794
v 0.451816 1.111105 0.108590
v 0.434238 1.096200 0.067316
v 0.487319 1.100450 0.110911
v 0.484353 1.091545 0.115389
v 0.446278 1.108383 0.123660
v 0.433870 1.122922 0.120203
v 0.448851 1.102199 0.113069
v 0.439012 1.115394 0.108642
v 0.481373 1.092839 0.115990
v 0.484339 1.101744 0.111511
v 0.458015 1.114343 0.119133
v 0.449244 1.117288 0.119181
v 0.477276 1.095452 0.118473
v 0.480241 1.104357 0.113994
v 0.461567 1.103167 0.123411
v 0.455049 1.105438 0.123612
v 0.415672 1.088584 0.064029
v 0.418637 1.097489 0.059550
v 0.419603 1.120062 0.105071
v 0.430027 1.117969 0.107812
v 0.476961 1.106887 0.116853
v 0.473996 1.097982 0.121331
v 0.464532 1.112072 0.118932
v 0.440302 1.084252 0.047574
v 0.416637 1.111157 0.109550
v 0.474706 1.109574 0.120703
vt 0.614726 0.559727
vt 0.615110 0.559129
vt 0.615614 0.560139
vt 0.635156 0.547983
vt 0.635431 0.548608
vt 0.635364 0.548001
vt 0.615068 0.551614
vt 0.616469 0.551962
vt 0.615453 0.552554
vt 0.614822 0.561351
vt 0.613387 0.561119
vt 0.614151 0.560888
vt 0.636163 0.546627
vt 0.617812 0.557215
vt 0.616816 0.557457
vt 0.615177 0.560920
vt 0.614868 0.561869
vt 0.636163 0.549279
vt 0.617940 0.557693
vt 0.617188 0.557826
vt 0.615682 0.561375
vt 0.614623 0.552960
vt 0.614755 0.557830
vt 0.613740 0.553192
vt 0.634913 0.548611
vt 0.633920 0.549446
vt 0.616309 0.559104
vt 0.616227 0.560552
vt 0.615810 0.557963
vt 0.614405 0.558761
vt 0.634861 0.548485
vt 0.633686 0.548909
vt 0.617351 0.559091
vt 0.616920 0.559596
vt 0.634867 0.548264
vt 0.633764 0.547984
vt 0.617112 0.558348
vt 0.616775 0.558631
vt 0.614149 0.552042
vt 0.613387 0.551877
vt 0.613627 0.560087
vt 0.614056 0.559351
vt 0.634977 0.548087
vt 0.634098 0.547229
vt 0.617672 0.558685
vt 0.615188 0.550632
vt 0.614349 0.560326
vt 0.634877 0.546650
vn -0.3192 -0.8338 0.4504
vn -0.2750 -0.8479 0.4532
vn -0.2948 -0.8691 0.3971
vn -0.2851 -0.8563 0.4306
vn -0.2852 -0.8563 0.4306
vn 0.9551 -0.2919 0.0519
vn 0.9275 -0.3598 -0.1014
vn 0.9249 -0.3349 -0.1799
vn -0.9574 0.2334 -0.1699
vn -0.8862 0.4387 -0.1492
vn -0.9578 0.2370 -0.1629
vn 0.8732 -0.4174 -0.2516
vn 0.7905 -0.4138 -0.4515
vn 0.3259 0.3359 0.8837
vn 0.3152 0.3405 0.8858
vn 0.0529 0.4345 0.8991
vn 0.4282 -0.3271 -0.8424
vn 0.3179 -0.5084 -0.8003
vn 0.2795 0.3902 0.8773
vn 0.3259 0.3360 0.8837
vn 0.3260 0.3359 0.8837
vn -0.7585 0.5229 0.3888
vn -0.8834 0.4090 0.2285
vn -0.8834 0.4091 0.2285
vn 0.8380 -0.4408 -0.3216
vn 0.1614 0.4080 0.8986
vn 0.2696 0.3595 0.8934
vn -0.5711 -0.1379 -0.8092
vn -0.0914 -0.4230 -0.9015
vn -0.1401 -0.4073 -0.9025
vn -0.4663 -0.2686 -0.8429
vn -0.4662 -0.2687 -0.8429
vn -0.3242 -0.3366 -0.8840
vn 0.1541 0.4025 0.9023
vn 0.1715 0.3965 0.9019
vn 0.0836 -0.4423 -0.8930
vn -0.0918 -0.3997 -0.9120
vn -0.6512 -0.1566 -0.7426
vn -0.6512 -0.1567 -0.7425
vn 0.1666 0.3982 0.9020
vn -0.3488 0.5112 0.7855
vn 0.2455 -0.4996 -0.8307
vn 0.0448 -0.4607 -0.8864
vn -0.7866 -0.0477 -0.6157
vn -0.7866 -0.0477 -0.6156
vn 0.9368 -0.1539 0.3141
vn -0.5684 -0.2107 -0.7953
vn 0.2053 -0.4693 -0.8588
vn 0.3558 -0.5118 -0.7820
vn -0.8758 0.2009 -0.4390
vn -0.9277 0.1337 -0.3485
vn -0.3827 -0.8965 0.2230
vn -0.2851 -0.8563 0.4307
vn -0.3154 -0.8070 0.4992
vn -0.2324 -0.9700 -0.0706
vn -0.1881 -0.7735 0.6053
vn -0.2737 -0.8639 0.4227
vn -0.2383 -0.8504 0.4691
vn -0.2850 -0.8564 0.4306
vn -0.2852 -0.8563 0.4307
vn -0.9574 0.2333 -0.1699
vn -0.9577 0.2370 -0.1631
vn 0.8732 -0.4173 -0.2517
vn 0.3153 0.3406 0.8858
vn -0.6496 0.7567 -0.0740
vn 0.8381 -0.4407 -0.3216
vn -0.3244 -0.3365 -0.8840
vn -0.3330 0.6924 0.6400
vn -0.5684 -0.2108 -0.7953
usemtl dhd.015
s 1
f 1/1/1 2/2/2 3/3/3
f 4/4/4 6/5/4 5/6/5
f 7/7/6 8/8/7 9/9/8
f 10/10/9 11/11/9 12/12/9
f 4/4/10 5/6/11 13/13/11
f 9/9/8 14/14/12 15/15/13
f 16/16/14 17/17/15 10/10/15
f 6/5/16 18/18/16 13/13/16
f 15/15/17 19/19/18 20/20/18
f 3/3/19 21/21/20 16/16/21
f 22/22/22 23/23/23 24/24/24
f 6/5/25 26/25/25 25/26/25
f 27/27/26 28/28/27 3/3/19
f 29/29/28 30/30/29 23/23/30
f 31/31/31 32/32/32 25/26/33
f 27/27/26 33/33/34 34/34/35
f 1/1/36 30/30/29 2/2/37
f 35/35/38 36/36/39 32/32/32
f 37/37/40 33/33/34 38/38/34
f 39/39/41 24/24/41 40/40/41
f 1/1/36 41/41/42 42/42/43
f 35/35/38 44/43/44 43/44/45
f 20/20/46 45/45/46 37/37/46
f 39/39/47 46/46/47 7/7/47
f 47/47/48 11/11/49 41/41/42
f 44/43/44 4/4/50 48/48/51
f 22/22/52 39/39/53 9/9/54
f 39/39/53 7/7/53 9/9/54
f 29/29/55 22/22/52 15/15/56
f 22/22/52 9/9/54 15/15/56
f 15/15/56 20/20/53 37/37/53
f 29/29/55 15/15/56 38/38/53
f 15/15/56 37/37/53 38/38/53
f 38/38/53 27/27/57 29/29/55
f 3/3/3 16/16/4 1/1/1
f 16/16/4 10/10/4 47/47/58
f 47/47/58 10/10/4 12/12/4
f 29/29/55 27/27/57 2/2/2
f 27/27/57 3/3/3 2/2/2
f 16/16/4 47/47/58 1/1/1
f 6/5/4 31/31/4 26/25/59
f 31/31/4 6/5/4 35/35/60
f 35/35/60 6/5/4 44/43/5
f 44/43/5 6/5/4 4/4/4
f 7/7/6 46/46/6 8/8/7
f 10/10/61 17/17/61 11/11/61
f 4/4/50 13/13/62 48/48/51
f 9/9/8 8/8/7 14/14/63
f 16/16/21 21/21/20 17/17/64
f 6/5/16 13/13/16 5/6/16
f 15/15/17 14/14/18 19/19/18
f 3/3/19 28/28/27 21/21/20
f 22/22/22 29/29/65 23/23/23
f 6/5/66 25/26/66 18/18/66
f 27/27/26 34/34/35 28/28/27
f 29/29/28 2/2/37 30/30/29
f 31/31/31 25/26/33 26/25/67
f 27/27/26 38/38/34 33/33/34
f 1/1/36 42/42/43 30/30/29
f 35/35/38 32/32/32 31/31/31
f 37/37/40 45/45/40 33/33/34
f 39/39/41 22/22/68 24/24/41
f 1/1/36 47/47/48 41/41/42
f 35/35/38 43/44/45 36/36/39
f 20/20/46 19/19/46 45/45/46
f 39/39/69 40/40/69 46/46/69
f 47/47/48 12/12/49 11/11/49
f 44/43/44 48/48/51 43/44/45
