# Blender v3.1.2 OBJ File: ''
# www.blender.org
mtllib dhd_light.mtl
o origin_24.003
v 0.433870 1.122922 0.120203
v 0.439012 1.115394 0.108642
v 0.430027 1.117969 0.107812
v 0.480241 1.104357 0.113994
v 0.484339 1.101744 0.111511
v 0.496492 1.105759 0.127540
v 0.440302 1.084252 0.047574
v 0.418637 1.097489 0.059550
v 0.441534 1.090711 0.061232
v 0.434238 1.096200 0.067316
v 0.464532 1.112072 0.118932
v 0.467002 1.106063 0.108621
v 0.462115 1.106557 0.106366
v 0.451816 1.111105 0.108590
v 0.458015 1.114343 0.119133
v 0.449244 1.117288 0.119181
v 0.408056 1.134157 0.125451
v 0.421028 1.128591 0.122974
v 0.419603 1.120062 0.105071
v 0.409354 1.120865 0.099882
v 0.487319 1.100450 0.110911
v 0.474493 1.112175 0.125734
v 0.474706 1.109574 0.120703
v 0.476961 1.106887 0.116853
vt 0.576372 0.648413
vt 0.542718 0.654195
vt 0.548217 0.632841
vt 0.521694 0.751724
vt 0.542187 0.795024
vt 0.512018 0.759832
vt 0.382916 0.624109
vt 0.432701 0.579171
vt 0.417989 0.634547
vt 0.440046 0.620630
vt 0.547268 0.718337
vt 0.519139 0.718792
vt 0.517498 0.706415
vt 0.531788 0.683819
vt 0.553249 0.703511
vt 0.560764 0.683381
vt 0.611702 0.591188
vt 0.594319 0.620085
vt 0.550089 0.606967
vt 0.545545 0.579961
vt 0.508030 0.766314
vt 0.543203 0.742432
vt 0.556002 0.744433
vt 0.531633 0.745666
vn 0.2851 0.8563 -0.4307
vn 0.2851 0.8563 -0.4306
vn 0.2852 0.8563 -0.4307
vn 0.2853 0.8563 -0.4306
vn 0.2852 0.8563 -0.4306
usemtl dhd_button_light.016
s 1
f 1/1/1 2/2/1 3/3/1
f 4/4/1 6/5/1 5/6/2
f 7/7/1 8/8/1 9/9/1
f 8/8/1 10/10/2 9/9/1
f 11/11/3 12/12/4 13/13/3
f 13/13/3 9/9/1 10/10/2
f 13/13/3 10/10/2 14/14/1
f 15/15/1 11/11/3 13/13/3
f 16/16/1 15/15/1 14/14/1
f 15/15/1 13/13/3 14/14/1
f 17/17/5 18/18/5 19/19/5
f 18/18/5 1/1/1 3/3/1
f 17/17/5 19/19/5 20/20/1
f 1/1/1 16/16/1 2/2/1
f 16/16/1 14/14/1 2/2/1
f 19/19/5 18/18/5 3/3/1
f 5/6/2 6/5/1 21/21/2
f 6/5/1 23/22/1 22/23/2
f 23/22/1 6/5/1 24/24/1
f 24/24/1 6/5/1 4/4/1
