# Blender v3.1.2 OBJ File: ''
# www.blender.org
mtllib dhd.mtl
o origin_27
v 0.482198 1.082031 0.095046
v 0.488482 1.076599 0.088406
v 0.488972 1.081904 0.099280
v 0.464554 1.093700 0.106566
v 0.485163 1.090936 0.090567
v 0.428036 1.116688 0.128095
v 0.441299 1.126651 0.132538
v 0.431001 1.125593 0.123617
v 0.456741 1.112516 0.138805
v 0.445507 1.123297 0.128655
v 0.459707 1.121421 0.134327
v 0.484968 1.085413 0.079457
v 0.482003 1.076508 0.083936
v 0.417418 1.121470 0.130573
v 0.420384 1.130375 0.126094
v 0.459055 1.124335 0.139689
v 0.456089 1.115430 0.144167
v 0.491049 1.070424 0.077828
v 0.494014 1.079329 0.073349
v 0.417213 1.117113 0.121774
v 0.420179 1.126018 0.117295
v 0.491447 1.085504 0.083927
v 0.430052 1.122665 0.117165
v 0.427087 1.113760 0.121644
v 0.491937 1.090810 0.094801
v 0.436327 1.109432 0.119158
v 0.439292 1.118337 0.114679
v 0.471669 1.104018 0.107645
v 0.468703 1.095113 0.112123
v 0.449735 1.112977 0.110935
v 0.446770 1.104072 0.115414
v 0.437082 1.123181 0.122845
v 0.434117 1.114275 0.127324
v 0.467519 1.102605 0.102088
v 0.438333 1.117746 0.137017
v 0.442542 1.114392 0.133134
vt 0.619400 0.570512
vt 0.619011 0.571248
vt 0.618772 0.570484
vt 0.619732 0.568382
vt 0.620338 0.570688
vt 0.620725 0.563548
vt 0.620019 0.561997
vt 0.621173 0.562656
vt 0.618806 0.562494
vt 0.618509 0.563412
vt 0.617940 0.562231
vt 0.620003 0.571781
vt 0.619404 0.571370
vt 0.621622 0.563527
vt 0.622067 0.563056
vt 0.618425 0.561438
vt 0.618926 0.562383
vt 0.619181 0.571687
vt 0.619132 0.572230
vt 0.621620 0.563790
vt 0.622373 0.563943
vt 0.618336 0.571633
vt 0.621893 0.564718
vt 0.621087 0.564230
vt 0.617940 0.570635
vt 0.620495 0.565122
vt 0.621432 0.565562
vt 0.618146 0.568155
vt 0.619151 0.568292
vt 0.621026 0.566596
vt 0.620097 0.566336
vt 0.618827 0.564143
vt 0.619985 0.563916
vt 0.620658 0.568541
vt 0.619625 0.562791
vt 0.619249 0.563046
vn -0.2141 -0.7375 0.6405
vn -0.3199 -0.8701 0.3749
vn -0.2852 -0.8563 0.4306
vn -0.5572 -0.2013 -0.8056
vn -0.6182 -0.1791 -0.7654
vn -0.6124 0.0713 -0.7873
vn -0.3382 0.5602 0.7562
vn -0.4372 0.5161 0.7366
vn -0.5923 0.5106 0.6232
vn 0.2628 -0.5019 -0.8240
vn 0.3801 -0.5135 -0.7693
vn -0.9012 0.2447 -0.3576
vn -0.9584 0.2620 -0.1134
vn 0.3512 0.3247 0.8782
vn 0.9526 -0.2034 0.2264
vn -0.6282 -0.1724 -0.7587
vn -0.9582 0.2645 -0.1087
vn 0.9363 -0.1526 0.3163
vn 0.9549 -0.2148 0.2050
vn 0.9612 -0.1560 0.2275
vn -0.1492 -0.4042 -0.9024
vn -0.2668 -0.3607 -0.8937
vn -0.2959 -0.3084 -0.9041
vn 0.9576 -0.2734 0.0902
vn -0.4266 -0.2800 -0.8600
vn -0.4142 -0.2952 -0.8610
vn 0.6092 0.1850 0.7711
vn 0.5569 0.2176 0.8016
vn 0.5570 0.2177 0.8015
vn -0.4932 -0.2542 -0.8319
vn -0.5048 -0.2267 -0.8330
vn 0.5021 0.2493 0.8281
vn 0.9065 0.0078 0.4222
vn -0.5786 -0.2044 -0.7896
vn -0.2658 0.5023 0.8228
vn 0.3362 -0.4851 -0.8073
vn 0.4910 -0.5164 -0.7016
vn -0.2851 -0.8563 0.4307
vn -0.2851 -0.8563 0.4306
vn -0.2373 -0.8455 0.4783
vn -0.5455 -0.7684 0.3346
vn 0.0735 -0.5473 0.8337
vn -0.2277 -0.8587 0.4592
vn -0.2660 -0.8612 0.4331
vn -0.2564 -0.8608 0.4396
vn -0.2937 -0.8419 0.4527
vn 0.3653 0.5758 0.7315
vn 0.9576 -0.2735 0.0903
vn 0.5020 0.2492 0.8282
vn 0.6314 0.0854 -0.7707
usemtl dhd.002
s 1
f 1/1/1 2/2/2 3/3/3
f 4/4/4 5/5/5 1/1/6
f 6/6/7 7/7/8 8/8/9
f 9/9/10 10/10/11 11/11/10
f 1/1/12 12/12/13 13/13/13
f 14/14/14 8/8/14 15/15/14
f 9/9/15 16/16/15 17/17/15
f 18/18/16 12/12/16 19/19/16
f 20/20/17 15/15/17 21/21/17
f 18/18/18 22/22/19 2/2/20
f 20/20/21 23/23/22 24/24/23
f 2/2/20 25/25/24 3/3/24
f 26/26/25 23/23/22 27/27/26
f 3/3/27 28/28/28 29/29/29
f 26/26/25 30/30/30 31/31/31
f 29/29/29 32/32/32 33/33/33
f 4/4/4 30/30/30 34/34/34
f 35/35/8 16/16/35 7/7/8
f 36/36/36 32/32/37 10/10/11
f 17/17/38 35/35/39 36/36/40
f 35/35/39 6/6/41 33/33/42
f 36/36/40 35/35/39 33/33/42
f 6/6/41 14/14/38 20/20/39
f 6/6/41 20/20/39 24/24/43
f 9/9/38 17/17/38 36/36/40
f 6/6/41 24/24/43 33/33/42
f 24/24/43 26/26/44 33/33/42
f 26/26/44 31/31/45 33/33/42
f 3/3/3 29/29/3 1/1/1
f 29/29/3 33/33/42 31/31/45
f 4/4/46 29/29/3 31/31/45
f 13/13/38 18/18/38 2/2/2
f 29/29/3 4/4/46 1/1/1
f 1/1/1 13/13/38 2/2/2
f 4/4/4 34/34/34 5/5/5
f 6/6/7 35/35/8 7/7/8
f 9/9/10 36/36/36 10/10/11
f 1/1/12 5/5/13 12/12/13
f 14/14/14 6/6/47 8/8/14
f 9/9/15 11/11/15 16/16/15
f 18/18/16 13/13/16 12/12/16
f 20/20/17 14/14/17 15/15/17
f 18/18/18 19/19/18 22/22/19
f 20/20/21 21/21/21 23/23/22
f 2/2/20 22/22/19 25/25/48
f 26/26/25 24/24/23 23/23/22
f 3/3/27 25/25/27 28/28/28
f 26/26/25 27/27/26 30/30/30
f 29/29/29 28/28/28 32/32/49
f 4/4/4 31/31/31 30/30/30
f 35/35/8 17/17/35 16/16/35
f 36/36/36 33/33/50 32/32/37
