# Blender v3.1.2 OBJ File: ''
# www.blender.org
mtllib dhd_light.mtl
o origin_27.001
v 0.449735 1.112977 0.110935
v 0.439292 1.118337 0.114679
v 0.437082 1.123181 0.122845
v 0.431001 1.125593 0.123617
v 0.441299 1.126651 0.132538
v 0.459055 1.124335 0.139689
v 0.445507 1.123297 0.128655
v 0.459707 1.121421 0.134327
v 0.471669 1.104018 0.107645
v 0.491937 1.090810 0.094801
v 0.485163 1.090936 0.090567
v 0.467519 1.102605 0.102088
v 0.420179 1.126018 0.117295
v 0.420384 1.130375 0.126094
v 0.491447 1.085504 0.083927
v 0.494014 1.079329 0.073349
v 0.484968 1.085413 0.079457
v 0.430052 1.122665 0.117165
vt 0.539493 0.680233
vt 0.557802 0.658044
vt 0.580302 0.657245
vt 0.587421 0.643584
vt 0.601042 0.672041
vt 0.603800 0.716283
vt 0.587745 0.679695
vt 0.589906 0.715073
vt 0.512768 0.728997
vt 0.463285 0.768987
vt 0.458029 0.751411
vt 0.502099 0.716670
vt 0.580691 0.615016
vt 0.602731 0.620279
vt 0.435803 0.762541
vt 0.406376 0.763226
vt 0.429593 0.745439
vt 0.571942 0.637933
vn 0.2851 0.8563 -0.4307
vn 0.2851 0.8563 -0.4306
vn 0.2852 0.8563 -0.4307
vn 0.2852 0.8563 -0.4306
usemtl dhd_button_light.003
s 1
f 1/1/1 2/2/1 3/3/2
f 4/4/2 5/5/2 3/3/2
f 5/5/2 6/6/3 7/7/4
f 3/3/2 5/5/2 7/7/4
f 6/6/3 8/8/3 7/7/4
f 3/3/2 9/9/1 1/1/1
f 9/9/1 10/10/1 11/11/1
f 1/1/1 9/9/1 12/12/1
f 13/13/4 14/14/3 4/4/2
f 15/15/1 16/16/1 17/17/1
f 15/15/1 17/17/1 11/11/1
f 4/4/2 3/3/2 18/18/2
f 18/18/2 13/13/4 4/4/2
f 2/2/1 18/18/2 3/3/2
f 10/10/1 15/15/1 11/11/1
f 11/11/1 12/12/1 9/9/1
