# Blender v3.1.2 OBJ File: ''
# www.blender.org
mtllib dhd.mtl
o origin_15
v 0.416486 1.115318 0.117724
v 0.423510 1.117666 0.127043
v 0.424719 1.115727 0.123988
v 0.478474 1.091088 0.110589
v 0.471045 1.093548 0.110561
v 0.467413 1.092673 0.106416
v 0.434586 1.099743 0.098740
v 0.443763 1.103140 0.111571
v 0.439189 1.097764 0.097852
v 0.461068 1.078582 0.074199
v 0.457087 1.091669 0.097583
v 0.452561 1.092844 0.096923
v 0.474011 1.102453 0.106082
v 0.427684 1.124632 0.119509
v 0.446729 1.112046 0.107093
v 0.467440 1.103958 0.104726
v 0.464475 1.095053 0.109204
v 0.413620 1.121525 0.128167
v 0.426476 1.126571 0.122565
v 0.460822 1.103045 0.098528
v 0.455526 1.101749 0.092444
v 0.470379 1.101578 0.101938
v 0.419452 1.124223 0.113245
v 0.416585 1.130430 0.123688
v 0.458062 1.078064 0.071178
v 0.461028 1.086969 0.066700
v 0.484305 1.096171 0.100407
v 0.481339 1.087265 0.104886
v 0.440680 1.116276 0.135647
v 0.448316 1.124558 0.133022
v 0.443645 1.125181 0.131168
v 0.459044 1.084247 0.059973
v 0.456078 1.075342 0.064452
v 0.491348 1.095347 0.103432
v 0.488382 1.086441 0.107911
v 0.436106 1.115924 0.131919
v 0.439072 1.124829 0.127441
v 0.470040 1.084739 0.068233
v 0.467075 1.075834 0.072711
v 0.458648 1.109307 0.133688
v 0.461613 1.118212 0.129209
v 0.436805 1.113755 0.128069
v 0.439771 1.122660 0.123591
v 0.464033 1.087487 0.069720
v 0.455017 1.110047 0.132756
v 0.457983 1.118953 0.128277
v 0.443052 1.120052 0.120578
v 0.440087 1.111147 0.125057
v 0.460053 1.100574 0.093105
v 0.453937 1.120749 0.129169
v 0.450971 1.111843 0.133648
v 0.444006 1.109569 0.124514
v 0.446971 1.118474 0.120035
v 0.460954 1.092784 0.102361
v 0.463919 1.101689 0.097882
v 0.445351 1.115653 0.137501
v 0.447692 1.109178 0.126177
v 0.450657 1.118083 0.121699
v 0.457857 1.094140 0.103006
v 0.447730 1.101661 0.111256
v 0.450695 1.110566 0.106777
v 0.449690 1.109405 0.127951
v 0.452655 1.118310 0.123472
v 0.442155 1.106669 0.093373
v 0.453147 1.107371 0.126196
v 0.456112 1.116276 0.121717
v 0.440575 1.104562 0.088138
v 0.437610 1.095657 0.092617
v 0.461180 1.115288 0.123108
v 0.458215 1.106383 0.127587
v 0.429520 1.100240 0.096374
v 0.432486 1.109146 0.091896
v 0.481439 1.099993 0.106111
v 0.437551 1.108648 0.094261
vt 0.594555 0.580661
vt 0.594593 0.580666
vt 0.594622 0.580658
vt 0.630829 0.572369
vt 0.630239 0.571826
vt 0.630268 0.571545
vt 0.634583 0.545579
vt 0.634860 0.545455
vt 0.634547 0.544876
vt 0.593728 0.563560
vt 0.593886 0.565826
vt 0.593554 0.565817
vt 0.629397 0.571913
vt 0.596082 0.581098
vt 0.633686 0.543887
vt 0.629384 0.571136
vt 0.630137 0.571594
vt 0.594589 0.580602
vt 0.595891 0.580241
vt 0.593777 0.567001
vt 0.592659 0.566583
vt 0.629817 0.570750
vt 0.593830 0.579297
vt 0.593830 0.581882
vt 0.593383 0.563456
vt 0.592396 0.563105
vt 0.631473 0.570704
vt 0.631133 0.571668
vt 0.630606 0.577426
vt 0.631337 0.577916
vt 0.630847 0.578154
vt 0.592805 0.562285
vt 0.593437 0.563023
vt 0.632366 0.571297
vt 0.631455 0.571757
vt 0.630388 0.577511
vt 0.630204 0.578241
vt 0.594695 0.562502
vt 0.593839 0.563222
vt 0.631126 0.576155
vt 0.632038 0.576453
vt 0.630257 0.577422
vt 0.629793 0.577977
vt 0.594854 0.563306
vt 0.630990 0.576421
vt 0.631903 0.576783
vt 0.629443 0.577533
vt 0.630178 0.577242
vt 0.594854 0.566309
vt 0.631746 0.577173
vt 0.630909 0.576756
vt 0.630138 0.577037
vt 0.629384 0.577079
vt 0.593909 0.566175
vt 0.594210 0.566891
vt 0.630818 0.577305
vt 0.630237 0.576825
vt 0.629419 0.576664
vt 0.593783 0.566166
vt 0.634679 0.544789
vt 0.634521 0.543586
vt 0.630388 0.576692
vt 0.629470 0.576467
vt 0.636309 0.545458
vt 0.630411 0.576295
vt 0.629532 0.576131
vt 0.634913 0.545695
vt 0.635769 0.546573
vt 0.629632 0.575619
vt 0.630656 0.575848
vt 0.634665 0.545833
vt 0.634087 0.546627
vt 0.629658 0.572684
vt 0.633686 0.546043
vn -0.2852 -0.8563 0.4307
vn -0.2851 -0.8563 0.4307
vn -0.4946 -0.3095 0.8121
vn -0.2851 -0.8563 0.4306
vn -0.3128 -0.9297 0.1945
vn -0.2277 -0.8183 0.5277
vn -0.1567 -0.9685 0.1933
vn -0.4779 -0.7272 0.4927
vn -0.5036 0.5623 0.6559
vn 0.0290 0.4414 0.8968
vn 0.9046 -0.0918 0.4163
vn 0.9047 -0.0920 0.4161
vn -0.6645 0.3914 0.6366
vn -0.7715 0.4716 0.4270
vn -0.0748 0.4678 0.8807
vn 0.2458 0.3689 0.8964
vn -0.7060 0.4915 0.5099
vn -0.7263 -0.1001 -0.6800
vn -0.7263 -0.1001 -0.6801
vn -0.9306 0.1397 -0.3384
vn -0.9306 0.1396 -0.3385
vn -0.9305 0.3649 -0.0326
vn -0.9410 0.1647 -0.2956
vn -0.9576 0.2742 -0.0890
vn -0.2423 -0.3703 -0.8968
vn -0.4197 0.5155 0.7471
vn -0.2605 0.5016 0.8249
vn -0.9215 0.3686 0.1226
vn 0.2900 -0.5053 -0.8128
vn -0.5657 0.5131 0.6456
vn 0.5293 -0.5152 -0.6741
vn 0.7013 0.1199 0.7027
vn 0.7013 0.1198 0.7027
vn -0.9456 0.1782 -0.2721
vn 0.4980 0.5109 0.7007
vn 0.3629 0.3194 0.8754
vn 0.3628 0.3195 0.8754
vn 0.2206 0.4031 0.8882
vn -0.1254 0.4788 0.8689
vn 0.1109 0.4168 0.9022
vn -0.7172 -0.1075 -0.6885
vn 0.8889 0.0281 0.4573
vn 0.9471 -0.1829 0.2636
vn 0.9904 -0.1345 0.0324
vn 0.4945 0.2535 0.8314
vn 0.5611 0.2716 0.7820
vn -0.2687 -0.3599 -0.8934
vn 0.7318 -0.4847 -0.4791
vn 0.6328 0.1693 0.7556
vn 0.4632 -0.5164 -0.7202
vn 0.3092 -0.5074 -0.8043
vn 0.3301 0.3340 0.8829
vn 0.2136 0.3812 0.8995
vn 0.2139 0.3812 0.8994
vn 0.2138 0.3812 0.8994
vn 0.3277 -0.4857 -0.8103
vn 0.6028 -0.5095 -0.6140
vn 0.8039 -0.4583 -0.3790
vn 0.8432 -0.4055 -0.3529
vn 0.8710 -0.4190 -0.2564
vn -0.5433 -0.2258 -0.8086
vn 0.8521 -0.5155 0.0899
vn 0.9198 -0.3708 -0.1282
vn 0.1432 -0.4823 -0.8642
vn -0.0751 -0.3566 -0.9312
vn -0.5177 -0.2405 -0.8211
vn -0.5177 -0.2404 -0.8211
vn -0.3738 0.4905 -0.7872
vn -0.6921 -0.1270 -0.7106
vn -0.6920 -0.1269 -0.7106
vn 0.5350 -0.5147 -0.6700
vn 0.5348 -0.5154 -0.6696
vn 0.5351 -0.5150 -0.6696
vn -0.3465 0.6929 0.6324
vn -0.3226 0.5089 0.7981
vn -0.3227 0.5088 0.7981
vn -0.2852 -0.8562 0.4308
vn -0.3714 -0.8327 0.4107
vn 0.0286 -0.9417 0.3353
vn -0.2852 -0.8563 0.4306
vn -0.3991 -0.8139 0.4222
vn -0.0279 -0.8983 0.4384
vn -0.2852 -0.8562 0.4307
vn -0.2851 -0.8564 0.4306
vn -0.2371 -0.9129 0.3324
vn 0.1322 0.4098 0.9025
vn 0.9047 -0.0921 0.4160
vn -0.6145 0.6645 0.4251
vn -0.0746 0.4678 0.8807
vn 0.2457 0.3690 0.8963
vn -0.7264 -0.1001 -0.6800
vn -0.9410 0.1646 -0.2956
vn -0.2423 -0.3702 -0.8968
vn -0.2605 0.5017 0.8249
vn 0.5293 -0.5153 -0.6740
vn -0.1255 0.4788 0.8689
vn -0.7174 -0.1072 -0.6884
vn 0.9472 -0.1828 0.2635
vn -0.2687 -0.3599 -0.8935
vn 0.8576 -0.2870 -0.4268
vn 0.6327 0.1693 0.7556
vn 0.3091 -0.5075 -0.8043
vn 0.3304 0.3340 0.8828
vn 0.2135 0.3812 0.8995
vn -0.3963 0.0600 -0.9161
vn 0.9198 -0.3709 -0.1283
vn -0.5176 -0.2406 -0.8211
vn -0.5487 0.0522 -0.8344
vn -0.3228 0.5088 0.7981
usemtl dhd.019
s 1
f 1/1/1 3/2/2 2/3/2
f 4/4/3 5/5/4 6/6/4
f 7/7/5 9/8/6 8/9/4
f 10/10/7 11/11/8 12/12/2
f 4/4/9 13/13/10 5/5/10
f 2/3/11 3/2/11 14/14/12
f 7/7/13 8/9/14 15/15/14
f 5/5/10 16/16/15 17/17/15
f 18/18/16 2/3/16 19/19/16
f 12/12/17 20/20/17 21/21/17
f 6/6/18 16/16/19 22/22/19
f 18/18/20 24/23/21 23/24/20
f 25/25/22 21/21/23 26/26/24
f 6/6/25 27/27/25 28/28/25
f 29/29/26 30/30/27 31/31/26
f 25/25/22 32/32/28 33/33/28
f 28/28/29 34/34/29 35/35/29
f 36/36/30 31/31/26 37/37/30
f 33/33/31 38/38/31 39/39/31
f 40/40/32 34/34/33 41/41/32
f 42/42/34 37/37/34 43/43/34
f 10/10/35 38/38/36 44/44/37
f 45/45/38 41/41/39 46/46/40
f 42/42/41 47/47/41 48/48/41
f 10/10/42 49/49/43 11/11/44
f 45/45/38 50/50/45 51/51/46
f 52/52/47 47/47/47 53/53/47
f 54/54/48 49/49/48 55/55/48
f 51/51/46 30/30/49 56/56/49
f 57/57/50 53/53/51 58/58/50
f 54/54/52 20/20/52 59/59/52
f 60/60/53 61/61/54 15/15/55
f 62/62/56 58/58/50 63/63/57
f 60/60/58 9/8/59 64/64/60
f 65/65/61 63/63/61 66/66/61
f 9/8/62 68/67/63 67/68/63
f 65/65/64 69/69/64 70/70/65
f 71/71/66 72/72/67 67/68/66
f 4/4/68 69/69/69 73/73/70
f 3/2/71 1/1/72 23/24/73
f 7/7/74 74/74/75 72/72/76
f 1/1/1 2/3/2 18/18/1
f 56/56/77 29/29/1 51/51/78
f 29/29/1 36/36/2 42/42/2
f 48/48/2 29/29/1 42/42/2
f 48/48/2 52/52/2 57/57/4
f 62/62/79 65/65/80 45/45/81
f 65/65/80 70/70/82 45/45/81
f 48/48/2 57/57/4 29/29/1
f 57/57/4 62/62/79 51/51/78
f 29/29/1 57/57/4 51/51/78
f 35/35/1 40/40/4 4/4/3
f 40/40/4 45/45/81 70/70/82
f 4/4/3 40/40/4 70/70/82
f 45/45/81 51/51/78 62/62/79
f 6/6/4 28/28/83 4/4/3
f 28/28/83 35/35/1 4/4/3
f 5/5/4 17/17/84 6/6/4
f 8/9/4 9/8/6 60/60/4
f 9/8/6 7/7/5 68/67/4
f 68/67/4 7/7/5 71/71/4
f 25/25/85 33/33/2 39/39/4
f 25/25/85 39/39/4 10/10/7
f 54/54/83 59/59/1 11/11/8
f 59/59/1 12/12/2 11/11/8
f 25/25/85 10/10/7 12/12/2
f 4/4/9 73/73/86 13/13/10
f 2/3/87 14/14/87 19/19/87
f 7/7/88 15/15/14 74/74/14
f 5/5/10 13/13/10 16/16/89
f 18/18/90 19/19/90 24/23/90
f 12/12/17 59/59/17 20/20/17
f 6/6/18 17/17/91 16/16/19
f 18/18/20 23/24/20 1/1/20
f 25/25/22 12/12/92 21/21/23
f 6/6/93 22/22/93 27/27/93
f 29/29/26 56/56/94 30/30/27
f 25/25/22 26/26/24 32/32/28
f 28/28/29 27/27/29 34/34/29
f 36/36/30 29/29/26 31/31/26
f 33/33/95 32/32/95 38/38/95
f 40/40/32 35/35/33 34/34/33
f 42/42/34 36/36/34 37/37/34
f 10/10/35 39/39/36 38/38/36
f 45/45/38 40/40/96 41/41/39
f 42/42/97 43/43/97 47/47/97
f 10/10/42 44/44/98 49/49/98
f 45/45/38 46/46/40 50/50/45
f 52/52/47 48/48/99 47/47/47
f 54/54/48 11/11/100 49/49/48
f 51/51/46 50/50/45 30/30/101
f 57/57/50 52/52/102 53/53/51
f 54/54/103 55/55/103 20/20/103
f 60/60/53 15/15/55 8/9/104
f 62/62/56 57/57/50 58/58/50
f 60/60/58 64/64/60 61/61/58
f 65/65/61 62/62/105 63/63/61
f 9/8/59 67/68/106 64/64/60
f 65/65/64 66/66/64 69/69/64
f 71/71/66 67/68/66 68/67/107
f 4/4/68 70/70/108 69/69/69
f 3/2/73 23/24/73 14/14/73
f 7/7/74 72/72/76 71/71/109
