# Blender v3.1.2 OBJ File: ''
# www.blender.org
mtllib dhd_light.mtl
o origin_15.001
v 0.426476 1.126571 0.122565
v 0.419452 1.124223 0.113245
v 0.427684 1.124632 0.119509
v 0.481439 1.099993 0.106111
v 0.461180 1.115288 0.123108
v 0.461613 1.118212 0.129209
v 0.437551 1.108648 0.094261
v 0.440575 1.104562 0.088138
v 0.442155 1.106669 0.093373
v 0.464033 1.087487 0.069720
v 0.470040 1.084739 0.068233
v 0.461028 1.086969 0.066700
v 0.416585 1.130430 0.123688
v 0.439072 1.124829 0.127441
v 0.443645 1.125181 0.131168
v 0.439771 1.122660 0.123591
v 0.448316 1.124558 0.133022
v 0.453937 1.120749 0.129169
v 0.450657 1.118083 0.121699
v 0.443052 1.120052 0.120578
v 0.446971 1.118474 0.120035
v 0.456112 1.116276 0.121717
v 0.457983 1.118953 0.128277
v 0.452655 1.118310 0.123472
v 0.491348 1.095347 0.103432
v 0.484305 1.096171 0.100407
v 0.470379 1.101578 0.101938
v 0.467440 1.103958 0.104726
v 0.474011 1.102453 0.106082
v 0.450695 1.110566 0.106777
v 0.446729 1.112046 0.107093
v 0.432486 1.109146 0.091896
v 0.455526 1.101749 0.092444
v 0.460822 1.103045 0.098528
v 0.460053 1.100574 0.093105
v 0.463919 1.101689 0.097882
v 0.459044 1.084247 0.059973
vt 0.588629 0.632526
vt 0.579886 0.633690
vt 0.571040 0.611104
vt 0.500751 0.750573
vt 0.560588 0.712779
vt 0.575517 0.716846
vt 0.507186 0.643102
vt 0.501029 0.653377
vt 0.488876 0.646882
vt 0.421563 0.691934
vt 0.412728 0.705163
vt 0.416160 0.683329
vt 0.599926 0.610127
vt 0.590165 0.664253
vt 0.595619 0.676719
vt 0.579895 0.663846
vt 0.596291 0.688391
vt 0.581895 0.699286
vt 0.565913 0.687933
vt 0.569523 0.669839
vt 0.564839 0.678591
vt 0.561358 0.700467
vt 0.576245 0.708086
vt 0.568688 0.693435
vt 0.485752 0.771842
vt 0.483880 0.754306
vt 0.499334 0.723167
vt 0.508880 0.717826
vt 0.506852 0.733578
vt 0.532263 0.671272
vt 0.528123 0.680286
vt 0.505371 0.629965
vt 0.487439 0.684003
vt 0.498601 0.699416
vt 0.485356 0.694838
vt 0.494367 0.706234
vt 0.400172 0.675124
vn 0.2852 0.8563 -0.4306
vn 0.2851 0.8563 -0.4306
vn 0.2851 0.8563 -0.4307
vn 0.2852 0.8563 -0.4307
vn 0.2853 0.8563 -0.4306
vn 0.2850 0.8563 -0.4307
vn 0.2852 0.8564 -0.4305
vn 0.2852 0.8562 -0.4307
vn 0.2850 0.8564 -0.4306
vn 0.2855 0.8563 -0.4305
vn 0.2852 0.8563 -0.4305
usemtl dhd_button_light.023
s 1
f 1/1/1 3/2/2 2/3/1
f 4/4/3 5/5/4 6/6/5
f 7/7/2 9/8/6 8/9/2
f 10/10/1 11/11/2 12/12/1
f 1/1/1 2/3/1 13/13/1
f 14/14/3 15/15/3 16/16/3
f 15/15/3 17/17/2 18/18/3
f 15/15/3 18/18/3 19/19/3
f 20/20/4 15/15/3 19/19/3
f 20/20/4 16/16/3 15/15/3
f 19/19/3 21/21/7 20/20/4
f 5/5/4 22/22/3 23/23/8
f 22/22/3 24/24/6 23/23/8
f 24/24/6 19/19/3 18/18/3
f 23/23/8 6/6/5 5/5/4
f 6/6/5 25/25/2 4/4/3
f 18/18/3 23/23/8 24/24/6
f 25/25/2 26/26/2 4/4/3
f 26/26/2 27/27/2 4/4/3
f 27/27/2 28/28/9 29/29/8
f 27/27/2 29/29/8 4/4/3
f 9/8/6 31/30/1 30/31/10
f 7/7/2 8/9/2 32/32/11
f 9/8/6 7/7/2 31/30/1
f 33/33/2 34/34/2 35/35/2
f 34/34/2 36/36/2 35/35/2
f 11/11/2 37/37/2 12/12/1
f 12/12/1 33/33/2 10/10/1
f 33/33/2 35/35/2 10/10/1
