# Blender v3.1.2 OBJ File: ''
# www.blender.org
mtllib dhd.mtl
o origin_22.002
v 0.447886 1.096833 0.101759
v 0.436159 1.100255 0.100799
v 0.446974 1.093034 0.093601
v 0.457601 1.098745 0.111993
v 0.465026 1.093818 0.107113
v 0.452401 1.097184 0.105447
v 0.439124 1.109160 0.096320
v 0.449940 1.101939 0.089123
v 0.420079 1.113246 0.115982
v 0.432356 1.117194 0.107812
v 0.423044 1.122151 0.111503
v 0.483932 1.085252 0.102600
v 0.499602 1.089585 0.097441
v 0.496637 1.080680 0.101920
v 0.423574 1.107278 0.106430
v 0.438603 1.103090 0.108055
v 0.429391 1.108289 0.112291
v 0.476709 1.098389 0.099788
v 0.486898 1.094157 0.098121
v 0.410867 1.112737 0.108871
v 0.426539 1.116183 0.101951
v 0.441569 1.111995 0.103576
v 0.473743 1.089483 0.104267
v 0.407225 1.110915 0.102838
v 0.413832 1.121642 0.104393
v 0.459682 1.099004 0.089737
v 0.450851 1.105738 0.097281
v 0.467992 1.102723 0.102634
v 0.404028 1.127670 0.109888
v 0.410191 1.119821 0.098360
v 0.463668 1.083069 0.084842
v 0.456717 1.090099 0.094216
v 0.451678 1.103436 0.117400
v 0.460566 1.107650 0.107514
v 0.435488 1.113215 0.126124
v 0.434399 1.128840 0.132321
v 0.431434 1.119934 0.136800
v 0.467518 1.076225 0.073783
v 0.466633 1.091974 0.080363
v 0.446879 1.108381 0.124054
v 0.454643 1.112341 0.112921
v 0.445227 1.114243 0.110467
v 0.438453 1.122120 0.121645
v 0.468284 1.072442 0.066769
v 0.470483 1.085130 0.069304
v 0.442736 1.112806 0.130110
v 0.449845 1.117286 0.119576
v 0.442261 1.105338 0.114946
v 0.455366 1.106089 0.100968
v 0.465445 1.070489 0.061006
v 0.471250 1.081347 0.062290
v 0.443609 1.125435 0.131650
v 0.445701 1.121711 0.125631
v 0.465674 1.089617 0.099190
v 0.460992 1.082310 0.057412
v 0.468410 1.079395 0.056527
v 0.440643 1.116530 0.136129
v 0.447073 1.127318 0.137686
v 0.482541 1.092048 0.091041
v 0.468640 1.098522 0.094711
v 0.460714 1.074761 0.066367
v 0.458026 1.073405 0.061891
v 0.444107 1.118412 0.142165
v 0.432779 1.131319 0.136179
v 0.479575 1.083142 0.095520
v 0.500313 1.085802 0.090390
v 0.460770 1.078596 0.074029
v 0.463680 1.083666 0.061888
v 0.429814 1.122414 0.140658
v 0.504200 1.073393 0.092438
v 0.497348 1.076897 0.094869
v 0.458569 1.094674 0.080390
v 0.463736 1.087501 0.069550
v 0.401063 1.118765 0.114366
v 0.412452 1.125763 0.111673
v 0.504138 1.089683 0.100639
v 0.507165 1.082298 0.087960
v 0.455603 1.085768 0.084869
v 0.409487 1.116858 0.116152
v 0.501173 1.080778 0.105118
vt 0.601834 0.567172
vt 0.602543 0.566261
vt 0.602513 0.567694
vt 0.594113 0.556980
vt 0.594091 0.557979
vt 0.593347 0.557012
vt 0.603512 0.566286
vt 0.603503 0.567675
vt 0.601920 0.564099
vt 0.600924 0.564919
vt 0.601089 0.563892
vt 0.594250 0.559991
vt 0.595211 0.561252
vt 0.594293 0.561085
vt 0.602595 0.564810
vt 0.601820 0.566008
vt 0.601873 0.564997
vt 0.595147 0.558911
vt 0.595206 0.559962
vt 0.602669 0.563612
vt 0.603565 0.564838
vt 0.600870 0.565991
vt 0.594164 0.558969
vt 0.602792 0.563191
vt 0.603599 0.563516
vt 0.600912 0.568446
vt 0.600875 0.567189
vt 0.595106 0.557960
vt 0.602026 0.562241
vt 0.603348 0.562778
vt 0.601969 0.569586
vt 0.601867 0.568391
vt 0.594169 0.556084
vt 0.595112 0.557005
vt 0.593576 0.554365
vt 0.593190 0.552945
vt 0.593831 0.553535
vt 0.602180 0.570613
vt 0.601033 0.569736
vt 0.594238 0.555192
vt 0.595153 0.556135
vt 0.592448 0.555513
vt 0.592722 0.554106
vt 0.602338 0.571057
vt 0.601345 0.571020
vt 0.594249 0.554426
vt 0.595201 0.555226
vt 0.593405 0.555610
vt 0.592396 0.557027
vt 0.602532 0.571236
vt 0.601875 0.571651
vt 0.595208 0.553723
vt 0.595211 0.554422
vt 0.593414 0.558494
vt 0.603223 0.571645
vt 0.602491 0.571854
vt 0.594301 0.553832
vt 0.595111 0.553021
vt 0.592613 0.560021
vt 0.592471 0.558563
vt 0.602715 0.570921
vt 0.602715 0.571178
vt 0.594373 0.553526
vt 0.593669 0.552624
vt 0.593540 0.559866
vt 0.593150 0.561715
vt 0.602649 0.570341
vt 0.603434 0.571203
vt 0.593949 0.553303
vt 0.594010 0.561603
vt 0.593806 0.561230
vt 0.603554 0.569026
vt 0.603599 0.570390
vt 0.602319 0.563110
vt 0.601429 0.562925
vt 0.595112 0.561775
vt 0.593689 0.562285
vt 0.602552 0.569077
vt 0.602141 0.563385
vt 0.594354 0.561333
vn -0.2851 -0.8563 0.4306
vn -0.2931 -0.8362 0.4635
vn -0.2426 -0.8600 0.4490
vn 0.2858 0.8278 -0.4827
vn 0.1882 0.8818 -0.4324
vn 0.2851 0.8563 -0.4307
vn -0.6865 -0.0871 -0.7219
vn -0.5671 -0.2115 -0.7960
vn -0.6864 -0.1311 -0.7153
vn 0.3180 0.3394 0.8853
vn 0.4945 0.2535 0.8314
vn -0.2504 -0.3271 -0.9112
vn -0.1887 -0.3904 -0.9011
vn -0.2298 -0.1093 -0.9671
vn -0.3655 -0.2907 -0.8843
vn -0.5379 -0.2020 -0.8185
vn 0.5738 0.2074 0.7923
vn -0.3588 -0.3213 -0.8764
vn -0.2404 -0.3711 -0.8969
vn 0.0566 -0.4018 -0.9140
vn -0.4142 -0.2951 -0.8610
vn 0.6641 0.1474 0.7329
vn -0.4357 -0.2274 -0.8709
vn -0.3067 -0.2991 -0.9036
vn 0.8175 -0.4518 -0.3571
vn 0.8304 -0.1222 -0.5437
vn 0.7579 0.0737 0.6482
vn -0.6846 -0.0845 -0.7240
vn -0.5262 -0.2357 -0.8171
vn -0.8691 0.0416 -0.4929
vn 0.8708 -0.0437 0.4896
vn -0.7660 0.0133 -0.6427
vn -0.6696 -0.1436 -0.7287
vn 0.8816 -0.0580 0.4683
vn 0.9037 -0.0903 0.4186
vn 0.9033 -0.0775 0.4220
vn 0.9393 -0.1602 0.3033
vn -0.8220 -0.0031 -0.5694
vn -0.7695 -0.0634 -0.6355
vn 0.7917 0.0429 0.6095
vn 0.8816 -0.0580 0.4684
vn 0.9537 -0.2086 0.2167
vn 0.9393 -0.1602 0.3034
vn -0.8616 0.1551 -0.4834
vn -0.8224 -0.0121 -0.5688
vn 0.6285 0.1722 0.7585
vn 0.8602 -0.4269 -0.2791
vn -0.9156 0.1104 -0.3866
vn -0.8773 0.0521 -0.4771
vn 0.4507 0.2768 0.8487
vn 0.6285 0.1723 0.7585
vn -0.2511 -0.3669 -0.8957
vn -0.2510 -0.3669 -0.8957
vn -0.6184 0.6972 0.3627
vn -0.8294 0.4457 0.3369
vn 0.2759 0.3569 0.8924
vn -0.8732 0.4300 0.2294
vn -0.8188 0.4513 0.3550
vn -0.0290 -0.4414 -0.8968
vn 0.3121 0.3419 0.8864
vn -0.9091 0.1512 -0.3882
vn -0.9584 0.2579 -0.1221
vn -0.9102 0.3815 -0.1615
vn 0.8988 -0.0827 0.4306
vn 0.8988 -0.0827 0.4305
vn 0.4449 0.2798 0.8508
vn 0.2569 0.4588 0.8506
vn -0.8224 -0.0121 -0.5687
vn -0.9404 0.1632 -0.2983
vn -0.0802 0.4690 0.8795
vn 0.0362 0.4394 0.8976
vn -0.0802 0.4690 0.8796
vn -0.9370 0.1543 -0.3135
vn -0.9370 0.1543 -0.3136
vn -0.8329 0.0561 -0.5506
vn 0.0361 0.4394 0.8976
vn 0.5009 -0.5162 -0.6947
vn 0.5012 -0.5162 -0.6945
vn -0.2851 -0.8563 0.4307
vn -0.5754 -0.7943 0.1950
vn -0.3181 -0.8258 0.4657
vn -0.2852 -0.8563 0.4306
vn -0.2166 -0.8844 0.4135
vn -0.2852 -0.8563 0.4307
vn -0.2365 -0.8020 0.5485
vn -0.2778 -0.8059 0.5228
vn 0.2852 0.8563 -0.4307
vn 0.2851 0.8563 -0.4306
vn 0.2804 0.8541 -0.4381
vn 0.2965 0.8506 -0.4342
vn 0.0013 0.9552 -0.2961
vn 0.2215 0.8347 -0.5042
vn 0.2521 0.8327 -0.4929
vn 0.2307 0.8586 -0.4579
vn 0.3920 0.8446 -0.3648
vn 0.2975 0.8321 -0.4680
vn 0.1150 0.7555 -0.6450
vn -0.3163 -0.3400 -0.8856
vn 0.8176 -0.4518 -0.3570
vn -0.8691 0.0415 -0.4929
vn 0.9537 -0.2086 0.2168
vn 0.8601 -0.4268 -0.2793
vn -0.7372 0.1325 -0.6626
vn -0.8293 0.4457 0.3370
vn -0.8188 0.4512 0.3550
vn -0.9584 0.2578 -0.1221
vn 0.4448 0.2797 0.8508
vn 0.7272 -0.3781 -0.5729
usemtl dhd.010
s 1
f 1/1/1 2/2/2 3/3/3
f 4/4/4 5/5/5 6/6/6
f 3/3/7 7/7/8 8/8/9
f 9/9/10 10/10/11 11/11/10
f 12/12/12 13/13/13 14/14/14
f 15/15/15 7/7/8 2/2/16
f 16/16/17 10/10/11 17/17/11
f 12/12/12 18/18/18 19/19/19
f 20/20/20 21/21/21 15/15/15
f 1/1/22 22/22/17 16/16/17
f 5/5/23 18/18/18 23/23/24
f 24/24/25 25/25/25 20/20/26
f 1/1/22 26/26/27 27/27/22
f 4/4/28 28/28/29 5/5/23
f 24/24/30 29/29/30 30/30/30
f 31/31/31 26/26/27 32/32/27
f 33/33/32 34/34/33 4/4/28
f 35/35/34 36/36/35 37/37/36
f 38/38/37 39/39/31 31/31/31
f 40/40/38 41/41/39 33/33/32
f 35/35/34 42/42/40 43/43/41
f 44/44/42 45/45/43 38/38/37
f 46/46/44 47/47/45 40/40/38
f 48/48/40 49/49/46 42/42/40
f 50/50/47 51/51/47 44/44/47
f 46/46/44 52/52/48 53/53/49
f 54/54/50 49/49/46 6/6/51
f 50/50/52 55/55/52 56/56/53
f 57/57/54 58/58/55 52/52/55
f 54/54/50 59/59/56 60/60/50
f 61/61/57 55/55/58 62/62/58
f 63/63/59 64/64/59 58/58/59
f 65/65/56 66/66/60 59/59/56
f 67/67/61 68/68/62 61/61/63
f 69/69/64 36/36/35 64/64/65
f 70/70/66 66/66/60 71/71/67
f 67/67/61 72/72/68 73/73/69
f 74/74/70 75/75/71 29/29/72
f 70/70/73 76/76/73 77/77/74
f 3/3/7 72/72/68 78/78/75
f 79/79/76 11/11/10 75/75/71
f 80/80/77 13/13/78 76/76/77
f 9/9/79 79/79/1 20/20/80
f 79/79/1 74/74/1 20/20/80
f 74/74/1 24/24/79 20/20/80
f 20/20/80 15/15/81 9/9/79
f 17/17/79 9/9/79 15/15/81
f 1/1/1 16/16/82 2/2/2
f 16/16/82 17/17/79 2/2/2
f 31/31/79 32/32/79 78/78/83
f 32/32/79 1/1/1 3/3/3
f 78/78/83 32/32/79 3/3/3
f 44/44/84 38/38/84 61/61/85
f 38/38/84 31/31/79 67/67/86
f 62/62/82 50/50/82 61/61/85
f 50/50/82 44/44/84 61/61/85
f 38/38/84 67/67/86 61/61/85
f 17/17/79 15/15/81 2/2/2
f 78/78/83 67/67/86 31/31/79
f 48/48/87 35/35/88 40/40/89
f 35/35/88 37/37/90 57/57/91
f 40/40/89 35/35/88 46/46/92
f 37/37/90 69/69/87 63/63/6
f 37/37/90 63/63/6 57/57/91
f 6/6/6 48/48/87 33/33/93
f 65/65/6 54/54/87 23/23/94
f 54/54/87 6/6/6 5/5/5
f 23/23/94 54/54/87 5/5/5
f 80/80/6 70/70/6 71/71/95
f 71/71/95 65/65/6 12/12/96
f 12/12/96 65/65/6 23/23/94
f 57/57/91 46/46/92 35/35/88
f 14/14/97 80/80/6 71/71/95
f 12/12/96 14/14/97 71/71/95
f 48/48/87 40/40/89 33/33/93
f 6/6/6 33/33/93 4/4/4
f 3/3/7 2/2/16 7/7/8
f 9/9/10 17/17/11 10/10/11
f 12/12/12 19/19/19 13/13/13
f 15/15/15 21/21/21 7/7/8
f 16/16/17 22/22/17 10/10/11
f 12/12/12 23/23/24 18/18/18
f 20/20/20 25/25/98 21/21/21
f 1/1/22 27/27/22 22/22/17
f 5/5/23 28/28/29 18/18/18
f 24/24/99 30/30/99 25/25/99
f 1/1/22 32/32/27 26/26/27
f 4/4/28 34/34/33 28/28/29
f 24/24/30 74/74/100 29/29/30
f 31/31/31 39/39/31 26/26/27
f 33/33/32 41/41/39 34/34/33
f 35/35/34 43/43/41 36/36/35
f 38/38/37 45/45/43 39/39/31
f 40/40/38 47/47/45 41/41/39
f 35/35/34 48/48/40 42/42/40
f 44/44/42 51/51/101 45/45/43
f 46/46/44 53/53/49 47/47/45
f 48/48/40 6/6/51 49/49/46
f 50/50/102 56/56/102 51/51/102
f 46/46/44 57/57/103 52/52/48
f 54/54/50 60/60/50 49/49/46
f 50/50/52 62/62/52 55/55/52
f 57/57/54 63/63/104 58/58/55
f 54/54/50 65/65/56 59/59/56
f 61/61/57 68/68/105 55/55/105
f 63/63/59 69/69/59 64/64/59
f 65/65/56 71/71/67 66/66/60
f 67/67/61 73/73/69 68/68/106
f 69/69/64 37/37/36 36/36/35
f 70/70/66 77/77/107 66/66/60
f 67/67/61 78/78/75 72/72/68
f 74/74/70 79/79/76 75/75/71
f 70/70/73 80/80/73 76/76/73
f 3/3/7 8/8/9 72/72/68
f 79/79/76 9/9/10 11/11/10
f 80/80/77 14/14/108 13/13/78
