# Blender v3.1.2 OBJ File: ''
# www.blender.org
mtllib dhd_light.mtl
o origin_22.003
v 0.459682 1.099004 0.089737
v 0.458569 1.094674 0.080390
v 0.449940 1.101939 0.089123
v 0.455366 1.106089 0.100968
v 0.460566 1.107650 0.107514
v 0.454643 1.112341 0.112921
v 0.404028 1.127670 0.109888
v 0.412452 1.125763 0.111673
v 0.413832 1.121642 0.104393
v 0.423044 1.122151 0.111503
v 0.432356 1.117194 0.107812
v 0.426539 1.116183 0.101951
v 0.441569 1.111995 0.103576
v 0.439124 1.109160 0.096320
v 0.450851 1.105738 0.097281
v 0.466633 1.091974 0.080363
v 0.470483 1.085130 0.069304
v 0.463736 1.087501 0.069550
v 0.471250 1.081347 0.062290
v 0.463680 1.083666 0.061888
v 0.468410 1.079395 0.056527
v 0.460992 1.082310 0.057412
v 0.410191 1.119821 0.098360
v 0.434399 1.128840 0.132321
v 0.438453 1.122120 0.121645
v 0.443609 1.125435 0.131650
v 0.445227 1.114243 0.110467
v 0.449845 1.117286 0.119576
v 0.445701 1.121711 0.125631
v 0.468640 1.098522 0.094711
v 0.467992 1.102723 0.102634
v 0.482541 1.092048 0.091041
v 0.476709 1.098389 0.099788
v 0.500313 1.085802 0.090390
v 0.486898 1.094157 0.098121
v 0.507165 1.082298 0.087960
v 0.504138 1.089683 0.100639
v 0.499602 1.089585 0.097441
v 0.432779 1.131319 0.136179
v 0.447073 1.127318 0.137686
vt 0.477014 0.692235
vt 0.453818 0.684775
vt 0.483566 0.669269
vt 0.509398 0.688067
vt 0.540394 0.692579
vt 0.521712 0.703438
vt 0.575705 0.573037
vt 0.573030 0.593844
vt 0.553276 0.593039
vt 0.563549 0.618546
vt 0.546242 0.638269
vt 0.536216 0.621510
vt 0.527653 0.657445
vt 0.511148 0.647882
vt 0.503754 0.675682
vt 0.447057 0.703509
vt 0.415157 0.706748
vt 0.421366 0.691151
vt 0.396199 0.704906
vt 0.401374 0.687005
vt 0.383402 0.695269
vt 0.391831 0.678340
vt 0.540920 0.581081
vt 0.606377 0.656049
vt 0.596857 0.676886
vt 0.576114 0.659780
vt 0.561251 0.684968
vt 0.542105 0.669565
vt 0.579994 0.678573
vt 0.503096 0.718033
vt 0.482324 0.715502
vt 0.488595 0.736613
vt 0.461407 0.745630
vt 0.475911 0.759105
vt 0.445128 0.785948
vt 0.468135 0.799536
vt 0.433304 0.800376
vt 0.463719 0.787720
vt 0.617403 0.654349
vt 0.608979 0.687939
vn 0.2851 0.8563 -0.4306
vn 0.2852 0.8563 -0.4306
vn 0.2851 0.8563 -0.4307
vn 0.2852 0.8563 -0.4307
vn 0.2851 0.8564 -0.4305
usemtl dhd_button_light.011
s 1
f 1/1/1 2/2/2 3/3/1
f 4/4/3 6/5/2 5/6/3
f 7/7/3 8/8/3 9/9/1
f 8/8/3 10/10/3 9/9/1
f 10/10/3 11/11/3 12/12/3
f 11/11/3 13/13/2 14/14/2
f 12/12/3 11/11/3 14/14/2
f 13/13/2 15/15/1 14/14/2
f 15/15/1 1/1/1 3/3/1
f 1/1/1 16/16/2 2/2/2
f 16/16/2 17/17/2 18/18/2
f 17/17/2 19/19/2 20/20/2
f 19/19/2 21/21/2 20/20/2
f 21/21/2 22/22/1 20/20/2
f 20/20/2 18/18/2 17/17/2
f 16/16/2 18/18/2 2/2/2
f 15/15/1 3/3/1 14/14/2
f 9/9/1 23/23/2 7/7/3
f 12/12/3 9/9/1 10/10/3
f 24/24/1 26/25/4 25/26/2
f 25/26/2 28/27/2 27/28/2
f 29/29/2 28/27/2 25/26/2
f 27/28/2 6/5/2 4/4/3
f 4/4/3 31/30/3 30/31/3
f 30/31/3 33/32/3 32/33/2
f 32/33/2 35/34/2 34/35/3
f 33/32/3 35/34/2 32/33/2
f 34/35/3 37/36/3 36/37/3
f 34/35/3 38/38/3 37/36/3
f 4/4/3 5/6/3 31/30/3
f 31/30/3 33/32/3 30/31/3
f 39/39/5 40/40/3 24/24/1
f 25/26/2 26/25/4 29/29/2
f 26/25/4 24/24/1 40/40/3
f 34/35/3 35/34/2 38/38/3
f 6/5/2 27/28/2 28/27/2
