# Blender v3.1.2 OBJ File: ''
# www.blender.org
mtllib dhd.mtl
o origin_11
v 0.448506 1.105602 0.119606
v 0.416786 1.125044 0.137260
v 0.447486 1.116983 0.141559
v 0.422107 1.103518 0.097983
v 0.420824 1.112566 0.115123
v 0.442594 1.097301 0.099187
v 0.468443 1.096278 0.114267
v 0.466674 1.102445 0.125357
v 0.461768 1.098483 0.114231
v 0.497959 1.086216 0.113803
v 0.475395 1.090987 0.108349
v 0.474118 1.085846 0.097282
v 0.437202 1.074021 0.049329
v 0.440576 1.079897 0.063246
v 0.436840 1.082510 0.065967
v 0.447217 1.076460 0.060809
v 0.440168 1.082926 0.044850
v 0.450182 1.085365 0.056330
v 0.419752 1.133949 0.132782
v 0.431520 1.091851 0.081018
v 0.434344 1.099111 0.073174
v 0.434485 1.100757 0.076540
v 0.469639 1.111350 0.120879
v 0.464733 1.107388 0.109752
v 0.422308 1.083909 0.059127
v 0.451472 1.114507 0.115128
v 0.431379 1.090206 0.077653
v 0.435103 1.097002 0.069483
v 0.471408 1.105183 0.109788
v 0.425008 1.102807 0.074342
v 0.425273 1.092814 0.054648
v 0.450451 1.125888 0.137081
v 0.432138 1.088096 0.073962
v 0.436586 1.094438 0.065368
v 0.477878 1.107979 0.119630
v 0.474912 1.099074 0.124109
v 0.422043 1.093902 0.078821
v 0.433621 1.085533 0.069846
v 0.487662 1.101869 0.113961
v 0.484697 1.092964 0.118440
v 0.443541 1.088802 0.058767
v 0.439806 1.091415 0.061488
v 0.423789 1.121471 0.110645
v 0.500924 1.095121 0.109324
v 0.443848 1.077809 0.061259
v 0.445560 1.106206 0.094708
v 0.425073 1.112423 0.093504
v 0.477083 1.094751 0.092803
v 0.446813 1.086714 0.056781
v 0.478360 1.099892 0.103870
vt 0.594859 0.577498
vt 0.595880 0.576882
vt 0.595089 0.575909
vt 0.602268 0.574469
vt 0.602303 0.574421
vt 0.602280 0.574357
vt 0.631441 0.568849
vt 0.631378 0.568866
vt 0.631398 0.568799
vt 0.633426 0.557158
vt 0.633938 0.557779
vt 0.633541 0.557921
vt 0.633948 0.541928
vt 0.632796 0.541971
vt 0.632492 0.541489
vt 0.633228 0.542541
vt 0.635111 0.542834
vt 0.632845 0.543586
vt 0.593830 0.573239
vt 0.631727 0.539741
vt 0.630588 0.540123
vt 0.630580 0.539582
vt 0.630262 0.570704
vt 0.630262 0.567276
vt 0.633645 0.540495
vt 0.593830 0.579297
vt 0.631803 0.540042
vt 0.630672 0.540760
vt 0.632195 0.567383
vt 0.631719 0.538085
vt 0.635111 0.539498
vt 0.599475 0.577676
vt 0.631957 0.540438
vt 0.630950 0.541454
vt 0.632530 0.569880
vt 0.631393 0.568926
vt 0.632249 0.539501
vt 0.632210 0.540900
vt 0.635677 0.555637
vt 0.633912 0.557249
vt 0.631833 0.542824
vt 0.631384 0.542204
vt 0.603599 0.571854
vt 0.632387 0.555991
vt 0.633065 0.542306
vt 0.600259 0.574231
vt 0.603599 0.578672
vt 0.632387 0.560385
vt 0.632276 0.543272
vt 0.635358 0.558909
vn -0.2851 -0.8563 0.4307
vn -0.2852 -0.8563 0.4307
vn -0.2851 -0.8563 0.4306
vn -0.2831 -0.8654 0.4136
vn -0.3353 -0.8457 0.4152
vn 0.7052 -0.4917 -0.5107
vn 0.7053 -0.4917 -0.5107
vn -0.5704 -0.2094 -0.7942
vn 0.9578 -0.2722 0.0929
vn 0.9560 -0.2214 0.1925
vn 0.9578 -0.2721 0.0930
vn -0.8784 0.4132 0.2401
vn -0.8784 0.4132 0.2402
vn -0.6204 -0.1776 -0.7639
vn 0.9576 -0.2352 0.1665
vn 0.9622 -0.2335 0.1403
vn 0.9293 -0.1370 0.3429
vn -0.1307 -0.4104 -0.9025
vn -0.9584 0.2491 -0.1393
vn -0.0066 0.4510 0.8925
vn 0.9385 -0.1439 0.3140
vn 0.8592 -0.0292 0.5108
vn 0.7957 -0.4620 -0.3917
vn -0.1004 0.4735 0.8750
vn 0.7506 0.1284 0.6482
vn 0.8940 -0.0155 0.4477
vn 0.2804 0.3551 0.8918
vn 0.4412 0.2817 0.8520
vn 0.6240 0.1752 0.7615
vn 0.7229 0.1028 0.6832
vn -0.9562 0.2231 -0.1894
vn 0.4932 -0.5163 -0.7001
vn 0.3678 0.3404 0.8654
vn 0.6178 0.1933 0.7622
vn -0.0768 -0.4275 -0.9008
vn -0.9528 0.3020 -0.0303
vn 0.2643 0.3616 0.8941
vn 0.4387 0.2829 0.8529
vn 0.6523 0.1558 0.7418
vn -0.6846 0.4964 0.5338
vn -0.2976 -0.8269 0.4771
vn -0.2851 -0.8563 0.4305
vn -0.2995 -0.8394 0.4535
vn -0.2853 -0.8562 0.4308
vn -0.2036 -0.8975 0.3912
vn -0.3514 -0.8202 0.4515
vn 0.7052 -0.4918 -0.5107
vn 0.9576 -0.2351 0.1664
vn 0.7957 -0.4620 -0.3918
vn -0.1005 0.4735 0.8751
vn 0.2805 0.3551 0.8918
vn 0.4412 0.2816 0.8521
vn -0.9562 0.2232 -0.1894
vn 0.2645 0.3616 0.8940
usemtl dhd.025
s 1
f 1/1/1 3/2/1 2/3/1
f 4/4/2 6/5/2 5/6/2
f 7/7/2 8/8/2 9/9/2
f 10/10/3 11/11/1 12/12/2
f 13/13/1 14/14/4 15/15/5
f 16/16/6 17/17/6 18/18/7
f 1/1/8 2/3/8 19/19/8
f 20/20/9 21/21/10 22/22/11
f 9/9/12 23/23/13 24/24/12
f 25/25/14 17/17/14 13/13/14
f 3/2/15 1/1/15 26/26/15
f 27/27/16 28/28/17 21/21/10
f 7/7/18 24/24/18 29/29/18
f 25/25/19 30/30/19 31/31/19
f 3/2/20 32/32/20 19/19/20
f 33/33/21 34/34/22 28/28/17
f 7/7/23 35/35/23 36/36/23
f 20/20/24 30/30/24 37/37/24
f 15/15/25 34/34/22 38/38/26
f 36/36/27 23/23/27 8/8/27
f 10/10/28 39/39/28 40/40/28
f 15/15/25 41/41/29 42/42/30
f 4/4/31 5/6/31 43/43/31
f 12/12/32 44/44/32 10/10/32
f 45/45/33 41/41/29 14/14/34
f 4/4/35 47/46/35 46/47/35
f 11/11/36 48/48/36 12/12/36
f 16/16/37 49/49/38 45/45/33
f 5/6/39 6/5/39 46/47/39
f 11/11/40 39/39/40 50/50/40
f 7/7/2 36/36/1 8/8/2
f 10/10/3 40/40/3 11/11/1
f 27/27/41 20/20/42 37/37/2
f 37/37/2 25/25/1 33/33/43
f 25/25/1 13/13/1 15/15/5
f 37/37/2 33/33/43 27/27/41
f 13/13/1 16/16/44 45/45/45
f 13/13/1 45/45/45 14/14/4
f 33/33/43 25/25/1 38/38/46
f 38/38/46 25/25/1 15/15/5
f 16/16/6 13/13/47 17/17/6
f 1/1/8 19/19/8 26/26/8
f 20/20/9 27/27/16 21/21/10
f 9/9/12 8/8/13 23/23/13
f 25/25/14 31/31/14 17/17/14
f 3/2/48 26/26/48 32/32/48
f 27/27/16 33/33/21 28/28/17
f 7/7/18 9/9/18 24/24/18
f 25/25/19 37/37/19 30/30/19
f 3/2/20 19/19/20 2/3/20
f 33/33/21 38/38/26 34/34/22
f 7/7/49 29/29/49 35/35/49
f 20/20/50 22/22/50 30/30/50
f 15/15/25 42/42/30 34/34/22
f 36/36/51 35/35/51 23/23/51
f 10/10/52 44/44/52 39/39/52
f 15/15/25 14/14/34 41/41/29
f 4/4/53 43/43/53 47/46/53
f 12/12/32 48/48/32 44/44/32
f 45/45/33 49/49/38 41/41/29
f 4/4/35 46/47/35 6/5/35
f 11/11/36 50/50/36 48/48/36
f 16/16/37 18/18/54 49/49/38
f 5/6/39 46/47/39 43/43/39
f 11/11/40 40/40/40 39/39/40
