# Blender v3.1.2 OBJ File: ''
# www.blender.org
mtllib dhd_light.mtl
o origin_11.001
v 0.451472 1.114507 0.115128
v 0.450451 1.125888 0.137081
v 0.419752 1.133949 0.132782
v 0.425073 1.112423 0.093504
v 0.445560 1.106206 0.094708
v 0.423789 1.121471 0.110645
v 0.469639 1.111350 0.120879
v 0.471408 1.105183 0.109788
v 0.464733 1.107388 0.109752
v 0.500924 1.095121 0.109324
v 0.478360 1.099892 0.103870
v 0.487662 1.101869 0.113961
v 0.436586 1.094438 0.065368
v 0.439806 1.091415 0.061488
v 0.425273 1.092814 0.054648
v 0.477878 1.107979 0.119630
v 0.477083 1.094751 0.092803
v 0.446813 1.086714 0.056781
v 0.450182 1.085365 0.056330
v 0.440168 1.082926 0.044850
v 0.425008 1.102807 0.074342
v 0.435103 1.097002 0.069483
v 0.434485 1.100757 0.076540
v 0.434344 1.099111 0.073174
v 0.443541 1.088802 0.058767
vt 0.548647 0.686414
vt 0.620067 0.622430
vt 0.604602 0.695354
vt 0.515779 0.613442
vt 0.560731 0.619818
vt 0.501599 0.662024
vt 0.547884 0.730977
vt 0.518419 0.729476
vt 0.523904 0.714157
vt 0.492780 0.796386
vt 0.497617 0.742430
vt 0.515445 0.768576
vt 0.432976 0.625113
vt 0.420102 0.630599
vt 0.414182 0.592243
vt 0.537860 0.749119
vt 0.470434 0.733976
vt 0.401884 0.644600
vt 0.397906 0.652313
vt 0.375786 0.622280
vt 0.466165 0.602675
vt 0.444997 0.623870
vt 0.463929 0.626285
vt 0.455277 0.624106
vt 0.409833 0.637946
vn 0.2852 0.8563 -0.4307
vn 0.2851 0.8563 -0.4307
vn 0.2851 0.8563 -0.4306
vn 0.2852 0.8563 -0.4306
usemtl dhd_button_light.029
s 1
f 1/1/1 3/2/1 2/3/1
f 4/4/1 6/5/1 5/6/1
f 7/7/2 8/8/3 9/9/4
f 10/10/3 11/11/1 12/12/3
f 13/13/1 14/14/3 15/15/2
f 7/7/2 16/16/2 8/8/3
f 10/10/3 17/17/1 11/11/1
f 18/18/2 19/19/1 20/20/1
f 20/20/1 15/15/2 14/14/3
f 15/15/2 21/21/2 22/22/1
f 21/21/2 23/23/2 24/24/2
f 21/21/2 24/24/2 22/22/1
f 25/25/4 18/18/2 20/20/1
f 14/14/3 25/25/4 20/20/1
f 15/15/2 22/22/1 13/13/1
