# Blender v3.1.2 OBJ File: ''
# www.blender.org
mtllib dhd.mtl
o origin_10
v 0.450057 1.079068 0.067874
v 0.454240 1.074430 0.061422
v 0.478617 1.088099 0.104741
v 0.452606 1.095824 0.102879
v 0.441343 1.082930 0.069785
v 0.461775 1.094341 0.106001
v 0.481545 1.097214 0.124803
v 0.490375 1.093974 0.100058
v 0.484511 1.106119 0.120325
v 0.440292 1.085831 0.050707
v 0.444308 1.091836 0.065306
v 0.426973 1.113987 0.122020
v 0.435320 1.124518 0.124338
v 0.432354 1.115613 0.128817
v 0.487409 1.085068 0.104536
v 0.481582 1.097005 0.100263
v 0.464741 1.103246 0.101522
v 0.423100 1.136855 0.140776
v 0.429938 1.122892 0.117541
v 0.414036 1.122319 0.130021
v 0.424397 1.116772 0.101705
v 0.421432 1.107867 0.106184
v 0.429345 1.122616 0.116599
v 0.426380 1.113710 0.121078
v 0.427467 1.109634 0.113693
v 0.430432 1.118539 0.109214
v 0.452267 1.077847 0.042761
v 0.457206 1.083335 0.056943
v 0.417001 1.131224 0.125543
v 0.455572 1.104729 0.098400
v 0.449302 1.068941 0.047240
v 0.445602 1.091720 0.065932
v 0.433214 1.119013 0.136145
v 0.420134 1.127950 0.145255
v 0.437650 1.087717 0.076858
v 0.440616 1.096623 0.072379
v 0.442637 1.082814 0.070411
v 0.474534 1.096017 0.117782
v 0.436179 1.127918 0.131667
v 0.433284 1.100022 0.074284
v 0.430318 1.091117 0.078763
v 0.477378 1.101824 0.107061
v 0.453022 1.087973 0.063396
v 0.477500 1.104923 0.113303
v 0.437327 1.076926 0.055186
v 0.474412 1.092919 0.111540
vt 0.611500 0.539712
vt 0.612028 0.539491
vt 0.613249 0.543868
vt 0.625238 0.542848
vt 0.624986 0.539641
vt 0.625881 0.542848
vt 0.613742 0.544902
vt 0.614191 0.543770
vt 0.614334 0.545115
vt 0.624883 0.538085
vt 0.625730 0.539250
vt 0.610915 0.549108
vt 0.610494 0.548532
vt 0.611207 0.548790
vt 0.613783 0.544054
vt 0.613894 0.543432
vt 0.626741 0.542862
vt 0.611643 0.550632
vt 0.610361 0.549217
vt 0.624219 0.546132
vt 0.623352 0.545229
vt 0.623913 0.545453
vt 0.625453 0.546329
vt 0.624610 0.545654
vt 0.624292 0.545299
vt 0.623715 0.544876
vt 0.611812 0.538085
vt 0.612845 0.539031
vt 0.623879 0.547619
vt 0.624402 0.542831
vt 0.611753 0.538749
vt 0.610361 0.539317
vt 0.611550 0.549097
vt 0.611442 0.549539
vt 0.624519 0.540012
vt 0.623713 0.540555
vt 0.611141 0.539529
vt 0.613117 0.545006
vt 0.612217 0.549400
vt 0.623352 0.539692
vt 0.624160 0.539838
vt 0.611807 0.544486
vt 0.610676 0.540240
vt 0.613763 0.545711
vt 0.624649 0.538978
vt 0.612693 0.544521
vn -0.2066 -0.9784 0.0028
vn -0.3272 -0.8535 0.4055
vn 0.0034 -0.7761 0.6306
vn -0.3610 -0.5262 0.7699
vn -0.3422 -0.8541 0.3916
vn -0.2851 -0.8563 0.4307
vn 0.9277 -0.1337 0.3485
vn 0.9150 -0.3525 -0.1963
vn 0.9262 -0.3617 -0.1060
vn 0.8870 -0.4059 -0.2200
vn 0.7392 -0.4825 -0.4698
vn 0.4665 -0.4355 -0.7699
vn -0.1592 -0.4007 -0.9023
vn 0.9148 -0.3535 -0.1955
vn 0.8331 -0.4436 -0.3303
vn -0.9268 0.1316 -0.3518
vn -0.9267 0.1317 -0.3519
vn -0.9236 0.1252 -0.3625
vn 0.8960 -0.3781 -0.2328
vn 0.8338 -0.4432 -0.3293
vn 0.6487 -0.4164 -0.6370
vn 0.4934 0.2541 0.8319
vn 0.5743 0.2071 0.7920
vn 0.6124 0.2189 0.7597
vn 0.4543 -0.4635 -0.7607
vn 0.7342 -0.4840 -0.4762
vn 0.9074 -0.3859 -0.1666
vn 0.8744 -0.4165 -0.2490
vn 0.6492 0.1580 0.7440
vn -0.2968 0.0717 -0.9523
vn -0.4961 -0.2526 -0.8307
vn -0.4095 0.2156 -0.8865
vn -0.9281 0.1343 -0.3474
vn 0.5515 0.2450 0.7974
vn 0.6375 0.1661 0.7523
vn -0.5516 0.5775 0.6018
vn -0.8290 0.4459 0.3376
vn 0.2354 0.6632 0.7104
vn 0.4356 0.2845 0.8540
vn 0.1818 0.4741 0.8615
vn 0.5735 0.2076 0.7925
vn 0.3842 0.6540 0.6516
vn 0.3728 0.3149 0.8729
vn -0.5125 0.7351 0.4437
vn -0.8356 0.4422 0.3258
vn -0.8357 0.4421 0.3259
vn -0.6531 0.5024 0.5665
vn -0.4330 0.7976 0.4199
vn -0.9262 0.1304 -0.3538
vn -0.9262 0.1305 -0.3539
vn -0.7715 0.0390 -0.6351
vn -0.4834 -0.2595 -0.8360
vn -0.2674 -0.8787 0.3954
vn 0.1178 -0.8604 0.4959
vn -0.2852 -0.8563 0.4306
vn -0.2852 -0.8563 0.4307
vn -0.2851 -0.8563 0.4306
vn -0.2243 -0.9745 -0.0106
vn 0.1073 -0.8678 0.4852
vn -0.3361 -0.8427 0.4207
vn 0.1112 -0.9040 0.4127
vn -0.6359 -0.7182 0.2824
vn 0.7392 -0.4825 -0.4699
vn 0.0449 -0.1180 -0.9920
vn 0.8332 -0.4435 -0.3303
vn -0.9235 0.1252 -0.3625
vn 0.8337 -0.4433 -0.3293
vn 0.6375 0.1661 0.7524
vn -0.9158 0.3803 -0.1293
vn 0.4355 0.2845 0.8540
vn 0.5052 0.2475 0.8267
vn 0.3728 0.3148 0.8729
vn -0.6623 0.7487 0.0286
vn -0.9261 0.1305 -0.3539
vn -0.2564 0.0543 -0.9650
usemtl dhd
s 1
f 1/1/1 2/2/2 3/3/3
f 4/4/4 5/5/5 6/6/6
f 7/7/7 8/8/7 9/9/7
f 5/5/8 10/10/9 11/11/10
f 12/12/11 13/13/11 14/14/12
f 15/15/13 16/16/13 8/8/13
f 5/5/14 17/17/15 6/6/15
f 12/12/16 18/18/17 19/19/16
f 20/20/18 21/21/18 22/22/18
f 2/2/19 16/16/20 3/3/21
f 6/6/22 23/23/23 24/24/24
f 25/25/25 21/21/26 26/26/26
f 2/2/19 27/27/27 28/28/28
f 20/20/29 23/23/23 29/29/29
f 25/25/30 30/30/31 4/4/32
f 31/31/33 32/32/33 27/27/33
f 33/33/34 18/18/35 34/34/35
f 35/35/36 30/30/37 36/36/37
f 1/1/38 32/32/39 37/37/39
f 38/38/40 39/39/41 33/33/34
f 35/35/42 40/40/43 41/41/43
f 1/1/44 42/42/45 43/43/46
f 7/7/47 44/44/47 38/38/48
f 45/45/49 40/40/50 10/10/49
f 46/46/51 13/13/52 42/42/52
f 33/33/53 34/34/6 14/14/54
f 34/34/6 12/12/55 14/14/54
f 15/15/56 7/7/57 46/46/58
f 7/7/57 38/38/59 46/46/58
f 38/38/59 33/33/53 14/14/54
f 38/38/59 14/14/54 46/46/58
f 3/3/3 15/15/56 46/46/58
f 37/37/6 31/31/6 2/2/2
f 1/1/1 37/37/6 2/2/2
f 3/3/3 46/46/58 1/1/1
f 20/20/56 22/22/6 24/24/60
f 22/22/6 25/25/61 24/24/60
f 41/41/55 45/45/55 5/5/5
f 35/35/62 41/41/55 5/5/5
f 6/6/6 24/24/60 4/4/4
f 24/24/60 25/25/61 4/4/4
f 4/4/4 35/35/62 5/5/5
f 7/7/7 15/15/7 8/8/7
f 5/5/8 45/45/9 10/10/9
f 12/12/63 19/19/63 13/13/63
f 15/15/13 3/3/64 16/16/13
f 5/5/8 11/11/10 17/17/65
f 12/12/16 34/34/17 18/18/17
f 20/20/66 29/29/66 21/21/66
f 2/2/19 28/28/28 16/16/67
f 6/6/22 17/17/22 23/23/23
f 25/25/25 22/22/26 21/21/26
f 2/2/19 31/31/27 27/27/27
f 20/20/29 24/24/24 23/23/23
f 25/25/30 26/26/31 30/30/31
f 31/31/33 37/37/33 32/32/33
f 33/33/34 39/39/41 18/18/68
f 35/35/36 4/4/69 30/30/37
f 1/1/38 43/43/70 32/32/70
f 38/38/40 44/44/71 39/39/41
f 35/35/42 36/36/72 40/40/72
f 1/1/44 46/46/73 42/42/45
f 7/7/47 9/9/47 44/44/47
f 45/45/49 41/41/74 40/40/50
f 46/46/51 14/14/75 13/13/52
