# Blender v3.1.2 OBJ File: ''
# www.blender.org
mtllib dhd_light.mtl
o origin_10.002
v 0.435320 1.124518 0.124338
v 0.436179 1.127918 0.131667
v 0.477500 1.104923 0.113303
v 0.464741 1.103246 0.101522
v 0.444308 1.091836 0.065306
v 0.455572 1.104729 0.098400
v 0.484511 1.106119 0.120325
v 0.477378 1.101824 0.107061
v 0.490375 1.093974 0.100058
v 0.481582 1.097005 0.100263
v 0.429938 1.122892 0.117541
v 0.423100 1.136855 0.140776
v 0.457206 1.083335 0.056943
v 0.452267 1.077847 0.042761
v 0.445602 1.091720 0.065932
v 0.453022 1.087973 0.063396
v 0.430432 1.118539 0.109214
v 0.424397 1.116772 0.101705
v 0.429345 1.122616 0.116599
v 0.417001 1.131224 0.125543
v 0.440292 1.085831 0.050707
v 0.433284 1.100022 0.074284
v 0.440616 1.096623 0.072379
vt 0.585560 0.653960
vt 0.603221 0.659806
vt 0.522232 0.745139
vt 0.502975 0.709988
vt 0.426377 0.643318
vt 0.502665 0.687209
vt 0.534078 0.764516
vt 0.506536 0.741768
vt 0.477977 0.767986
vt 0.485765 0.748011
vt 0.572991 0.637870
vt 0.637162 0.634470
vt 0.393719 0.669193
vt 0.360240 0.649889
vt 0.426942 0.646707
vt 0.414134 0.662803
vt 0.551443 0.634542
vt 0.537404 0.616358
vt 0.571111 0.635986
vt 0.604244 0.612109
vt 0.391238 0.625818
vt 0.459060 0.622212
vt 0.447954 0.638458
vn 0.2852 0.8563 -0.4307
vn 0.2852 0.8563 -0.4306
vn 0.2851 0.8563 -0.4307
vn 0.2851 0.8563 -0.4306
vn 0.2852 0.8563 -0.4305
vn 0.2852 0.8562 -0.4307
usemtl dhd_button_light.001
s 1
f 1/1/1 2/2/2 3/3/1
f 4/4/3 5/5/3 6/6/3
f 3/3/1 7/7/2 8/8/1
f 7/7/2 9/9/4 8/8/1
f 9/9/4 10/10/3 8/8/1
f 11/11/1 12/12/2 1/1/1
f 12/12/2 2/2/2 1/1/1
f 13/13/4 14/14/3 15/15/2
f 13/13/4 15/15/2 16/16/5
f 13/13/4 16/16/5 10/10/3
f 16/16/5 8/8/1 10/10/3
f 8/8/1 1/1/1 3/3/1
f 17/17/6 18/18/3 19/19/3
f 18/18/3 20/20/3 19/19/3
f 6/6/3 17/17/6 19/19/3
f 5/5/3 21/21/4 22/22/3
f 5/5/3 22/22/3 23/23/3
f 6/6/3 19/19/3 4/4/3
f 5/5/3 23/23/3 6/6/3
