# Blender v3.1.2 OBJ File: ''
# www.blender.org
mtllib dhd.mtl
o origin_21
v 0.453001 1.099974 0.111392
v 0.458238 1.096931 0.108808
v 0.451247 1.098031 0.106368
v 0.430842 1.099289 0.095359
v 0.445629 1.082339 0.071446
v 0.426234 1.097241 0.088235
v 0.484748 1.105250 0.142901
v 0.477714 1.112343 0.152347
v 0.476073 1.106407 0.139458
v 0.433808 1.108195 0.090880
v 0.448595 1.091244 0.066968
v 0.417808 1.099683 0.087512
v 0.455962 1.122482 0.133957
v 0.452997 1.113577 0.138435
v 0.459187 1.118039 0.127258
v 0.428391 1.105788 0.082508
v 0.420774 1.108588 0.083034
v 0.456222 1.109134 0.131737
v 0.425426 1.096882 0.086987
v 0.429199 1.106146 0.083756
v 0.480679 1.121248 0.147868
v 0.439558 1.081364 0.065488
v 0.454213 1.106937 0.101889
v 0.487713 1.114155 0.138422
v 0.444256 1.086475 0.054612
v 0.442523 1.090269 0.061009
v 0.447441 1.095637 0.099087
v 0.450407 1.104542 0.094608
v 0.479038 1.115312 0.134979
v 0.457117 1.077423 0.069279
v 0.441290 1.077569 0.059090
v 0.440975 1.107814 0.094869
v 0.438010 1.098909 0.099348
v 0.455967 1.108879 0.106914
v 0.461203 1.105836 0.104329
v 0.460082 1.086329 0.064800
v 0.450634 1.109381 0.104380
v 0.447669 1.100476 0.108859
vt 0.626409 0.580158
vt 0.626487 0.580450
vt 0.626620 0.580143
vt 0.597580 0.557665
vt 0.598254 0.556925
vt 0.596272 0.554205
vt 0.618752 0.580420
vt 0.618771 0.580409
vt 0.618762 0.580418
vt 0.595211 0.554364
vt 0.596373 0.557744
vt 0.598761 0.557271
vt 0.596912 0.561348
vt 0.597331 0.563775
vt 0.595211 0.562441
vt 0.599848 0.556935
vt 0.599200 0.556149
vt 0.596551 0.561186
vt 0.598461 0.556935
vt 0.599055 0.556016
vt 0.617940 0.578887
vt 0.596775 0.553815
vt 0.627859 0.580815
vt 0.617940 0.582008
vt 0.597536 0.553200
vt 0.597008 0.552624
vt 0.626349 0.580841
vt 0.626762 0.582003
vt 0.620661 0.580669
vt 0.596002 0.553495
vt 0.596603 0.553479
vt 0.625979 0.580864
vt 0.625173 0.581541
vt 0.627385 0.579415
vt 0.626231 0.578946
vt 0.595426 0.553051
vt 0.626212 0.580351
vt 0.625173 0.579389
vn -0.2851 -0.8563 0.4307
vn -0.5610 -0.7886 0.2519
vn -0.5180 -0.6006 0.6091
vn -0.7735 -0.6295 -0.0737
vn -0.2180 -0.9599 0.1763
vn 0.7291 0.2157 0.6495
vn 0.8460 -0.0138 0.5330
vn 0.8460 -0.0138 0.5329
vn -0.7817 0.4677 0.4126
vn 0.9195 -0.1082 -0.3779
vn 0.7789 -0.4689 -0.4165
vn 0.7789 -0.4688 -0.4165
vn -0.2036 -0.3849 -0.9002
vn 0.8832 -0.0602 0.4651
vn 0.8832 -0.0601 0.4651
vn 0.7998 -0.4602 -0.3855
vn 0.7997 -0.4599 -0.3860
vn 0.7996 -0.4602 -0.3857
vn 0.8105 0.0245 0.5852
vn -0.8173 -0.1588 -0.5539
vn -0.3018 -0.2531 -0.9192
vn -0.8551 0.0243 -0.5178
vn 0.2158 -0.4951 -0.8416
vn 0.5265 -0.4388 -0.7282
vn 0.2605 -0.5017 -0.8249
vn -0.8818 0.1680 -0.4406
vn -0.8991 0.0832 -0.4297
vn -0.9312 0.1412 -0.3359
vn 0.8490 -0.4342 -0.3010
vn -0.9516 0.3067 -0.0201
vn 0.4602 -0.5164 -0.7222
vn -0.1635 -0.3993 -0.9021
vn 0.5351 0.2305 0.8127
vn 0.5352 0.2305 0.8127
vn 0.3133 0.3413 0.8862
vn 0.3133 0.3414 0.8862
vn -0.6463 0.5036 0.5734
vn -0.4973 0.5163 0.6972
vn -0.3296 0.5095 0.7948
vn -0.3297 0.5095 0.7948
vn -0.2852 -0.8562 0.4307
vn -0.2852 -0.8563 0.4307
vn -0.2856 -0.8558 0.4313
vn -0.1986 -0.8886 0.4134
vn 0.9852 -0.0237 0.1698
vn -0.7817 0.4678 0.4125
vn -0.2036 -0.3850 -0.9002
vn 0.7265 0.2250 -0.6493
vn 0.2605 -0.5016 -0.8249
vn -0.9313 0.1412 -0.3359
vn 0.8531 -0.1613 -0.4963
vn 0.5350 0.2305 0.8128
vn 0.4760 0.5032 0.7213
usemtl dhd.018
s 1
f 1/1/1 3/2/2 2/3/1
f 4/4/3 6/5/4 5/6/5
f 7/7/1 8/8/1 9/9/1
f 5/6/6 11/10/7 10/11/8
f 12/12/9 14/13/9 13/14/9
f 4/4/10 10/11/11 15/15/12
f 12/12/13 17/16/13 16/17/13
f 18/18/14 15/15/15 13/14/14
f 19/19/16 16/17/17 20/20/18
f 7/7/19 21/21/19 8/8/19
f 22/22/20 6/5/21 20/20/22
f 2/3/23 3/2/24 23/23/23
f 9/9/25 24/24/25 7/7/25
f 22/22/26 26/25/27 25/26/28
f 27/27/29 28/28/29 23/23/29
f 9/9/30 21/21/30 29/29/30
f 30/30/31 31/31/31 25/26/31
f 27/27/32 33/32/32 32/33/32
f 2/3/33 35/34/34 34/35/33
f 30/30/35 36/36/36 11/10/35
f 33/32/37 38/37/38 37/38/38
f 1/1/39 34/35/40 37/38/38
f 3/2/2 38/37/41 27/27/42
f 27/27/42 38/37/41 33/32/42
f 38/37/41 3/2/2 1/1/1
f 19/19/43 6/5/4 12/12/1
f 12/12/1 4/4/3 14/13/42
f 14/13/42 4/4/3 18/18/42
f 5/6/5 31/31/42 30/30/42
f 12/12/1 6/5/4 4/4/3
f 5/6/5 22/22/44 31/31/42
f 5/6/5 6/5/4 22/22/44
f 5/6/6 10/11/8 4/4/45
f 12/12/46 13/14/46 17/16/46
f 4/4/10 15/15/12 18/18/12
f 12/12/13 16/17/13 19/19/47
f 18/18/14 13/14/14 14/13/14
f 19/19/16 20/20/18 6/5/48
f 7/7/19 24/24/19 21/21/19
f 22/22/26 20/20/22 26/25/27
f 2/3/23 23/23/23 35/34/23
f 9/9/49 29/29/49 24/24/49
f 22/22/26 25/26/28 31/31/50
f 27/27/29 23/23/29 3/2/51
f 9/9/30 8/8/30 21/21/30
f 30/30/31 25/26/31 36/36/31
f 27/27/32 32/33/32 28/28/32
f 2/3/33 34/35/33 1/1/52
f 30/30/35 11/10/35 5/6/53
f 33/32/37 37/38/38 32/33/37
f 1/1/39 37/38/38 38/37/38
