# Blender v3.1.2 OBJ File: ''
# www.blender.org
mtllib dhd_light.mtl
o origin_21.001
v 0.454213 1.106937 0.101889
v 0.450634 1.109381 0.104380
v 0.450407 1.104542 0.094608
v 0.429199 1.106146 0.083756
v 0.442523 1.090269 0.061009
v 0.448595 1.091244 0.066968
v 0.487713 1.114155 0.138422
v 0.479038 1.115312 0.134979
v 0.480679 1.121248 0.147868
v 0.461203 1.105836 0.104329
v 0.455967 1.108879 0.106914
v 0.440975 1.107814 0.094869
v 0.455962 1.122482 0.133957
v 0.420774 1.108588 0.083034
v 0.433808 1.108195 0.090880
v 0.428391 1.105788 0.082508
v 0.459187 1.118039 0.127258
v 0.444256 1.086475 0.054612
v 0.460082 1.086329 0.064800
vt 0.512716 0.685877
vt 0.497277 0.673247
vt 0.522071 0.678894
vt 0.487116 0.617789
vt 0.427165 0.654310
vt 0.416582 0.636763
vt 0.576565 0.780452
vt 0.575271 0.759249
vt 0.605809 0.769168
vt 0.524041 0.692532
vt 0.513081 0.703275
vt 0.505865 0.651425
vt 0.592147 0.706349
vt 0.501641 0.632513
vt 0.492355 0.597501
vt 0.484561 0.615198
vt 0.572678 0.710322
vt 0.398280 0.637366
vt 0.411972 0.680114
vn 0.2851 0.8564 -0.4306
vn 0.2851 0.8563 -0.4307
vn 0.2851 0.8563 -0.4306
vn 0.2852 0.8564 -0.4305
vn 0.2849 0.8567 -0.4300
usemtl dhd_button_light.022
s 1
f 1/1/1 3/2/2 2/3/3
f 4/4/3 6/5/2 5/6/3
f 7/7/2 8/8/2 9/9/2
f 1/1/1 11/10/4 10/11/4
f 11/10/4 1/1/1 2/3/3
f 2/3/3 3/2/2 12/12/2
f 13/13/3 15/14/2 14/15/3
f 14/15/3 4/4/3 16/16/5
f 14/15/3 15/14/2 4/4/3
f 15/14/2 13/13/3 17/17/3
f 18/18/3 6/5/2 19/19/3
f 5/6/3 6/5/2 18/18/3
f 15/14/2 6/5/2 4/4/3
