# Blender v3.1.2 OBJ File: ''
# www.blender.org
mtllib dhd.mtl
o origin_16.002
v 0.468747 1.109910 0.141572
v 0.460782 1.105352 0.127237
v 0.452480 1.109567 0.130120
v 0.429563 1.105236 0.106336
v 0.432751 1.106383 0.110727
v 0.437479 1.100350 0.101863
v 0.444527 1.115957 0.137560
v 0.455445 1.118472 0.125641
v 0.447492 1.124862 0.133081
v 0.461879 1.074187 0.065997
v 0.444796 1.096663 0.075226
v 0.441831 1.087757 0.079705
v 0.424773 1.116728 0.126013
v 0.435717 1.115288 0.106248
v 0.452989 1.094075 0.075506
v 0.450024 1.085170 0.079984
v 0.440444 1.109256 0.097384
v 0.446623 1.099266 0.081613
v 0.443657 1.090361 0.086092
v 0.445689 1.103969 0.090344
v 0.442723 1.095063 0.094823
v 0.461013 1.124223 0.140762
v 0.458048 1.115318 0.145241
v 0.438338 1.094942 0.091678
v 0.441303 1.103847 0.087199
v 0.455713 1.083818 0.081064
v 0.458679 1.092723 0.076586
v 0.471712 1.118815 0.137094
v 0.436082 1.109248 0.094481
v 0.433117 1.100343 0.098959
v 0.460999 1.081686 0.080325
v 0.463964 1.090592 0.075847
v 0.463748 1.114257 0.122758
v 0.432529 1.114141 0.101857
v 0.463371 1.086738 0.067791
v 0.460405 1.077833 0.072270
v 0.427738 1.125633 0.121534
v 0.464844 1.083093 0.061519
vt 0.628864 0.548386
vt 0.628292 0.549011
vt 0.628771 0.548970
vt 0.627703 0.540583
vt 0.628224 0.541262
vt 0.627968 0.540354
vt 0.627801 0.548663
vt 0.626741 0.548743
vt 0.627851 0.550442
vt 0.629350 0.546058
vt 0.627865 0.544873
vt 0.626741 0.545671
vt 0.627754 0.539828
vt 0.628834 0.539897
vt 0.628405 0.544579
vt 0.627087 0.544158
vt 0.629173 0.540987
vt 0.628089 0.543202
vt 0.627066 0.543273
vt 0.628431 0.542225
vt 0.629436 0.541949
vt 0.628335 0.548205
vt 0.627917 0.547022
vt 0.627915 0.542306
vt 0.626941 0.542441
vt 0.629171 0.544734
vt 0.630225 0.544168
vt 0.629945 0.547376
vt 0.627755 0.541354
vt 0.626796 0.541446
vt 0.629579 0.545035
vt 0.630498 0.544809
vt 0.630002 0.550442
vt 0.626741 0.540496
vt 0.629508 0.545492
vt 0.630580 0.545957
vt 0.627453 0.538085
vt 0.630060 0.547022
vn -0.2851 -0.8563 0.4307
vn -0.2852 -0.8563 0.4307
vn -0.2895 -0.8780 0.3813
vn -0.2879 -0.8551 0.4313
vn -0.7225 -0.1033 -0.6836
vn -0.5915 -0.1964 -0.7820
vn -0.6320 -0.1699 -0.7561
vn 0.8725 -0.0459 0.4865
vn 0.8725 -0.0432 0.4867
vn 0.8710 -0.0439 0.4894
vn 0.1018 0.4197 0.9019
vn -0.4083 0.8796 0.2443
vn 0.8298 0.0395 0.5567
vn 0.8417 -0.0087 0.5399
vn -0.5462 0.7691 -0.3319
vn -0.7413 -0.0878 -0.6654
vn 0.7759 0.0899 0.6244
vn 0.7838 0.0503 0.6190
vn -0.4049 0.5149 0.7556
vn -0.7871 -0.0472 -0.6150
vn -0.7871 -0.0473 -0.6150
vn 0.6515 0.2712 0.7085
vn 0.7552 0.0759 0.6511
vn 0.4364 0.2840 0.8538
vn -0.8530 0.0219 -0.5214
vn -0.8531 0.0219 -0.5213
vn 0.2698 0.3594 0.8933
vn 0.8365 -0.4417 -0.3243
vn -0.9116 0.1119 -0.3956
vn -0.9134 0.1067 -0.3927
vn 0.9562 -0.2852 0.0660
vn 0.9683 -0.1220 0.2178
vn 0.9561 -0.2227 0.1903
vn -0.4395 -0.2825 -0.8527
vn -0.9388 0.2248 -0.2612
vn -0.9362 0.1523 -0.3169
vn 0.9376 -0.1559 0.3109
vn 0.9376 -0.1559 0.3108
vn -0.2851 -0.8563 0.4306
vn -0.2694 -0.9381 0.2176
vn -0.3525 -0.8709 0.3426
vn -0.2852 -0.8563 0.4306
vn -0.2851 -0.8563 0.4308
vn 0.6370 -0.7346 0.2337
vn -0.2916 -0.8723 0.3926
vn -0.2853 -0.8563 0.4306
vn -0.6319 -0.1698 -0.7562
vn 0.8725 -0.0458 0.4865
vn -0.7293 -0.0977 -0.6772
vn 0.4363 0.2841 0.8538
vn 0.4228 0.4768 0.7707
vn 0.8365 -0.4416 -0.3243
vn 0.9562 -0.2851 0.0660
vn -0.9361 0.1524 -0.3169
usemtl dhd.014
s 1
f 1/1/1 3/2/1 2/3/2
f 4/4/2 6/5/3 5/6/4
f 7/7/5 9/8/5 8/9/6
f 10/10/7 12/11/7 11/12/7
f 13/13/8 5/6/9 14/14/10
f 12/11/11 16/15/12 15/16/11
f 6/5/13 17/17/14 14/14/10
f 16/15/15 19/18/16 18/19/16
f 6/5/13 21/20/17 20/21/18
f 7/7/19 23/22/19 22/23/19
f 24/24/20 25/25/21 18/19/16
f 26/26/22 27/27/23 20/21/18
f 23/22/24 1/1/24 28/28/24
f 24/24/20 30/29/25 29/30/26
f 31/31/27 32/32/27 27/27/27
f 1/1/28 2/3/28 33/33/28
f 4/4/29 34/34/30 29/30/26
f 31/31/31 36/35/32 35/36/33
f 3/2/6 8/9/6 33/33/34
f 4/4/35 13/13/36 37/37/36
f 10/10/37 38/38/38 35/36/33
f 7/7/1 3/2/1 23/22/39
f 23/22/39 3/2/1 1/1/1
f 26/26/40 36/35/41 31/31/42
f 36/35/41 12/11/43 10/10/1
f 16/15/44 26/26/40 19/18/42
f 19/18/42 21/20/45 24/24/42
f 36/35/41 16/15/44 12/11/43
f 21/20/45 19/18/42 26/26/40
f 26/26/40 16/15/44 36/35/41
f 24/24/42 6/5/3 30/29/46
f 21/20/45 6/5/3 24/24/42
f 30/29/46 6/5/3 4/4/2
f 4/4/2 5/6/4 13/13/1
f 7/7/5 8/9/6 3/2/6
f 10/10/47 11/12/47 38/38/47
f 13/13/8 14/14/10 37/37/48
f 12/11/11 15/16/11 11/12/11
f 6/5/13 14/14/10 5/6/9
f 16/15/15 18/19/16 15/16/49
f 6/5/13 20/21/18 17/17/14
f 7/7/19 22/23/19 9/8/19
f 24/24/20 18/19/16 19/18/16
f 26/26/22 20/21/18 21/20/17
f 23/22/50 28/28/50 22/23/50
f 24/24/20 29/30/26 25/25/21
f 31/31/27 27/27/27 26/26/51
f 1/1/52 33/33/52 28/28/52
f 4/4/29 29/30/26 30/29/25
f 31/31/31 35/36/33 32/32/53
f 3/2/6 33/33/34 2/3/34
f 4/4/29 37/37/54 34/34/30
f 10/10/37 35/36/33 36/35/32
