# Blender v3.1.2 OBJ File: ''
# www.blender.org
mtllib dhd_light.mtl
o origin_16.003
v 0.455445 1.118472 0.125641
v 0.463748 1.114257 0.122758
v 0.471712 1.118815 0.137094
v 0.463371 1.086738 0.067791
v 0.458679 1.092723 0.076586
v 0.452989 1.094075 0.075506
v 0.461013 1.124223 0.140762
v 0.447492 1.124862 0.133081
v 0.435717 1.115288 0.106248
v 0.427738 1.125633 0.121534
v 0.432529 1.114141 0.101857
v 0.436082 1.109248 0.094481
v 0.440444 1.109256 0.097384
v 0.441303 1.103847 0.087199
v 0.445689 1.103969 0.090344
v 0.446623 1.099266 0.081613
v 0.444796 1.096663 0.075226
v 0.464844 1.083093 0.061519
v 0.463964 1.090592 0.075847
vt 0.571780 0.700941
vt 0.586677 0.743716
vt 0.557551 0.718472
vt 0.417076 0.689378
vt 0.445783 0.669179
vt 0.443862 0.683037
vt 0.604809 0.721271
vt 0.597136 0.686534
vt 0.539410 0.645257
vt 0.530900 0.635463
vt 0.584953 0.634904
vt 0.512764 0.651530
vt 0.508988 0.639787
vt 0.485842 0.648081
vt 0.490272 0.660008
vt 0.466941 0.657535
vt 0.451883 0.649828
vt 0.399447 0.689536
vt 0.437561 0.694966
vn 0.2851 0.8563 -0.4307
vn 0.2852 0.8563 -0.4307
vn 0.2851 0.8563 -0.4306
vn 0.2852 0.8563 -0.4306
usemtl dhd_button_light.015
s 1
f 1/1/1 3/2/2 2/3/2
f 4/4/3 6/5/4 5/6/4
f 3/2/2 1/1/1 7/7/2
f 7/7/2 1/1/1 8/8/1
f 9/9/1 11/10/1 10/11/1
f 11/10/1 13/12/1 12/13/1
f 12/13/1 13/12/1 14/14/1
f 13/12/1 15/15/1 14/14/1
f 14/14/1 15/15/1 16/16/1
f 16/16/1 5/6/4 6/5/4
f 15/15/1 5/6/4 16/16/1
f 6/5/4 4/4/3 17/17/4
f 17/17/4 4/4/3 18/18/1
f 4/4/3 5/6/4 19/19/1
f 13/12/1 11/10/1 9/9/1
