# Blender v3.1.2 OBJ File: ''
# www.blender.org
mtllib dhd.mtl
o origin_17
v 0.448127 1.089661 0.087658
v 0.440009 1.107132 0.117023
v 0.409215 1.122121 0.126435
v 0.496313 1.080504 0.101356
v 0.483604 1.099032 0.105632
v 0.480638 1.090127 0.110111
v 0.432303 1.088012 0.049755
v 0.429337 1.079107 0.054233
v 0.473008 1.101341 0.127357
v 0.442974 1.116038 0.112544
v 0.475974 1.110246 0.122878
v 0.451093 1.098566 0.083180
v 0.499279 1.089409 0.096877
v 0.478991 1.108240 0.145036
v 0.412180 1.131026 0.121957
v 0.481957 1.117146 0.140557
vt 0.595204 0.546727
vt 0.595100 0.542405
vt 0.597561 0.541069
vt 0.594090 0.550940
vt 0.592267 0.550462
vt 0.593351 0.550263
vt 0.599848 0.547519
vt 0.598946 0.547169
vt 0.593172 0.540088
vt 0.594049 0.542763
vt 0.592267 0.540136
vt 0.593993 0.546467
vt 0.593947 0.552624
vt 0.593567 0.539377
vt 0.598472 0.540523
vt 0.593031 0.538085
vn 0.2928 -0.8529 0.4322
vn -0.6010 -0.5342 0.5946
vn -0.2852 -0.8563 0.4307
vn 0.5715 0.2088 0.7936
vn -0.9297 0.1380 -0.3413
vn 0.1812 -0.4894 -0.8530
vn 0.1813 -0.4894 -0.8530
vn -0.1782 0.8984 0.4015
vn -0.4916 0.5164 0.7012
vn 0.5000 -0.5163 -0.6953
vn -0.1353 0.4807 0.8664
vn 0.9101 -0.3829 -0.1586
vn 0.6750 0.2346 0.6995
vn 0.9302 -0.1388 0.3398
vn 0.9924 -0.0204 -0.1212
vn -0.2851 -0.8563 0.4307
vn -0.9298 0.1379 -0.3413
vn 0.5566 -0.1936 -0.8079
vn -0.4916 0.5164 0.7011
vn 0.5000 -0.5162 -0.6954
vn -0.1353 0.4808 0.8664
vn 0.9302 -0.1389 0.3398
usemtl dhd.021
s 1
f 1/1/1 2/2/2 3/3/3
f 4/4/4 5/5/4 6/6/4
f 3/3/5 7/7/5 8/8/5
f 9/9/6 10/10/7 11/11/6
f 1/1/8 5/5/9 12/12/9
f 8/8/10 13/13/10 4/4/10
f 14/14/11 15/15/11 3/3/11
f 9/9/12 16/16/12 14/14/12
f 1/1/13 10/10/14 2/2/15
f 8/8/16 4/4/16 1/1/1
f 4/4/16 6/6/16 1/1/1
f 9/9/16 14/14/16 2/2/2
f 14/14/16 3/3/3 2/2/2
f 8/8/16 1/1/1 3/3/3
f 4/4/4 13/13/4 5/5/4
f 3/3/17 15/15/17 7/7/17
f 9/9/6 2/2/18 10/10/7
f 1/1/8 6/6/19 5/5/9
f 8/8/20 7/7/20 13/13/20
f 14/14/21 16/16/21 15/15/21
f 9/9/12 11/11/12 16/16/12
f 1/1/13 12/12/22 10/10/22
