# Blender v3.1.2 OBJ File: ''
# www.blender.org
mtllib dhd_light.mtl
o origin_17.001
v 0.412180 1.131026 0.121957
v 0.451093 1.098566 0.083180
v 0.432303 1.088012 0.049755
v 0.481957 1.117146 0.140557
v 0.442974 1.116038 0.112544
v 0.475974 1.110246 0.122878
v 0.483604 1.099032 0.105632
v 0.499279 1.089409 0.096877
vt 0.599336 0.598896
vt 0.467263 0.668814
vt 0.395348 0.606266
vt 0.586673 0.768527
vt 0.549277 0.665444
vt 0.547606 0.746390
vt 0.497742 0.755277
vt 0.462549 0.786713
vn 0.2851 0.8563 -0.4307
vn 0.2852 0.8563 -0.4307
usemtl dhd_button_light.025
s 1
f 1/1/1 2/2/1 3/3/1
f 1/1/1 4/4/2 5/5/1
f 4/4/2 6/6/2 5/5/1
f 7/7/1 8/8/1 2/2/1
f 8/8/1 3/3/1 2/2/1
f 1/1/1 5/5/1 2/2/1
