# Blender v3.1.2 OBJ File: ''
# www.blender.org
mtllib dhd.mtl
o origin_19.003
v 0.419675 1.112408 0.114050
v 0.411603 1.114942 0.113742
v 0.414397 1.118255 0.122181
v 0.481402 1.097474 0.101077
v 0.422641 1.121314 0.109572
v 0.495967 1.077459 0.095072
v 0.508342 1.081295 0.086745
v 0.505376 1.072390 0.091224
v 0.417350 1.111709 0.111120
v 0.420316 1.120614 0.106641
v 0.493839 1.086273 0.087040
v 0.490873 1.077368 0.091519
v 0.417192 1.106748 0.101151
v 0.420157 1.115653 0.096672
v 0.488521 1.086790 0.084547
v 0.485556 1.077885 0.089026
v 0.405583 1.124780 0.105171
v 0.402618 1.115875 0.109650
v 0.481113 1.080468 0.091220
v 0.484078 1.089373 0.086742
v 0.414568 1.123847 0.109264
v 0.482384 1.081765 0.094642
v 0.485350 1.090671 0.090163
v 0.484358 1.086947 0.106251
v 0.484086 1.099421 0.106724
v 0.487323 1.095852 0.101772
v 0.417363 1.127160 0.117702
v 0.478208 1.093473 0.091006
v 0.475242 1.084568 0.095485
v 0.489348 1.081934 0.099588
v 0.492313 1.090840 0.095110
v 0.481120 1.090516 0.111203
v 0.478436 1.088569 0.105556
v 0.498932 1.086364 0.090594
vt 0.611585 0.552645
vt 0.612436 0.552354
vt 0.612026 0.551961
vt 0.610599 0.552822
vt 0.610612 0.558833
vt 0.612043 0.561086
vt 0.612067 0.561468
vt 0.612111 0.562132
vt 0.611476 0.552266
vt 0.610519 0.552520
vt 0.611639 0.561002
vt 0.611180 0.561534
vt 0.611065 0.551774
vt 0.610361 0.551341
vt 0.611337 0.560835
vt 0.610855 0.561253
vt 0.611608 0.551364
vt 0.611872 0.550632
vt 0.611207 0.560622
vt 0.610581 0.560861
vt 0.612671 0.551232
vt 0.611339 0.560348
vt 0.610478 0.560509
vt 0.612135 0.559532
vt 0.613054 0.559682
vt 0.613162 0.559098
vt 0.613387 0.551920
vt 0.611102 0.559852
vt 0.610361 0.559905
vt 0.612045 0.560396
vt 0.612938 0.560515
vt 0.612264 0.558989
vt 0.611706 0.559108
vt 0.612835 0.561296
vn 0.0629 -0.7784 0.6246
vn -0.2852 -0.8563 0.4306
vn -0.2527 -0.9656 0.0610
vn -0.0332 -0.0484 -0.9983
vn -0.2741 -0.3576 -0.8927
vn -0.2742 -0.3577 -0.8927
vn 0.3949 0.1553 0.9055
vn 0.4823 0.2601 0.8365
vn 0.4827 0.2590 0.8366
vn 0.8931 -0.2730 -0.3577
vn 0.7386 -0.4827 -0.4706
vn 0.7386 -0.4827 -0.4707
vn -0.1563 -0.4018 -0.9023
vn 0.1629 -0.6075 -0.7775
vn 0.0868 -0.4706 -0.8781
vn 0.9584 -0.2614 0.1148
vn 0.1731 -0.6414 -0.7474
vn 0.3243 -0.5090 -0.7973
vn -0.5843 -0.2009 -0.7863
vn -0.5353 -0.2305 -0.8126
vn -0.5354 -0.2304 -0.8126
vn -0.5353 -0.2304 -0.8126
vn -0.3559 0.7734 0.5246
vn -0.3129 0.5078 0.8026
vn -0.7497 0.4885 -0.4465
vn -0.9005 0.3933 0.1856
vn -0.9005 0.3932 0.1856
vn 0.8248 0.0346 0.5643
vn 0.8231 0.0116 0.5678
vn 0.8362 -0.0026 0.5485
vn -0.7622 0.4002 0.5088
vn -0.9121 0.3805 0.1526
vn -0.7119 0.0563 -0.7001
vn -0.2499 -0.3674 -0.8959
vn 0.7223 0.2109 0.6587
vn 0.7277 0.0990 0.6787
vn 0.2921 0.3503 0.8899
vn -0.9158 0.3760 0.1411
vn -0.8054 0.4075 -0.4305
vn 0.5659 0.2688 0.7794
vn 0.5594 0.2162 0.8002
vn -0.3531 -0.8504 0.3901
vn -0.4346 -0.7366 0.5182
vn -0.2851 -0.8562 0.4308
vn 0.2077 -0.5946 0.7767
vn -0.2852 -0.8563 0.4305
vn -0.0012 -0.5484 0.8362
vn -0.3265 -0.8889 0.3215
vn -0.2851 -0.8563 0.4307
vn -0.2987 -0.8608 0.4120
vn -0.5424 -0.7404 0.3969
vn -0.3741 0.2165 -0.9018
vn 0.4814 0.2598 0.8371
vn 0.4804 -0.4096 -0.7756
vn -0.1573 -0.4014 -0.9023
vn 0.9800 -0.1404 -0.1412
vn -0.3128 0.5079 0.8026
vn -0.9006 0.3931 0.1855
vn 0.8361 -0.0026 0.5486
vn -0.7113 0.6997 0.0662
vn -0.9121 0.3805 0.1527
vn 0.1115 0.1747 -0.9783
vn -0.2499 -0.3673 -0.8959
usemtl dhd.012
s 1
f 1/1/1 3/2/2 2/3/3
f 1/1/4 5/4/5 4/5/6
f 6/6/7 8/7/8 7/8/9
f 9/9/10 10/10/11 5/4/12
f 8/7/13 12/11/14 11/12/15
f 13/13/16 14/14/16 10/10/16
f 12/11/17 16/15/18 15/16/18
f 13/13/19 18/17/19 17/18/19
f 19/19/20 20/20/21 15/16/22
f 2/3/23 21/21/24 17/18/24
f 22/22/25 23/23/26 20/20/27
f 24/24/28 26/25/29 25/26/30
f 2/3/31 3/2/32 27/27/32
f 22/22/33 29/28/34 28/29/34
f 30/30/35 31/31/36 26/25/29
f 32/32/37 25/26/37 27/27/37
f 29/28/38 33/33/39 4/5/38
f 30/30/35 6/6/40 34/34/41
f 6/6/42 12/11/43 8/7/44
f 12/11/43 22/22/45 16/15/46
f 16/15/46 22/22/45 19/19/46
f 22/22/45 33/33/47 29/28/2
f 30/30/48 12/11/43 6/6/42
f 3/2/2 1/1/1 32/32/49
f 32/32/49 33/33/47 24/24/50
f 24/24/50 22/22/45 30/30/48
f 30/30/48 22/22/45 12/11/43
f 22/22/45 24/24/50 33/33/47
f 13/13/49 2/3/3 18/17/49
f 9/9/51 2/3/3 13/13/49
f 32/32/49 1/1/1 33/33/47
f 1/1/1 2/3/3 9/9/51
f 1/1/4 4/5/6 33/33/52
f 6/6/40 7/8/53 34/34/41
f 9/9/10 5/4/12 1/1/54
f 8/7/13 11/12/15 7/8/55
f 13/13/16 10/10/16 9/9/56
f 12/11/14 15/16/18 11/12/15
f 13/13/19 17/18/19 14/14/19
f 19/19/20 15/16/22 16/15/20
f 2/3/23 17/18/24 18/17/57
f 22/22/25 20/20/27 19/19/58
f 24/24/28 25/26/30 32/32/59
f 2/3/60 27/27/61 21/21/61
f 22/22/62 28/29/63 23/23/63
f 30/30/35 26/25/29 24/24/28
f 32/32/37 27/27/37 3/2/37
f 29/28/38 4/5/38 28/29/38
f 30/30/35 34/34/41 31/31/36
