# Blender v3.1.2 OBJ File: ''
# www.blender.org
mtllib dhd.mtl
o origin_28.002
v 0.451576 1.097668 0.105863
v 0.425310 1.101384 0.095861
v 0.427472 1.097359 0.089289
v 0.483307 1.091198 0.114008
v 0.494803 1.093279 0.125757
v 0.497825 1.085895 0.113076
v 0.445581 1.110969 0.128340
v 0.449302 1.116917 0.142630
v 0.434893 1.118838 0.136910
v 0.456705 1.074982 0.064151
v 0.460782 1.080766 0.078352
v 0.470860 1.073164 0.069909
v 0.493605 1.068481 0.075657
v 0.491895 1.084123 0.081478
v 0.496571 1.077386 0.071178
v 0.448546 1.119874 0.123861
v 0.452267 1.125822 0.138151
v 0.428275 1.110289 0.091382
v 0.488930 1.075218 0.085957
v 0.457151 1.102629 0.095270
v 0.437859 1.127743 0.132431
v 0.472276 1.109102 0.142302
v 0.454541 1.106573 0.101384
v 0.454186 1.093724 0.099748
v 0.479384 1.105261 0.139373
v 0.492770 1.113012 0.139498
v 0.489804 1.104107 0.143977
v 0.473266 1.123907 0.148247
v 0.475242 1.118007 0.137824
v 0.431771 1.104107 0.081404
v 0.430438 1.106264 0.084811
v 0.459670 1.083887 0.059672
v 0.463747 1.089671 0.073873
v 0.460237 1.094895 0.106083
v 0.482349 1.114167 0.134894
v 0.470301 1.115002 0.152726
v 0.412110 1.097634 0.079664
v 0.428806 1.095202 0.085883
v 0.473825 1.082069 0.065430
v 0.492693 1.077229 0.092447
v 0.463202 1.103800 0.101604
v 0.497768 1.102184 0.121278
v 0.410876 1.114946 0.089120
v 0.415076 1.106539 0.075185
v 0.506966 1.083663 0.090542
v 0.495658 1.086134 0.087968
v 0.486272 1.100103 0.109529
v 0.424203 1.103744 0.099820
v 0.407910 1.106040 0.093599
v 0.504000 1.074758 0.095021
v 0.500791 1.094800 0.108597
v 0.427169 1.112649 0.095342
vt 0.626520 0.556727
vt 0.624877 0.559346
vt 0.624299 0.559087
vt 0.604606 0.580228
vt 0.604539 0.580344
vt 0.604663 0.580335
vt 0.635033 0.567568
vt 0.635031 0.567547
vt 0.635036 0.567558
vt 0.623273 0.580141
vt 0.623278 0.580133
vt 0.623263 0.580143
vt 0.623963 0.551532
vt 0.623320 0.552383
vt 0.623416 0.551183
vt 0.635953 0.569285
vt 0.633537 0.567563
vt 0.625691 0.559926
vt 0.624261 0.552207
vt 0.624633 0.556204
vt 0.635953 0.565629
vt 0.631076 0.556055
vt 0.627235 0.557775
vt 0.625895 0.556290
vt 0.631113 0.555450
vt 0.632117 0.554454
vt 0.631550 0.555277
vt 0.632387 0.556441
vt 0.631382 0.556892
vt 0.623320 0.558942
vt 0.623524 0.558575
vt 0.622373 0.578946
vt 0.622373 0.582030
vt 0.626706 0.555748
vt 0.631094 0.554528
vt 0.631784 0.555927
vt 0.623863 0.559926
vt 0.623978 0.559220
vt 0.625173 0.579775
vt 0.624705 0.551913
vt 0.627366 0.554541
vt 0.606433 0.580379
vt 0.624203 0.560832
vt 0.623380 0.560157
vt 0.624978 0.550632
vt 0.625442 0.551478
vt 0.603684 0.578757
vt 0.624856 0.559797
vt 0.624291 0.560184
vt 0.624594 0.551434
vt 0.603684 0.581938
vt 0.625480 0.560266
vn -0.0730 -0.8628 0.5003
vn -0.6305 -0.7497 0.2010
vn -0.4523 -0.8918 -0.0054
vn -0.2851 -0.8563 0.4307
vn -0.2852 -0.8563 0.4306
vn -0.8903 0.0701 -0.4500
vn -0.8902 0.0702 -0.4500
vn 0.9296 -0.3566 -0.0936
vn -0.4159 0.5731 0.7061
vn -0.2456 0.4996 0.8307
vn 0.1676 0.6004 0.7819
vn -0.5995 -0.1351 -0.7889
vn -0.4742 -0.2644 -0.8398
vn -0.4742 -0.2645 -0.8397
vn -0.6790 -0.1367 -0.7213
vn -0.8878 0.4348 0.1512
vn -0.8316 0.4444 0.3330
vn -0.7182 0.6321 0.2908
vn 0.6675 -0.3991 -0.6286
vn 0.2556 -0.5009 -0.8269
vn 0.0831 -0.4092 -0.9087
vn -0.2606 0.5017 0.8249
vn 0.4800 -0.4812 -0.7335
vn 0.3009 -0.5066 -0.8080
vn -0.8844 0.3535 -0.3048
vn -0.9446 0.1748 -0.2779
vn -0.9445 0.1748 -0.2780
vn 0.9690 0.2325 0.0835
vn 0.9056 -0.0936 0.4137
vn 0.9056 -0.0936 0.4136
vn -0.9234 0.3658 0.1161
vn 0.9785 -0.2016 0.0438
vn 0.8289 -0.4459 -0.3379
vn 0.8477 -0.2850 -0.4475
vn 0.5078 0.2461 0.8255
vn 0.2379 -0.4985 -0.8336
vn 0.2695 -0.5028 -0.8213
vn 0.3587 0.3700 0.8570
vn 0.4896 0.2562 0.8335
vn 0.6357 0.5774 0.5123
vn -0.6613 0.5010 0.5583
vn -0.9253 0.1288 -0.3566
vn 0.6916 0.1273 0.7110
vn 0.0007 0.5980 0.8015
vn -0.0961 0.4726 0.8760
vn -0.1990 -0.3867 -0.9005
vn -0.2466 0.4997 0.8303
vn 0.8437 -0.4375 -0.3111
vn 0.9370 -0.1545 0.3133
vn 0.8923 0.2889 0.3468
vn 0.9296 -0.1376 0.3420
vn -0.4411 -0.8409 0.3136
vn -0.2852 -0.8563 0.4307
vn -0.1874 -0.7920 0.5810
vn -0.0532 -0.9978 0.0384
vn -0.1225 -0.9225 0.3661
vn -0.1427 -0.9241 0.3546
vn -0.0838 -0.8643 0.4960
vn -0.2851 -0.8563 0.4306
vn -0.8049 0.1946 -0.5606
vn -0.3526 -0.1156 -0.9286
vn 0.3008 -0.5065 -0.8080
vn -0.9446 0.1747 -0.2779
vn 0.9056 -0.0934 0.4138
vn 0.5078 0.2461 0.8256
vn 0.6916 0.1273 0.7109
vn -0.1990 -0.3866 -0.9005
vn 0.9370 -0.1544 0.3133
vn 0.9297 -0.1377 0.3417
usemtl dhd.013
s 1
f 1/1/1 2/2/2 3/3/3
f 4/4/4 6/5/4 5/6/4
f 7/7/4 8/8/4 9/9/4
f 10/10/5 12/11/5 11/12/5
f 13/13/6 14/14/6 15/15/7
f 8/8/8 16/16/8 17/17/8
f 1/1/9 18/18/10 2/2/11
f 19/19/12 20/20/13 14/14/14
f 7/7/15 21/21/15 16/16/15
f 22/22/16 23/23/17 1/1/18
f 3/3/19 20/20/20 24/24/21
f 8/8/22 21/21/22 9/9/22
f 25/25/23 26/26/24 27/27/24
f 22/22/25 28/28/26 29/29/27
f 3/3/28 30/30/29 31/31/30
f 11/12/31 33/32/31 32/33/31
f 34/34/32 35/35/33 25/25/34
f 27/27/35 28/28/35 36/36/35
f 37/37/36 30/30/36 38/38/36
f 10/10/37 32/33/37 39/39/37
f 40/40/38 41/41/39 34/34/40
f 4/4/41 5/6/41 42/42/41
f 37/37/42 43/43/42 44/44/42
f 11/12/43 12/11/43 39/39/43
f 40/40/44 45/45/45 46/46/45
f 6/5/46 4/4/46 47/47/46
f 48/48/47 43/43/47 49/49/47
f 13/13/48 45/45/48 50/50/48
f 5/6/49 6/5/49 51/51/49
f 2/2/50 52/52/51 48/48/51
f 25/25/52 27/27/53 22/22/54
f 27/27/53 36/36/5 22/22/54
f 34/34/55 25/25/52 22/22/54
f 34/34/55 22/22/54 1/1/1
f 13/13/53 50/50/53 19/19/56
f 50/50/53 40/40/57 19/19/56
f 40/40/57 34/34/55 19/19/56
f 34/34/55 1/1/1 24/24/58
f 2/2/2 48/48/4 49/49/59
f 24/24/58 19/19/56 34/34/55
f 2/2/2 49/49/59 37/37/59
f 37/37/59 38/38/59 3/3/3
f 2/2/2 37/37/59 3/3/3
f 3/3/3 24/24/58 1/1/1
f 13/13/6 19/19/60 14/14/6
f 8/8/8 7/7/8 16/16/8
f 1/1/9 23/23/10 18/18/10
f 19/19/12 24/24/61 20/20/13
f 7/7/15 9/9/15 21/21/15
f 22/22/16 29/29/17 23/23/17
f 3/3/19 31/31/20 20/20/20
f 8/8/22 17/17/22 21/21/22
f 25/25/23 35/35/62 26/26/62
f 22/22/25 36/36/63 28/28/26
f 3/3/28 38/38/64 30/30/29
f 11/12/31 32/33/31 10/10/31
f 34/34/32 41/41/33 35/35/33
f 27/27/65 26/26/65 28/28/65
f 37/37/36 44/44/36 30/30/36
f 10/10/37 39/39/37 12/11/37
f 40/40/38 46/46/39 41/41/39
f 4/4/41 42/42/41 47/47/41
f 37/37/42 49/49/42 43/43/42
f 11/12/66 39/39/66 33/32/66
f 40/40/44 50/50/45 45/45/45
f 6/5/67 47/47/67 51/51/67
f 48/48/47 52/52/47 43/43/47
f 13/13/48 15/15/48 45/45/48
f 5/6/68 51/51/68 42/42/68
f 2/2/50 18/18/69 52/52/69
