# Blender v3.1.2 OBJ File: ''
# www.blender.org
mtllib dhd_light.mtl
o origin_28.003
v 0.454541 1.106573 0.101384
v 0.457151 1.102629 0.095270
v 0.430438 1.106264 0.084811
v 0.486272 1.100103 0.109529
v 0.500791 1.094800 0.108597
v 0.497768 1.102184 0.121278
v 0.448546 1.119874 0.123861
v 0.437859 1.127743 0.132431
v 0.452267 1.125822 0.138151
v 0.459670 1.083887 0.059672
v 0.473825 1.082069 0.065430
v 0.463747 1.089671 0.073873
v 0.495658 1.086134 0.087968
v 0.506966 1.083663 0.090542
v 0.491895 1.084123 0.081478
v 0.496571 1.077386 0.071178
v 0.463202 1.103800 0.101604
v 0.473266 1.123907 0.148247
v 0.492770 1.113012 0.139498
v 0.475242 1.118007 0.137824
v 0.482349 1.114167 0.134894
v 0.431771 1.104107 0.081404
v 0.415076 1.106539 0.075185
v 0.428275 1.110289 0.091382
v 0.410876 1.114946 0.089120
v 0.427169 1.112649 0.095342
vt 0.511152 0.686375
vt 0.493330 0.689241
vt 0.488804 0.621285
vt 0.505403 0.763263
vt 0.525467 0.794932
vt 0.491054 0.795740
vt 0.573138 0.684197
vt 0.603702 0.664074
vt 0.605727 0.700046
vt 0.398865 0.676436
vt 0.432613 0.693433
vt 0.402299 0.712528
vt 0.442736 0.774155
vt 0.440078 0.801152
vt 0.429127 0.762363
vt 0.398657 0.768035
vt 0.504468 0.706486
vt 0.612981 0.752676
vt 0.575012 0.792313
vt 0.585525 0.752057
vt 0.572289 0.766682
vt 0.478852 0.622557
vt 0.476746 0.579569
vt 0.507602 0.619803
vt 0.516519 0.577489
vt 0.518731 0.619374
vn 0.2851 0.8563 -0.4307
vn 0.2851 0.8563 -0.4306
vn 0.2852 0.8563 -0.4306
usemtl dhd_button_light.014
s 1
f 1/1/1 2/2/1 3/3/2
f 4/4/1 6/5/1 5/6/1
f 7/7/1 8/8/1 9/9/1
f 10/10/2 12/11/2 11/12/2
f 13/13/1 14/14/1 15/15/1
f 14/14/1 16/16/1 15/15/1
f 17/17/1 13/13/1 15/15/1
f 17/17/1 15/15/1 2/2/1
f 18/18/2 19/19/2 20/20/2
f 19/19/2 21/21/2 20/20/2
f 21/21/2 17/17/1 20/20/2
f 17/17/1 2/2/1 1/1/1
f 3/3/2 22/22/2 23/23/3
f 1/1/1 20/20/2 17/17/1
f 3/3/2 23/23/3 24/24/3
f 23/23/3 25/25/3 24/24/3
f 25/25/3 26/26/3 24/24/3
f 24/24/3 1/1/1 3/3/2
