# Blender v3.1.2 OBJ File: ''
# www.blender.org
mtllib dhd.mtl
o origin_29
v 0.441056 1.106225 0.115912
v 0.418104 1.114042 0.116257
v 0.433929 1.110731 0.120153
v 0.493011 1.089785 0.117624
v 0.486188 1.099059 0.107398
v 0.483223 1.090154 0.111877
v 0.414150 1.116045 0.117623
v 0.407056 1.122974 0.102554
v 0.417116 1.124950 0.113144
v 0.485634 1.105542 0.119920
v 0.495976 1.098690 0.113145
v 0.404090 1.114069 0.107033
v 0.426615 1.103489 0.100911
v 0.436110 1.108433 0.092879
v 0.433144 1.099528 0.097358
v 0.449793 1.111605 0.108245
v 0.444021 1.115130 0.111433
v 0.443717 1.104080 0.089261
v 0.440751 1.095175 0.093739
v 0.407786 1.109748 0.100887
v 0.446827 1.102700 0.112724
v 0.448903 1.090348 0.089539
v 0.451869 1.099253 0.085060
v 0.414463 1.106027 0.097911
v 0.410751 1.118653 0.096409
v 0.460563 1.093323 0.079026
v 0.457597 1.084418 0.083505
v 0.433073 1.106740 0.087502
v 0.417429 1.114932 0.093433
v 0.462118 1.087678 0.092980
v 0.465084 1.096583 0.088501
v 0.445467 1.088173 0.082938
v 0.430107 1.097835 0.091981
v 0.448149 1.108896 0.101770
v 0.429580 1.112394 0.096432
v 0.469941 1.098981 0.096484
v 0.466975 1.090075 0.100963
v 0.460303 1.078705 0.073936
v 0.448433 1.097078 0.078459
v 0.445183 1.099991 0.106248
v 0.454520 1.104891 0.098026
v 0.473917 1.092387 0.110154
v 0.476883 1.101292 0.105675
v 0.462260 1.080762 0.079323
v 0.463268 1.087610 0.069457
v 0.464503 1.095958 0.111021
v 0.451555 1.095986 0.102505
v 0.481540 1.102574 0.111309
v 0.478574 1.093669 0.115787
v 0.468579 1.092081 0.081863
v 0.465225 1.089667 0.074844
v 0.435904 1.123581 0.122861
v 0.467468 1.104863 0.106542
v 0.482669 1.096636 0.124399
v 0.471039 1.086522 0.096588
v 0.465614 1.083175 0.086342
v 0.432939 1.114676 0.127340
v 0.480144 1.097691 0.100676
v 0.474004 1.095427 0.092109
v 0.436894 1.119637 0.115674
v 0.477179 1.088786 0.105154
v 0.421069 1.122947 0.111778
vt 0.598280 0.566259
vt 0.598380 0.565577
vt 0.597529 0.564567
vt 0.599010 0.572901
vt 0.598753 0.572715
vt 0.598557 0.573061
vt 0.597372 0.564387
vt 0.597474 0.563775
vt 0.596483 0.564230
vt 0.599012 0.573239
vt 0.599475 0.572844
vt 0.597068 0.564422
vt 0.596775 0.568688
vt 0.596982 0.569427
vt 0.597624 0.569366
vt 0.597322 0.566126
vt 0.597150 0.566627
vt 0.597178 0.569973
vt 0.597712 0.569822
vt 0.595808 0.568654
vt 0.598184 0.567029
vt 0.597359 0.570508
vt 0.597888 0.570323
vt 0.595947 0.568789
vt 0.595211 0.568685
vt 0.597572 0.571240
vt 0.598127 0.570936
vt 0.595475 0.569098
vt 0.596129 0.569899
vt 0.598083 0.571669
vt 0.598439 0.571329
vt 0.597010 0.570681
vt 0.596649 0.569601
vt 0.597632 0.568927
vt 0.598271 0.568393
vt 0.598411 0.571979
vt 0.598758 0.571647
vt 0.597139 0.571526
vt 0.596506 0.570863
vt 0.598146 0.567744
vt 0.598725 0.568378
vt 0.598769 0.572344
vt 0.599130 0.572054
vt 0.597322 0.571591
vt 0.596826 0.571804
vt 0.598998 0.567790
vt 0.598605 0.567917
vt 0.598953 0.572572
vt 0.599347 0.572335
vt 0.597054 0.571971
vt 0.597372 0.572186
vt 0.599422 0.568001
vt 0.599475 0.565150
vt 0.599114 0.572746
vt 0.598129 0.572136
vt 0.597659 0.571772
vt 0.598756 0.565491
vt 0.597825 0.572524
vt 0.598212 0.572833
vt 0.598727 0.564732
vt 0.598498 0.572469
vt 0.597848 0.563923
vn -0.0324 -0.8417 0.5390
vn -0.7965 -0.5685 0.2059
vn -0.4495 -0.8453 0.2888
vn 0.4193 -0.5155 -0.7473
vn 0.6604 -0.4135 -0.6268
vn 0.5657 -0.5130 -0.6456
vn -0.6729 0.4988 0.5462
vn -0.6729 0.4989 0.5462
vn 0.6192 0.1785 0.7647
vn -0.1182 -0.6052 -0.7873
vn 0.1088 -0.4754 -0.8730
vn 0.9578 0.2870 0.0188
vn 0.5367 0.2450 0.8075
vn 0.5443 0.2252 0.8081
vn -0.3910 -0.0407 -0.9195
vn -0.5681 -0.2109 -0.7954
vn -0.5682 -0.2109 -0.7954
vn 0.5361 0.2299 0.8122
vn -0.1715 0.4877 0.8560
vn -0.5236 0.8246 0.2141
vn 0.5937 0.2070 0.7776
vn 0.5931 0.1953 0.7811
vn -0.5133 -0.2215 -0.8291
vn -0.5060 -0.2471 -0.8264
vn 0.6783 0.1775 0.7130
vn 0.2273 0.6946 0.6825
vn 0.6364 0.1668 0.7531
vn -0.4784 -0.2535 -0.8408
vn -0.4841 -0.2590 -0.8358
vn -0.5262 -0.2357 -0.8171
vn -0.8419 0.4385 0.3144
vn -0.8657 0.4229 0.2676
vn -0.5927 -0.1913 -0.7824
vn -0.4769 -0.2157 -0.8521
vn 0.7501 0.1236 -0.6497
vn 0.1561 -0.4848 -0.8606
vn -0.7863 0.4659 0.4057
vn -0.5962 -0.1934 -0.7792
vn -0.5917 -0.1962 -0.7819
vn -0.2984 -0.1572 -0.9414
vn -0.5866 -0.1993 -0.7850
vn -0.5866 -0.1994 -0.7850
vn -0.7398 0.4823 0.4691
vn -0.7398 0.4824 0.4691
vn 0.8764 -0.4585 -0.1476
vn 0.9030 -0.3906 -0.1789
vn 0.4698 -0.5165 -0.7159
vn -0.8130 0.5059 0.2883
vn -0.8028 0.4588 0.3807
vn 0.8948 -0.3911 -0.2153
vn 0.8854 -0.4074 -0.2238
vn 0.8562 -0.4295 -0.2871
vn 0.5487 0.2226 0.8059
vn -0.8664 0.4224 0.2664
vn -0.8664 0.4224 0.2663
vn 0.8099 -0.4152 -0.4144
vn 0.8654 -0.4144 -0.2817
vn -0.9250 0.0633 0.3747
vn -0.9510 0.1965 -0.2388
vn 0.8109 -0.4550 -0.3679
vn 0.7339 -0.4840 -0.4766
vn 0.0292 0.3305 0.9433
vn 0.0779 0.8933 0.4426
vn -0.1149 0.4766 0.8716
vn 0.7597 -0.4395 -0.4793
vn 0.4382 0.2832 0.8531
vn 0.4029 0.4837 0.7770
vn -0.2813 -0.8666 0.4122
vn -0.2979 -0.8219 0.4855
vn -0.2851 -0.8563 0.4306
vn -0.2807 -0.8569 0.4324
vn -0.2853 -0.8564 0.4303
vn 0.1874 -0.9818 -0.0300
vn -0.3019 -0.8543 0.4231
vn -0.2851 -0.8563 0.4307
vn -0.3129 -0.8219 0.4760
vn -0.8340 -0.1794 0.5218
vn -0.3339 -0.8363 0.4349
vn -0.1802 -0.8676 0.4635
vn -0.4239 -0.7996 0.4255
vn -0.2852 -0.8563 0.4306
vn -0.3166 -0.8332 0.4533
vn -0.2852 -0.8562 0.4307
vn 0.5080 -0.7197 0.4732
vn -0.3333 -0.6493 0.6836
vn -0.2851 -0.8564 0.4306
vn -0.0494 -0.2685 -0.9620
vn 0.5637 0.2136 0.7979
vn -0.5789 0.5672 -0.5858
vn -0.1715 0.4876 0.8561
vn -0.3729 0.8780 0.3001
vn 0.0483 -0.1958 -0.9795
vn -0.5865 -0.1995 -0.7850
vn -0.6745 0.7349 -0.0700
vn 0.0494 0.5992 0.7991
vn 0.4383 0.2831 0.8531
usemtl dhd.020
s 1
f 1/1/1 3/2/2 2/3/3
f 4/4/4 6/5/5 5/6/6
f 7/7/7 9/8/8 8/9/7
f 4/4/9 11/10/9 10/11/9
f 1/1/10 12/12/11 8/9/11
f 13/13/12 15/14/13 14/15/14
f 1/1/15 17/16/16 16/17/17
f 15/14/13 19/18/18 18/19/18
f 20/20/19 21/21/20 16/17/19
f 22/22/21 23/23/22 18/19/18
f 24/24/23 20/20/24 25/25/24
f 22/22/25 27/26/26 26/27/27
f 24/24/28 29/28/29 28/29/30
f 30/30/31 31/31/31 26/27/32
f 32/32/33 33/33/34 28/29/30
f 13/13/35 35/34/36 34/35/36
f 30/30/31 37/36/37 36/37/37
f 38/38/38 32/32/33 39/39/39
f 40/40/40 34/35/41 41/41/42
f 42/42/43 43/43/44 36/37/37
f 44/44/45 38/38/46 45/45/46
f 46/46/47 47/47/47 41/41/47
f 42/42/43 49/48/48 48/49/49
f 44/44/50 51/50/51 50/51/52
f 46/46/53 53/52/53 52/53/53
f 54/54/54 10/11/55 48/49/49
f 55/55/56 56/56/57 50/51/52
f 3/2/58 57/57/59 52/53/59
f 55/55/56 59/58/60 58/59/61
f 2/3/62 3/2/63 60/60/64
f 61/61/65 58/59/61 5/6/6
f 7/7/66 2/3/67 62/62/66
f 15/14/68 33/33/69 19/18/70
f 19/18/70 32/32/71 22/22/72
f 33/33/69 32/32/71 19/18/70
f 27/26/73 56/56/74 30/30/75
f 30/30/75 55/55/76 37/36/70
f 22/22/72 32/32/71 27/26/73
f 13/13/77 33/33/69 15/14/68
f 30/30/75 56/56/74 55/55/76
f 37/36/70 61/61/78 42/42/75
f 49/48/79 6/5/80 54/54/81
f 54/54/81 6/5/80 4/4/70
f 37/36/70 55/55/76 61/61/78
f 42/42/75 6/5/80 49/48/79
f 61/61/78 6/5/80 42/42/75
f 44/44/82 27/26/73 38/38/81
f 38/38/81 27/26/73 32/32/71
f 27/26/73 44/44/82 56/56/74
f 33/33/69 13/13/77 24/24/83
f 24/24/83 13/13/77 20/20/83
f 13/13/77 21/21/84 20/20/83
f 46/46/75 21/21/84 47/47/75
f 47/47/75 21/21/84 40/40/85
f 40/40/85 21/21/84 13/13/77
f 3/2/2 1/1/1 57/57/75
f 57/57/75 21/21/84 46/46/75
f 12/12/75 2/3/3 7/7/86
f 57/57/75 1/1/1 21/21/84
f 1/1/1 2/3/3 12/12/75
f 4/4/4 5/6/6 11/10/4
f 7/7/7 8/9/7 12/12/7
f 4/4/9 10/11/9 54/54/9
f 1/1/87 8/9/11 17/16/11
f 13/13/12 14/15/14 35/34/88
f 1/1/15 16/17/17 21/21/89
f 15/14/13 18/19/18 14/15/14
f 20/20/90 16/17/90 25/25/90
f 22/22/21 18/19/18 19/18/18
f 24/24/28 25/25/24 29/28/29
f 22/22/21 26/27/27 23/23/22
f 24/24/28 28/29/30 33/33/34
f 30/30/31 26/27/32 27/26/91
f 32/32/33 28/29/30 39/39/39
f 13/13/35 34/35/36 40/40/92
f 30/30/31 36/37/37 31/31/31
f 38/38/38 39/39/39 45/45/38
f 40/40/40 41/41/42 47/47/93
f 42/42/43 36/37/37 37/36/37
f 44/44/50 45/45/46 51/50/51
f 46/46/47 41/41/47 53/52/47
f 42/42/43 48/49/49 43/43/44
f 44/44/50 50/51/52 56/56/57
f 46/46/53 52/53/53 57/57/53
f 54/54/54 48/49/49 49/48/48
f 55/55/56 50/51/52 59/58/60
f 3/2/94 52/53/59 60/60/59
f 55/55/56 58/59/61 61/61/65
f 2/3/95 60/60/64 62/62/64
f 61/61/65 5/6/6 6/5/5
f 7/7/96 62/62/96 9/8/96
