# Blender v3.1.2 OBJ File: ''
# www.blender.org
mtllib dhd_light.mtl
o origin_29.001
v 0.444021 1.115130 0.111433
v 0.449793 1.111605 0.108245
v 0.435904 1.123581 0.122861
v 0.448149 1.108896 0.101770
v 0.454520 1.104891 0.098026
v 0.467468 1.104863 0.106542
v 0.436894 1.119637 0.115674
v 0.421069 1.122947 0.111778
v 0.417116 1.124950 0.113144
v 0.407056 1.122974 0.102554
v 0.451869 1.099253 0.085060
v 0.443717 1.104080 0.089261
v 0.448433 1.097078 0.078459
v 0.436110 1.108433 0.092879
v 0.433073 1.106740 0.087502
v 0.469941 1.098981 0.096484
v 0.465084 1.096583 0.088501
v 0.474004 1.095427 0.092109
v 0.460563 1.093323 0.079026
v 0.468579 1.092081 0.081863
v 0.429580 1.112394 0.096432
v 0.476883 1.101292 0.105675
v 0.480144 1.097691 0.100676
v 0.495976 1.098690 0.113145
v 0.485634 1.105542 0.119920
v 0.486188 1.099059 0.107398
v 0.481540 1.102574 0.111309
v 0.463268 1.087610 0.069457
v 0.465225 1.089667 0.074844
v 0.410751 1.118653 0.096409
v 0.417429 1.114932 0.093433
vt 0.545576 0.667282
vt 0.581344 0.654531
vt 0.532614 0.678964
vt 0.517502 0.671769
vt 0.502588 0.684579
vt 0.513473 0.718810
vt 0.562356 0.653015
vt 0.565932 0.614082
vt 0.554362 0.576042
vt 0.572780 0.605585
vt 0.471475 0.671619
vt 0.457252 0.660087
vt 0.489134 0.654827
vt 0.493545 0.628951
vt 0.504847 0.638986
vt 0.485779 0.719400
vt 0.471204 0.726542
vt 0.469339 0.704111
vt 0.449324 0.708794
vt 0.448628 0.688705
vt 0.519491 0.625624
vt 0.503430 0.739948
vt 0.488008 0.744926
vt 0.506505 0.787019
vt 0.500078 0.762031
vt 0.532126 0.766866
vt 0.513832 0.753362
vt 0.421510 0.690011
vt 0.433914 0.697380
vt 0.535426 0.581307
vt 0.522079 0.595404
vn 0.2850 0.8563 -0.4308
vn 0.2852 0.8563 -0.4307
vn 0.2851 0.8563 -0.4307
vn 0.2852 0.8562 -0.4307
vn 0.2851 0.8563 -0.4306
vn 0.2852 0.8563 -0.4306
vn 0.2851 0.8562 -0.4307
usemtl dhd_button_light.024
s 1
f 1/1/1 3/2/2 2/3/3
f 4/4/2 2/3/3 5/5/3
f 5/5/3 2/3/3 6/6/3
f 6/6/3 2/3/3 3/2/2
f 3/2/2 1/1/1 7/7/4
f 8/8/3 10/9/3 9/10/5
f 11/11/6 13/12/6 12/13/6
f 12/13/6 15/14/5 14/15/3
f 16/16/4 18/17/2 17/18/3
f 17/18/3 20/19/3 19/20/6
f 18/17/2 20/19/3 17/18/3
f 19/20/6 13/12/6 11/11/6
f 12/13/6 13/12/6 15/14/5
f 14/15/3 15/14/5 21/21/3
f 22/22/4 23/23/4 16/16/4
f 23/23/4 18/17/2 16/16/4
f 24/24/2 26/25/2 25/26/2
f 25/26/2 26/25/2 27/27/2
f 27/27/2 26/25/2 22/22/4
f 23/23/4 22/22/4 26/25/2
f 13/12/6 19/20/6 28/28/6
f 28/28/6 19/20/6 29/29/6
f 29/29/6 19/20/6 20/19/3
f 30/30/4 21/21/3 31/31/7
f 31/31/7 21/21/3 15/14/5
f 2/3/3 21/21/3 30/30/4
f 2/3/3 4/4/2 21/21/3
f 8/8/3 1/1/1 10/9/3
f 7/7/4 1/1/1 8/8/3
