# Blender v3.1.2 OBJ File: ''
# www.blender.org
mtllib dhd.mtl
o origin_19
v 0.419675 1.112408 0.114050
v 0.411603 1.114942 0.113742
v 0.414397 1.118255 0.122181
v 0.481402 1.097474 0.101077
v 0.422641 1.121314 0.109572
v 0.495967 1.077459 0.095072
v 0.508342 1.081295 0.086745
v 0.505376 1.072390 0.091224
v 0.417350 1.111709 0.111120
v 0.420316 1.120614 0.106641
v 0.493839 1.086273 0.087040
v 0.490873 1.077368 0.091519
v 0.417192 1.106748 0.101151
v 0.420157 1.115653 0.096672
v 0.488521 1.086790 0.084547
v 0.485556 1.077885 0.089026
v 0.405583 1.124780 0.105171
v 0.402618 1.115875 0.109650
v 0.481113 1.080468 0.091220
v 0.484078 1.089373 0.086742
v 0.414568 1.123847 0.109264
v 0.482384 1.081765 0.094642
v 0.485350 1.090671 0.090163
v 0.484358 1.086947 0.106251
v 0.484086 1.099421 0.106724
v 0.487323 1.095852 0.101772
v 0.417363 1.127160 0.117702
v 0.478208 1.093473 0.091006
v 0.475242 1.084568 0.095485
v 0.489348 1.081934 0.099588
v 0.492313 1.090840 0.095110
v 0.481120 1.090516 0.111203
v 0.478436 1.088569 0.105556
v 0.498932 1.086364 0.090594
vt 0.611585 0.552645
vt 0.612026 0.551961
vt 0.612436 0.552354
vt 0.610612 0.558833
vt 0.610599 0.552822
vt 0.612043 0.561086
vt 0.612111 0.562132
vt 0.612067 0.561468
vt 0.611476 0.552266
vt 0.610519 0.552520
vt 0.611180 0.561534
vt 0.611639 0.561002
vt 0.611065 0.551774
vt 0.610361 0.551341
vt 0.610855 0.561253
vt 0.611337 0.560835
vt 0.611872 0.550632
vt 0.611608 0.551364
vt 0.611207 0.560622
vt 0.610581 0.560861
vt 0.612671 0.551232
vt 0.611339 0.560348
vt 0.610478 0.560509
vt 0.612135 0.559532
vt 0.613162 0.559098
vt 0.613054 0.559682
vt 0.613387 0.551920
vt 0.610361 0.559905
vt 0.611102 0.559852
vt 0.612045 0.560396
vt 0.612938 0.560515
vt 0.612264 0.558989
vt 0.611706 0.559108
vt 0.612835 0.561296
vn -0.1191 0.8801 -0.4596
vn 0.6276 0.6937 -0.3534
vn 0.2852 0.8563 -0.4306
vn 0.6338 0.2898 0.7172
vn 0.2742 0.3577 0.8927
vn 0.2741 0.3576 0.8927
vn -0.5663 -0.1346 -0.8131
vn -0.4832 -0.2596 -0.8361
vn -0.4823 -0.2601 -0.8365
vn -0.5391 0.6838 0.4917
vn -0.7386 0.4827 0.4707
vn -0.7386 0.4827 0.4706
vn 0.1563 0.4018 0.9023
vn -0.0868 0.4706 0.8781
vn -0.1731 0.6414 0.7474
vn -0.9584 0.2614 -0.1148
vn -0.3243 0.5090 0.7973
vn 0.5843 0.2009 0.7863
vn 0.5353 0.2305 0.8126
vn 0.5353 0.2304 0.8126
vn 0.5354 0.2304 0.8126
vn 0.0370 -0.2853 -0.9577
vn 0.3129 -0.5078 -0.8026
vn 0.7122 -0.0329 -0.7013
vn 0.9005 -0.3932 -0.1856
vn 0.9005 -0.3933 -0.1856
vn -0.8122 0.0030 -0.5834
vn -0.8362 0.0026 -0.5485
vn -0.8231 -0.0116 -0.5678
vn 0.9920 -0.0028 -0.1265
vn 0.9121 -0.3805 -0.1526
vn -0.1322 0.8009 0.5840
vn 0.2499 0.3674 0.8959
vn -0.6547 -0.0263 -0.7555
vn -0.7277 -0.0990 -0.6787
vn -0.2921 -0.3503 -0.8899
vn 0.9158 -0.3760 -0.1411
vn 0.8073 -0.0200 -0.5898
vn -0.5594 -0.2162 -0.8002
vn 0.2756 0.8204 -0.5010
vn 0.2851 0.8562 -0.4308
vn 0.4092 0.8742 -0.2615
vn 0.2852 0.8563 -0.4305
vn 0.8065 0.5718 -0.1505
vn 0.7664 0.5367 -0.3529
vn 0.1701 0.8676 -0.4673
vn 0.2851 0.8563 -0.4307
vn 0.2627 0.8603 -0.4368
vn 0.0556 0.9539 -0.2948
vn -0.1146 0.7318 0.6719
vn -0.6430 0.7453 0.1763
vn 0.1559 0.4008 0.9028
vn -0.8729 0.3027 -0.3826
vn 0.3128 -0.5079 -0.8026
vn 0.9006 -0.3931 -0.1855
vn -0.8361 0.0026 -0.5486
vn 0.9121 -0.3805 -0.1527
vn 0.2499 0.3673 0.8959
usemtl dhd.005
s 1
f 1/1/1 2/2/2 3/3/3
f 1/1/4 4/4/5 5/5/6
f 6/6/7 7/7/8 8/8/9
f 9/9/10 5/5/11 10/10/12
f 8/8/13 11/11/14 12/12/15
f 13/13/16 10/10/16 14/14/16
f 12/12/15 15/15/17 16/16/17
f 13/13/18 17/17/18 18/18/18
f 19/19/19 15/15/20 20/20/21
f 2/2/22 17/17/23 21/21/23
f 22/22/24 20/20/25 23/23/26
f 24/24/27 25/25/28 26/26/29
f 2/2/30 27/27/31 3/3/31
f 22/22/32 28/28/33 29/29/33
f 30/30/34 26/26/29 31/31/35
f 32/32/36 27/27/36 25/25/36
f 29/29/37 4/4/37 33/33/38
f 30/30/34 34/34/39 6/6/7
f 6/6/40 8/8/41 12/12/42
f 12/12/42 16/16/43 22/22/44
f 16/16/43 19/19/43 22/22/44
f 22/22/44 29/29/3 33/33/45
f 30/30/46 6/6/40 12/12/42
f 3/3/3 32/32/47 1/1/1
f 32/32/47 24/24/48 33/33/45
f 24/24/48 30/30/46 22/22/44
f 30/30/46 12/12/42 22/22/44
f 22/22/44 33/33/45 24/24/48
f 13/13/47 18/18/47 2/2/2
f 9/9/49 13/13/47 2/2/2
f 32/32/47 33/33/45 1/1/1
f 1/1/1 9/9/49 2/2/2
f 1/1/4 33/33/50 4/4/5
f 6/6/7 34/34/39 7/7/8
f 9/9/10 1/1/51 5/5/11
f 8/8/13 7/7/52 11/11/14
f 13/13/16 9/9/53 10/10/16
f 12/12/15 11/11/14 15/15/17
f 13/13/18 14/14/18 17/17/18
f 19/19/19 16/16/19 15/15/20
f 2/2/22 18/18/54 17/17/23
f 22/22/24 19/19/55 20/20/25
f 24/24/27 32/32/56 25/25/28
f 2/2/30 21/21/57 27/27/57
f 22/22/32 23/23/58 28/28/58
f 30/30/34 24/24/27 26/26/29
f 32/32/36 3/3/36 27/27/36
f 29/29/37 28/28/37 4/4/37
f 30/30/34 31/31/35 34/34/39
