# Blender v3.1.2 OBJ File: ''
# www.blender.org
mtllib dhd_light.mtl
o origin_19.001
v 0.481402 1.097474 0.101077
v 0.485350 1.090671 0.090163
v 0.487323 1.095852 0.101772
v 0.484086 1.099421 0.106724
v 0.417363 1.127160 0.117702
v 0.422641 1.121314 0.109572
v 0.414568 1.123847 0.109264
v 0.405583 1.124780 0.105171
v 0.420157 1.115653 0.096672
v 0.493839 1.086273 0.087040
v 0.508342 1.081295 0.086745
v 0.498932 1.086364 0.090594
v 0.484078 1.089373 0.086742
v 0.488521 1.086790 0.084547
v 0.478208 1.093473 0.091006
v 0.492313 1.090840 0.095110
v 0.420316 1.120614 0.106641
vt 0.487989 0.748001
vt 0.456839 0.751638
vt 0.484858 0.761866
vt 0.500113 0.756912
vt 0.584130 0.608665
vt 0.558978 0.616549
vt 0.565083 0.597473
vt 0.562323 0.574043
vt 0.528096 0.603631
vt 0.441845 0.769543
vt 0.429231 0.802474
vt 0.446781 0.782899
vt 0.449101 0.747021
vt 0.439801 0.756135
vt 0.464897 0.735659
vt 0.463763 0.769996
vt 0.553489 0.609502
vn -0.2851 -0.8563 0.4307
vn -0.2851 -0.8563 0.4306
vn -0.2852 -0.8563 0.4307
vn -0.2852 -0.8563 0.4306
vn -0.2850 -0.8563 0.4308
usemtl dhd_button_light.006
s 1
f 1/1/1 2/2/1 3/3/1
f 3/3/1 4/4/1 1/1/1
f 4/4/1 5/5/2 6/6/2
f 1/1/1 4/4/1 6/6/2
f 7/7/1 8/8/1 9/9/1
f 10/10/3 11/11/4 12/12/4
f 13/13/5 14/14/1 2/2/1
f 14/14/1 10/10/3 2/2/1
f 1/1/1 15/15/2 2/2/1
f 10/10/3 12/12/4 16/16/3
f 5/5/2 7/7/1 6/6/2
f 7/7/1 9/9/1 17/17/1
f 7/7/1 17/17/1 6/6/2
f 10/10/3 16/16/3 2/2/1
f 16/16/3 3/3/1 2/2/1
