# Blender v3.1.2 OBJ File: ''
# www.blender.org
mtllib dhd.mtl
o origin_20
v 0.443125 1.096964 0.098867
v 0.432144 1.105359 0.108288
v 0.445001 1.102331 0.110782
v 0.467558 1.112889 0.146708
v 0.475499 1.105648 0.137570
v 0.461991 1.114221 0.145671
v 0.477693 1.087300 0.102541
v 0.447967 1.111236 0.106303
v 0.480659 1.096205 0.098062
v 0.427290 1.113759 0.121778
v 0.422750 1.123739 0.114467
v 0.430256 1.122664 0.117299
v 0.419785 1.114834 0.118946
v 0.435109 1.114264 0.103810
v 0.454342 1.115566 0.143282
v 0.478464 1.114553 0.133091
v 0.457307 1.124472 0.138803
v 0.475242 1.120473 0.142728
v 0.454908 1.088151 0.089146
v 0.446090 1.105869 0.094389
v 0.472276 1.111568 0.147207
v 0.470523 1.121794 0.142230
v 0.465641 1.079883 0.079813
v 0.457873 1.097056 0.084667
v 0.464957 1.123126 0.141192
v 0.480623 1.081116 0.068036
v 0.468607 1.088788 0.075334
v 0.477657 1.072211 0.072515
vt 0.628674 0.566634
vt 0.627263 0.567366
vt 0.628259 0.568469
vt 0.607434 0.580241
vt 0.607313 0.580070
vt 0.607271 0.580534
vt 0.626990 0.563777
vt 0.625953 0.563278
vt 0.625953 0.567522
vt 0.627466 0.569444
vt 0.626811 0.570218
vt 0.627819 0.570704
vt 0.627846 0.569624
vt 0.629451 0.568984
vt 0.607099 0.579964
vt 0.606433 0.578757
vt 0.606433 0.581918
vt 0.609001 0.581087
vt 0.628980 0.564677
vt 0.629940 0.566876
vt 0.607454 0.580411
vt 0.608935 0.579972
vt 0.628759 0.563150
vt 0.630262 0.564646
vt 0.608404 0.578778
vt 0.629774 0.562555
vt 0.628304 0.561438
vt 0.628243 0.562328
vn -0.2852 -0.8563 0.4306
vn -0.3873 -0.8017 0.4553
vn -0.2852 -0.8563 0.4307
vn -0.2851 -0.8563 0.4307
vn 0.3665 0.3178 0.8745
vn 0.4899 0.2560 0.8334
vn -0.2424 0.4991 0.8319
vn -0.2424 0.4992 0.8319
vn 0.6031 0.1889 0.7750
vn 0.5833 0.2299 0.7790
vn -0.6998 -0.1210 -0.7040
vn -0.6998 -0.1211 -0.7040
vn -0.6991 -0.1216 -0.7046
vn -0.3809 -0.3111 -0.8707
vn -0.6928 -0.1263 -0.7100
vn -0.6991 -0.1215 -0.7046
vn 0.9185 -0.1157 0.3782
vn 0.9185 -0.1156 0.3781
vn -0.6959 -0.1158 -0.7088
vn -0.6928 -0.1263 -0.7099
vn 0.0288 0.4414 0.8968
vn 0.0289 0.4414 0.8968
vn -0.0127 0.4526 0.8916
vn -0.6512 -0.1566 -0.7426
vn -0.6948 -0.1249 -0.7083
vn -0.1175 0.4771 0.8709
vn -0.5965 -0.1932 -0.7790
vn -0.1804 0.4892 0.8533
vn -0.1175 0.4772 0.8709
vn 0.9585 -0.2553 0.1271
vn -0.2851 -0.8563 0.4306
vn -0.2764 -0.8579 0.4332
vn -0.2853 -0.8563 0.4306
vn -0.2851 -0.8562 0.4308
usemtl dhd.016
s 1
f 1/1/1 3/2/2 2/3/1
f 4/4/3 6/5/4 5/6/3
f 7/7/5 9/8/5 8/9/6
f 10/10/7 12/11/8 11/12/8
f 10/10/9 3/2/10 8/9/6
f 13/13/11 11/12/12 14/14/13
f 15/15/14 17/16/14 16/17/14
f 1/1/15 2/3/16 14/14/13
f 5/6/17 16/17/18 18/18/17
f 19/19/19 1/1/15 20/20/20
f 21/21/21 18/18/22 22/22/23
f 23/23/24 19/19/19 24/24/25
f 4/4/23 22/22/23 25/25/26
f 23/23/24 27/26/24 26/27/27
f 15/15/28 6/5/29 25/25/26
f 28/28/30 26/27/30 9/8/30
f 2/3/1 10/10/1 13/13/31
f 3/2/2 19/19/32 7/7/1
f 7/7/1 23/23/1 28/28/3
f 19/19/32 23/23/1 7/7/1
f 2/3/1 3/2/2 10/10/1
f 19/19/32 3/2/2 1/1/1
f 21/21/33 4/4/3 5/6/3
f 5/6/3 6/5/4 15/15/34
f 7/7/5 8/9/6 3/2/10
f 10/10/7 11/12/8 13/13/7
f 10/10/9 8/9/6 12/11/9
f 13/13/11 14/14/13 2/3/16
f 15/15/14 16/17/14 5/6/14
f 1/1/15 14/14/13 20/20/20
f 5/6/17 18/18/17 21/21/17
f 19/19/19 20/20/20 24/24/25
f 21/21/21 22/22/23 4/4/23
f 23/23/24 24/24/25 27/26/24
f 4/4/23 25/25/26 6/5/29
f 23/23/24 26/27/27 28/28/27
f 15/15/28 25/25/26 17/16/28
f 28/28/30 9/8/30 7/7/30
