# Blender v3.1.2 OBJ File: ''
# www.blender.org
mtllib dhd_light.mtl
o origin_20.001
v 0.447967 1.111236 0.106303
v 0.430256 1.122664 0.117299
v 0.435109 1.114264 0.103810
v 0.464957 1.123126 0.141192
v 0.478464 1.114553 0.133091
v 0.470523 1.121794 0.142230
v 0.422750 1.123739 0.114467
v 0.446090 1.105869 0.094389
v 0.457873 1.097056 0.084667
v 0.468607 1.088788 0.075334
v 0.480659 1.096205 0.098062
v 0.480623 1.081116 0.068036
v 0.457307 1.124472 0.138803
v 0.475242 1.120473 0.142728
vt 0.529212 0.673724
vt 0.533705 0.642534
vt 0.572107 0.638477
vt 0.602544 0.730434
vt 0.600421 0.743547
vt 0.571053 0.757034
vt 0.571327 0.619474
vt 0.500333 0.663091
vt 0.465455 0.685393
vt 0.480919 0.744805
vt 0.432392 0.705497
vt 0.403520 0.729648
vt 0.603079 0.711863
vt 0.597684 0.754445
vn 0.2851 0.8563 -0.4307
vn 0.2852 0.8563 -0.4307
vn 0.2852 0.8563 -0.4306
vn 0.2851 0.8563 -0.4306
usemtl dhd_button_light.017
s 1
f 1/1/1 3/2/1 2/3/1
f 4/4/2 6/5/3 5/6/2
f 2/3/1 3/2/1 7/7/1
f 3/2/1 1/1/1 8/8/1
f 8/8/1 1/1/1 9/9/4
f 9/9/4 11/10/4 10/11/3
f 10/11/3 11/10/4 12/12/2
f 11/10/4 9/9/4 1/1/1
f 13/13/2 4/4/2 5/6/2
f 5/6/2 6/5/3 14/14/1
